<?xml version="1.0" encoding="UTF-8" standalone="no"?>
<!-- Created with Inkscape (http://www.inkscape.org/) -->

<svg
   xmlns:dc="http://purl.org/dc/elements/1.1/"
   xmlns:cc="http://creativecommons.org/ns#"
   xmlns:rdf="http://www.w3.org/1999/02/22-rdf-syntax-ns#"
   xmlns:svg="http://www.w3.org/2000/svg"
   xmlns="http://www.w3.org/2000/svg"
   xmlns:xlink="http://www.w3.org/1999/xlink"
   xmlns:sodipodi="http://sodipodi.sourceforge.net/DTD/sodipodi-0.dtd"
   xmlns:inkscape="http://www.inkscape.org/namespaces/inkscape"
   width="150"
   height="100"
   id="icon"
   sodipodi:version="0.32"
   inkscape:version="0.92.4 (5da689c313, 2019-01-14)"
   version="1.0"
   sodipodi:docname="app-icon.svg"
   inkscape:output_extension="org.inkscape.output.svg.inkscape">
  <title
     id="doctitle">App-icon</title>
  <defs
     id="defsz">
    <linearGradient
       inkscape:collect="always"
       id="linearGradient10047">
      <stop
         style="stop-color:#555753;stop-opacity:1"
         offset="0"
         id="stop10049" />
      <stop
         style="stop-color:#eeeeec;stop-opacity:1"
         offset="1"
         id="stop10051" />
    </linearGradient>
    <linearGradient
       inkscape:collect="always"
       id="linearGradient10027">
      <stop
         style="stop-color:#555753;stop-opacity:1"
         offset="0"
         id="stop10029" />
      <stop
         id="stop10045"
         offset="0.82309282"
         style="stop-color:#555753;stop-opacity:1" />
      <stop
         id="stop10035"
         offset="0.92868489"
         style="stop-color:#d3d7cf;stop-opacity:1" />
      <stop
         style="stop-color:#000000;stop-opacity:0;"
         offset="1"
         id="stop10031" />
    </linearGradient>
    <linearGradient
       inkscape:collect="always"
       id="linearGradient9856">
      <stop
         style="stop-color:#888a85;stop-opacity:1"
         offset="0"
         id="stop9858" />
      <stop
         id="stop9864"
         offset="0.04709055"
         style="stop-color:#888a85;stop-opacity:1" />
      <stop
         style="stop-color:#555753;stop-opacity:1"
         offset="0.23050508"
         id="stop9874" />
      <stop
         style="stop-color:#555753;stop-opacity:1"
         offset="1"
         id="stop9860" />
    </linearGradient>
    <inkscape:path-effect
       vertical="false"
       scale_y_rel="false"
       deactivate_knotholder="false"
       bendpath-nodetypes="cc"
       prop_scale="1"
       is_visible="true"
       bendpath="m 573.23098,118.10429 c 26.3574,9.12694 57.80555,27.44466 105.31044,26.93611"
       id="path-effect15992"
       effect="bend_path" />
    <linearGradient
       inkscape:collect="always"
       xlink:href="#linearGradient9856"
       id="linearGradient9862"
       x1="108.5"
       y1="83.5"
       x2="108.5"
       y2="72"
       gradientUnits="userSpaceOnUse" />
    <linearGradient
       inkscape:collect="always"
       xlink:href="#linearGradient10027"
       id="linearGradient10033"
       x1="33"
       y1="59"
       x2="33"
       y2="72"
       gradientUnits="userSpaceOnUse" />
    <radialGradient
       inkscape:collect="always"
       xlink:href="#linearGradient10047"
       id="radialGradient10055"
       cx="33.1978"
       cy="73.593964"
       fx="33.1978"
       fy="73.593964"
       r="23.500003"
       gradientTransform="matrix(0.8936168,-2.1708241e-7,-6.9085817e-8,0.2127659,3.3338919,55.341721)"
       gradientUnits="userSpaceOnUse" />
  </defs>
  <sodipodi:namedview
     id="base"
     pagecolor="#ffffff"
     bordercolor="#666666"
     borderopacity="1.0"
     gridtolerance="10000"
     guidetolerance="10"
     objecttolerance="10"
     inkscape:pageopacity="0.0"
     inkscape:pageshadow="2"
     inkscape:zoom="2"
     inkscape:cx="-135"
     inkscape:cy="35"
     inkscape:document-units="px"
     inkscape:current-layer="artwork"
     showgrid="false"
     inkscape:snap-nodes="false"
     inkscape:snap-bbox="false"
     inkscape:snap-global="true"
     showguides="true"
     inkscape:guide-bbox="true"
     inkscape:window-width="1680"
     inkscape:window-height="1031"
     inkscape:window-x="0"
     inkscape:window-y="0"
     inkscape:snap-intersection-line-segments="true"
     inkscape:object-paths="true"
     inkscape:object-nodes="true"
     inkscape:window-maximized="1">
    <inkscape:grid
       type="xygrid"
       id="grid13478"
       visible="true"
       enabled="true"
       spacingx="0.5"
       spacingy="0.5"
       empspacing="2"
       originx="0"
       originy="0" />
  </sodipodi:namedview>
  <metadata
     id="metadead">
    <rdf:RDF>
      <cc:Work
         rdf:about="">
        <dc:format>image/svg+xml</dc:format>
        <dc:type
           rdf:resource="http://purl.org/dc/dcmitype/StillImage" />
        <dc:title>App-icon</dc:title>
        <cc:license
           rdf:resource="http://creativecommons.org/licenses/by-sa/4.0/" />
        <dc:creator>
          <cc:Agent>
            <dc:title>Joel Holdsworth</dc:title>
          </cc:Agent>
        </dc:creator>
        <dc:publisher>
          <cc:Agent>
            <dc:title>Lumiera.org</dc:title>
          </cc:Agent>
        </dc:publisher>
        <dc:description>The Lumiera Application Logo

prepared for Lumiera build :: Icon rendering</dc:description>
        <dc:date>2008</dc:date>
        <dc:identifier>app-icon</dc:identifier>
      </cc:Work>
      <cc:License
         rdf:about="http://creativecommons.org/licenses/by-sa/4.0/">
        <cc:permits
           rdf:resource="http://creativecommons.org/ns#Reproduction" />
        <cc:permits
           rdf:resource="http://creativecommons.org/ns#Distribution" />
        <cc:requires
           rdf:resource="http://creativecommons.org/ns#Notice" />
        <cc:requires
           rdf:resource="http://creativecommons.org/ns#Attribution" />
        <cc:permits
           rdf:resource="http://creativecommons.org/ns#DerivativeWorks" />
        <cc:requires
           rdf:resource="http://creativecommons.org/ns#ShareAlike" />
      </cc:License>
    </rdf:RDF>
  </metadata>
  <g
     inkscape:groupmode="layer"
     id="artwork"
     inkscape:label="artwork:app-icon"
     style="display:inline">
    <g
       inkscape:groupmode="layer"
       id="layerp"
       inkscape:label="plate#1"
       style="display:none"
       sodipodi:insensitive="true">
      <rect
         id="bbox48"
         x="8"
         y="44"
         width="48"
         height="48"
         style="display:inline;fill:#000000;fill-opacity:0.5;fill-rule:evenodd;stroke:#5a8fb2;stroke-width:0.1;stroke-opacity:1"
         sodipodi:insensitive="true" />
      <rect
         id="bbox24"
         x="96"
         y="68"
         width="24"
         height="24"
         style="display:inline;fill:#000000;fill-opacity:0.5;fill-rule:evenodd;stroke:#5a8fb2;stroke-width:0.1;stroke-opacity:1"
         sodipodi:insensitive="true" />
      <rect
         id="bbox22"
         x="97"
         y="69"
         width="22"
         height="22"
         style="display:inline;fill:#000000;fill-opacity:0.5;fill-rule:evenodd;stroke:#5a8fb2;stroke-width:0.1;stroke-opacity:1"
         sodipodi:insensitive="true" />
    </g>
    <g
       id="template2">
      <path
         inkscape:connector-curvature="0"
         sodipodi:nodetypes="ccccc"
         id="path9886"
         d="M -177.0341,282.31973 -14.7785,198.8 -184,164 -361.3696,197.09475 Z"
         style="fill:#000000;fill-opacity:1;fill-rule:evenodd;stroke:none" />
      <path
         inkscape:connector-curvature="0"
         id="path9884"
         d="m -180,139.28125 -180.9375,57.875 1.59375,0.6875 c 54.88591,20.17794 122.68471,57.57388 183.40625,39.90625 58.2053,14.10701 111.68205,-20.96691 161.15625,-38.9375 z"
         style="display:inline;overflow:visible;visibility:visible;opacity:1;fill:#cccccc;fill-opacity:1;fill-rule:nonzero;stroke:none;stroke-width:0.20000002;stroke-linecap:butt;stroke-linejoin:miter;stroke-miterlimit:4;stroke-dasharray:none;stroke-dashoffset:0;stroke-opacity:1;marker:none;marker-start:none;marker-mid:none;marker-end:none;enable-background:accumulate" />
      <path
         inkscape:connector-curvature="0"
         id="path9888"
         d="m -181.2491,145.83343 c -0.965,0.0786 -1.9717,0.31532 -3.1432,0.6833 l -9.1107,2.82433 c -2.0682,0.64961 -3.4149,1.74482 -0.9111,2.6421 l 11.1151,3.96318 c 2.0341,0.77764 3.9099,0.48183 5.7397,-0.27333 l 10.4774,-3.46208 c 1.0849,-0.41512 2.9773,-1.24819 -0.6833,-2.551 l -9.0197,-3.18875 c -1.4225,-0.50629 -2.8559,-0.76877 -4.4642,-0.63775 z"
         style="fill:#000000;fill-opacity:1;fill-rule:evenodd;stroke:none" />
      <path
         inkscape:connector-curvature="0"
         sodipodi:nodetypes="ccccccccc"
         id="path9890"
         d="m -160.8571,161.27218 c -1.9209,0.66806 -3.6791,1.67481 -1.1688,2.56282 l 11.1417,3.92183 c 2.0448,0.77048 3.7136,0.35456 5.3933,-0.41831 l 9.8183,-3.4512 c 0.9996,-0.42538 3.1536,-1.43568 -0.5155,-2.72484 l -9.0961,-3.30658 c -1.4172,-0.44406 -2.7765,-0.91081 -4.0115,-0.4236 z"
         style="fill:#000000;fill-opacity:1;fill-rule:evenodd;stroke:none" />
      <path
         inkscape:connector-curvature="0"
         sodipodi:nodetypes="ccccccccc"
         id="path9892"
         d="m -118.1679,169.13807 -10.51,3.89794 c -2.2196,0.66377 -3.9387,1.48662 -1.639,2.23813 l 11.7321,4.24522 c 1.9603,0.74942 2.8245,0.53982 5.0408,-0.33889 l 10.1495,-3.90175 c 1.7627,-0.6265 2.9563,-1.24063 0.0324,-2.30746 l -11.1368,-3.95107 c -1.4558,-0.51292 -2.0738,-0.41463 -3.669,0.11788 z"
         style="fill:#000000;fill-opacity:1;fill-rule:evenodd;stroke:none" />
      <path
         inkscape:connector-curvature="0"
         sodipodi:nodetypes="ccccscccc"
         id="path9894"
         d="m -345.9071,198.90755 13.0873,5.2515 c 2.7143,1.00325 3.2613,1.08361 5.4886,0.48579 l 13.7018,-4.62408 c 1.6203,-0.4672 1.781,-1.60387 -1.0029,-2.54598 -0.2545,-0.0861 -11.259,-5.03108 -11.259,-5.03108 -2.2315,-0.46302 -2.806,-0.39117 -4.6734,0.28705 l -12.5033,3.89907 c -2.1334,0.63967 -4.2112,1.4435 -2.8391,2.27773 z"
         style="fill:#000000;fill-opacity:1;fill-rule:evenodd;stroke:none" />
      <path
         inkscape:connector-curvature="0"
         style="fill:#000000;fill-opacity:1;fill-rule:evenodd;stroke:none"
         d="m -86.068599,180.67255 -10.3243,4.01218 c -2.1775,0.68322 -3.869501,1.53019 -1.6392,2.30371 l 11.6352,4.21113 c 1.8992,0.77138 2.746199,0.55564 4.924399,-0.34881 l 9.9725,-4.0161 c 1.7311,-0.64487 2.9066,-1.277 0.0728,-2.37509 l -11.0596,-3.90836 c -1.411099,-0.52796 -1.751699,-0.58528 -3.317699,-0.0371 l -0.2641,0.15852 z"
         id="path9900"
         sodipodi:nodetypes="cccccccccc" />
      <path
         inkscape:connector-curvature="0"
         sodipodi:nodetypes="ccccccccc"
         id="path9902"
         d="m -62.3331,196.66044 c -2.1775,0.68322 -3.8695,1.53019 -1.6392,2.30371 l 11.6352,4.21113 c 1.8992,0.77138 2.7461,0.55564 4.9243,-0.34882 l 9.3687,-4.09158 c 1.731,-0.64487 2.9066,-1.27701 0.0728,-2.37509 l -11.0596,-3.90836 c -1.4111,-0.52796 -1.7517,-0.58528 -3.3177,-0.0371 l -9.9845,4.24615 z"
         style="fill:#000000;fill-opacity:1;fill-rule:evenodd;stroke:none" />
      <path
         inkscape:connector-curvature="0"
         style="fill:#000000;fill-opacity:1;fill-rule:evenodd;stroke:none"
         d="m -311.4074,212.35795 10.9356,3.99399 c 2.7595,1.00324 3.2946,1.0836 5.314,0.48578 l 12.7036,-4.32818 c 1.4635,-0.4672 1.4207,-1.60386 -1.3946,-2.54597 -0.2574,-0.0861 -9.9691,-3.77358 -9.9691,-3.77358 -2.2062,-0.46302 -2.7413,-0.39117 -4.4039,0.28705 l -10.8727,3.60319 c -1.9227,0.63966 -3.7642,1.4435 -2.3129,2.27772 z"
         id="path9904"
         sodipodi:nodetypes="ccccscccc" />
      <path
         inkscape:connector-curvature="0"
         sodipodi:nodetypes="cccsccccc"
         id="path9906"
         d="m -264.5135,229.20002 c 2.7594,0.77428 4.2254,0.59759 6.1287,-0.0135 l 14.2729,-3.47515 c 1.3794,-0.47654 0.8088,-1.37584 -1.8745,-2.20948 -3.2993,-1.02501 -7.4534,-2.60399 -10.5175,-3.65488 -2.0794,-0.89276 -3.9151,-1.16619 -5.4822,-0.47735 l -11.8539,3.50357 c -2.5519,0.72591 -3.6429,1.89022 -1.2711,2.71518 4.6152,1.53055 6.0417,2.00026 10.5976,3.61124 z"
         style="fill:#000000;fill-opacity:1;fill-rule:evenodd;stroke:none" />
      <path
         inkscape:connector-curvature="0"
         style="fill:#000000;fill-opacity:1;fill-rule:evenodd;stroke:none"
         d="m -223.4892,237.29738 13.4445,-2.75022 c 1.3794,-0.47655 1.5022,-1.55546 -1.2531,-2.10594 l -9.4819,-1.89434 c -2.4937,-0.58207 -4.0187,-1.06263 -5.5858,-0.3738 l -13.2002,2.77866 c -2.5519,0.7259 -5.4034,1.47599 -3.0316,2.30094 l 11.7368,2.26495 c 2.62,0.88218 4.7955,0.12207 7.3713,-0.22025 z"
         id="path9950"
         sodipodi:nodetypes="ccscccccc" />
    </g>
    <g
       id="template1">
      <path
         inkscape:connector-curvature="0"
         sodipodi:nodetypes="cccccc"
         id="path8852"
         d="m -377.05043,-90.740359 180.9219,-57.871091 165.234299,59.527341 -149.906199,66.34374 -96,-24.5 z"
         style="display:inline;overflow:visible;visibility:visible;opacity:1;fill:#cccccc;fill-opacity:1;fill-rule:nonzero;stroke:#800000;stroke-width:0.20000002;stroke-linecap:butt;stroke-linejoin:miter;stroke-miterlimit:4;stroke-dasharray:none;stroke-dashoffset:0;stroke-opacity:1;marker:none;marker-start:none;marker-mid:none;marker-end:none;enable-background:accumulate" />
      <path
         inkscape:connector-curvature="0"
         style="fill:#000000;fill-opacity:1;fill-rule:evenodd;stroke:none"
         d="M -193.15013,-5.5642392 -30.894531,-89.083969 c -49.4742,17.97059 -102.939299,53.07027 -161.144599,38.96326 -61.4687,17.88502 -130.2105,-20.68294 -185.4465,-40.66851 z"
         id="path16034"
         sodipodi:nodetypes="ccccc" />
      <path
         inkscape:connector-curvature="0"
         style="fill:#000000;fill-opacity:1;fill-rule:evenodd;stroke:none"
         d="m -197.36513,-142.05054 c -0.965,0.0786 -1.9717,0.31532 -3.1432,0.6833 l -9.1107,2.82433 c -2.0682,0.64961 -3.4149,1.74482 -0.9111,2.6421 l 11.1151,3.96318 c 2.0341,0.77764 3.9099,0.48183 5.7397,-0.27333 l 10.4774,-3.46208 c 1.0849,-0.41512 2.9773,-1.24819 -0.6833,-2.551 l -9.0197,-3.18875 c -1.4225,-0.50629 -2.8559,-0.76877 -4.4642,-0.63775 z"
         id="path16036" />
      <path
         inkscape:connector-curvature="0"
         style="fill:#000000;fill-opacity:1;fill-rule:evenodd;stroke:none"
         d="m -176.97313,-126.61179 c -1.9209,0.66806 -3.6791,1.67481 -1.1688,2.56282 l 11.1417,3.92183 c 2.0448,0.77048 3.7136,0.35456 5.3933,-0.41831 l 9.8183,-3.4512 c 0.9996,-0.42538 3.1536,-1.43568 -0.5155,-2.72484 l -9.0961,-3.30658 c -1.4172,-0.44406 -2.7765,-0.91081 -4.0115,-0.4236 z"
         id="path16038"
         sodipodi:nodetypes="ccccccccc" />
      <path
         inkscape:connector-curvature="0"
         style="fill:#000000;fill-opacity:1;fill-rule:evenodd;stroke:none"
         d="m -134.28393,-118.7459 -10.51,3.89794 c -2.2196,0.66377 -3.9387,1.48662 -1.639,2.23813 l 11.7321,4.24522 c 1.9603,0.74942 2.8245,0.53982 5.0408,-0.33889 l 10.1495,-3.90175 c 1.7627,-0.6265 2.9563,-1.24063 0.0324,-2.30746 l -11.1368,-3.95107 c -1.4558,-0.51292 -2.0738,-0.41463 -3.669,0.11788 z"
         id="path16040"
         sodipodi:nodetypes="ccccccccc" />
      <path
         inkscape:connector-curvature="0"
         style="fill:#000000;fill-opacity:1;fill-rule:evenodd;stroke:none"
         d="m -362.02313,-88.976419 13.0873,5.2515 c 2.7143,1.00325 3.2613,1.08361 5.4886,0.48579 l 13.7018,-4.62408 c 1.6203,-0.4672 1.781,-1.60387 -1.0029,-2.54598 -0.2545,-0.08612 -11.259,-5.03108 -11.259,-5.03108 -2.2315,-0.46302 -2.806,-0.39117 -4.6734,0.28705 l -12.5033,3.89907 c -2.1334,0.63967 -4.2112,1.4435 -2.8391,2.27773 z"
         id="path16042"
         sodipodi:nodetypes="ccccscccc" />
      <path
         inkscape:connector-curvature="0"
         id="path16044"
         d="m -183.21373,-47.939839 c 0,0 -48.1059,6.49531 -100.4742,-11.77273 -64.5136,-22.50476 -79.5675,-29.83778 -79.5675,-29.83778"
         style="display:inline;overflow:visible;visibility:visible;fill:none;stroke:#009fda;stroke-width:0.20000002;stroke-linecap:butt;stroke-linejoin:miter;stroke-miterlimit:4;stroke-dasharray:none;stroke-dashoffset:0;stroke-opacity:1;marker:none;enable-background:accumulate"
         sodipodi:nodetypes="csc" />
      <path
         inkscape:connector-curvature="0"
         id="path16046"
         d="m -345.59633,-97.060549 c 0,0 47.2939,21.92164 91.1372,35.11521 43.8433,13.19359 93.167,15.62933 93.167,15.62933"
         style="display:inline;overflow:visible;visibility:visible;fill:none;stroke:#009fda;stroke-width:0.20000002;stroke-linecap:butt;stroke-linejoin:miter;stroke-miterlimit:4;stroke-dasharray:none;stroke-dashoffset:0;stroke-opacity:1;marker:none;enable-background:accumulate"
         sodipodi:nodetypes="csc" />
      <path
         inkscape:connector-curvature="0"
         sodipodi:nodetypes="cccccccccc"
         id="path16048"
         d="m -102.18463,-107.21142 -10.3243,4.01218 c -2.1775,0.68322 -3.8695,1.53019 -1.6392,2.30371 l 11.6352,4.211131 c 1.8992,0.77138 2.746199,0.55564 4.924399,-0.34881 l 9.9725,-4.016101 c 1.7311,-0.64487 2.9066,-1.277 0.0728,-2.37509 l -11.0596,-3.90836 c -1.411099,-0.52796 -1.751699,-0.58528 -3.317699,-0.0371 l -0.2641,0.15852 z"
         style="fill:#000000;fill-opacity:1;fill-rule:evenodd;stroke:none" />
      <path
         inkscape:connector-curvature="0"
         style="fill:#000000;fill-opacity:1;fill-rule:evenodd;stroke:none"
         d="m -78.449131,-91.223529 c -2.1775,0.68322 -3.8695,1.53019 -1.6392,2.30371 l 11.6352,4.21113 c 1.8992,0.77138 2.7461,0.55564 4.9243,-0.34882 l 9.3687,-4.09158 c 1.731,-0.64487 2.9066,-1.27701 0.0728,-2.37509 l -11.0596,-3.90836 c -1.4111,-0.52796 -1.7517,-0.58528 -3.3177,-0.03714 z"
         id="path16050"
         sodipodi:nodetypes="ccccccccc" />
      <path
         inkscape:connector-curvature="0"
         sodipodi:nodetypes="ccccscccc"
         id="path16052"
         d="m -327.52343,-75.526019 10.9356,3.99399 c 2.7595,1.00324 3.2946,1.0836 5.314,0.48578 l 12.7036,-4.32818 c 1.4635,-0.4672 1.4207,-1.60386 -1.3946,-2.54597 -0.2574,-0.08613 -9.9691,-3.77358 -9.9691,-3.77358 -2.2062,-0.46302 -2.7413,-0.39117 -4.4039,0.28705 l -10.8727,3.60319 c -1.9227,0.63966 -3.7642,1.4435 -2.3129,2.27772 z"
         style="fill:#000000;fill-opacity:1;fill-rule:evenodd;stroke:none" />
      <path
         inkscape:connector-curvature="0"
         style="fill:#000000;fill-opacity:1;fill-rule:evenodd;stroke:none"
         d="m -280.62953,-58.683949 c 2.7594,0.77428 4.2254,0.59759 6.1287,-0.01348 l 14.2729,-3.47515 c 1.3794,-0.47654 0.8088,-1.37584 -1.8745,-2.20948 -3.2993,-1.02501 -7.4534,-2.60399 -10.5175,-3.65488 -2.0794,-0.89276 -3.9151,-1.16619 -5.4822,-0.47735 l -11.8539,3.50357 c -2.5519,0.72591 -3.6429,1.89022 -1.2711,2.71518 4.6152,1.53055 6.0417,2.00026 10.5976,3.61124 z"
         id="path16054"
         sodipodi:nodetypes="cccsccccc" />
      <path
         inkscape:connector-curvature="0"
         style="display:inline;overflow:visible;visibility:visible;fill:none;stroke:#009fda;stroke-width:0.20000002;stroke-linecap:butt;stroke-linejoin:miter;stroke-miterlimit:4;stroke-dasharray:none;stroke-dashoffset:0;stroke-opacity:1;marker:none;enable-background:accumulate"
         d="m -36.541731,-79.685619 c 0,0 -15.9135,5.96755 -68.768999,23.58606 -52.8555,17.61851 -86.6717,5.68339 -86.6717,5.68339"
         id="path16056" />
      <g
         id="g16058"
         transform="matrix(1.4977647,0,0,1.4977647,-1232.0425,-263.18298)"
         inkscape:path-effect="#path-effect15992">
        <path
           inkscape:connector-curvature="0"
           id="path16060"
           d="m 573.04054,118.33954 c 15.0983,5.2199 29.61826,12.08333 44.82595,17.1163 19.51078,6.45667 40.01704,10.07666 60.57469,9.8702"
           style="display:inline;overflow:visible;visibility:visible;fill:none;stroke:#009fda;stroke-width:0.13353233;stroke-linecap:butt;stroke-linejoin:miter;stroke-miterlimit:4;stroke-dasharray:none;stroke-dashoffset:0;stroke-opacity:1;marker:none;enable-background:accumulate"
           inkscape:original-d="M 580.38105,116.25308 H 686.6293" />
        <path
           inkscape:connector-curvature="0"
           id="path16062"
           d="m 573.84672,116.61089 -1.05666,3.04738"
           style="display:inline;overflow:visible;visibility:visible;fill:none;stroke:#009fda;stroke-width:0.13353233;stroke-linecap:butt;stroke-linejoin:miter;stroke-miterlimit:4;stroke-dasharray:none;stroke-dashoffset:0;stroke-opacity:1;marker:none;enable-background:accumulate"
           inkscape:original-d="m 580.57076,114.35579 v 3.2254" />
        <path
           inkscape:connector-curvature="0"
           style="display:inline;overflow:visible;visibility:visible;fill:none;stroke:#009fda;stroke-width:0.13353233;stroke-linecap:butt;stroke-linejoin:miter;stroke-miterlimit:4;stroke-dasharray:none;stroke-dashoffset:0;stroke-opacity:1;marker:none;enable-background:accumulate"
           d="m 584.84276,120.69281 -1.17428,3.00425"
           id="path16064"
           inkscape:original-d="m 591.88662,114.35579 v 3.2254" />
        <path
           inkscape:connector-curvature="0"
           id="path16066"
           d="m 596.37505,125.30977 -1.20849,2.9915"
           style="display:inline;overflow:visible;visibility:visible;fill:none;stroke:#009fda;stroke-width:0.13353233;stroke-linecap:butt;stroke-linejoin:miter;stroke-miterlimit:4;stroke-dasharray:none;stroke-dashoffset:0;stroke-opacity:1;marker:none;enable-background:accumulate"
           inkscape:original-d="m 603.91289,114.35579 v 3.2254" />
        <path
           inkscape:connector-curvature="0"
           style="display:inline;overflow:visible;visibility:visible;fill:none;stroke:#009fda;stroke-width:0.13353233;stroke-linecap:butt;stroke-linejoin:miter;stroke-miterlimit:4;stroke-dasharray:none;stroke-dashoffset:0;stroke-opacity:1;marker:none;enable-background:accumulate"
           d="m 606.83802,129.46311 -1.15833,3.00952"
           id="path16068"
           inkscape:original-d="m 614.85501,114.35579 v 3.2254" />
        <path
           inkscape:connector-curvature="0"
           id="path16070"
           d="m 618.03182,133.51163 -1.02027,3.05957"
           style="display:inline;overflow:visible;visibility:visible;fill:none;stroke:#009fda;stroke-width:0.13353233;stroke-linecap:butt;stroke-linejoin:miter;stroke-miterlimit:4;stroke-dasharray:none;stroke-dashoffset:0;stroke-opacity:1;marker:none;enable-background:accumulate"
           inkscape:original-d="m 626.47471,114.35579 v 3.2254" />
        <path
           inkscape:connector-curvature="0"
           style="display:inline;overflow:visible;visibility:visible;fill:none;stroke:#009fda;stroke-width:0.13353233;stroke-linecap:butt;stroke-linejoin:miter;stroke-miterlimit:4;stroke-dasharray:none;stroke-dashoffset:0;stroke-opacity:1;marker:none;enable-background:accumulate"
           d="m 628.77838,136.77115 -0.85141,3.11242"
           id="path16072"
           inkscape:original-d="m 637.44964,114.35579 v 3.2254" />
        <path
           inkscape:connector-curvature="0"
           id="path16074"
           d="m 640.87492,139.67562 -0.65247,3.15905"
           style="display:inline;overflow:visible;visibility:visible;fill:none;stroke:#009fda;stroke-width:0.13353233;stroke-linecap:butt;stroke-linejoin:miter;stroke-miterlimit:4;stroke-dasharray:none;stroke-dashoffset:0;stroke-opacity:1;marker:none;enable-background:accumulate"
           inkscape:original-d="m 649.61143,114.35579 v 3.2254" />
        <path
           inkscape:connector-curvature="0"
           style="display:inline;overflow:visible;visibility:visible;fill:none;stroke:#009fda;stroke-width:0.13353233;stroke-linecap:butt;stroke-linejoin:miter;stroke-miterlimit:4;stroke-dasharray:none;stroke-dashoffset:0;stroke-opacity:1;marker:none;enable-background:accumulate"
           d="m 652.16269,141.65255 -0.4576,3.19112"
           id="path16076"
           inkscape:original-d="m 660.82458,114.35579 v 3.2254" />
        <path
           inkscape:connector-curvature="0"
           style="display:inline;overflow:visible;visibility:visible;fill:none;stroke:#009fda;stroke-width:0.13353233;stroke-linecap:butt;stroke-linejoin:miter;stroke-miterlimit:4;stroke-dasharray:none;stroke-dashoffset:0;stroke-opacity:1;marker:none;enable-background:accumulate"
           d="m 676.3206,143.43703 -0.009,3.22451"
           id="path16078"
           inkscape:original-d="m 684.57101,114.35579 v 3.2254" />
        <path
           inkscape:connector-curvature="0"
           id="path16080"
           d="m 665.16103,143.03581 -0.22166,3.21495"
           style="display:inline;overflow:visible;visibility:visible;fill:none;stroke:#009fda;stroke-width:0.13353233;stroke-linecap:butt;stroke-linejoin:miter;stroke-miterlimit:4;stroke-dasharray:none;stroke-dashoffset:0;stroke-opacity:1;marker:none;enable-background:accumulate"
           inkscape:original-d="m 673.6289,114.35579 v 3.2254" />
      </g>
      <path
         inkscape:connector-curvature="0"
         style="display:inline;overflow:visible;visibility:visible;fill:none;stroke:#009fda;stroke-width:0.20000002;stroke-linecap:butt;stroke-linejoin:miter;stroke-miterlimit:4;stroke-dasharray:none;stroke-dashoffset:0;stroke-opacity:1;marker:none;enable-background:accumulate"
         d="m -150.48563,-135.24479 -197.5221,64.879941"
         id="path16086"
         sodipodi:nodetypes="cc" />
      <path
         inkscape:connector-curvature="0"
         sodipodi:nodetypes="cc"
         id="path16088"
         d="m -135.46523,-129.5614 -195.6953,65.082911"
         style="display:inline;overflow:visible;visibility:visible;fill:none;stroke:#009fda;stroke-width:0.20000002;stroke-linecap:butt;stroke-linejoin:miter;stroke-miterlimit:4;stroke-dasharray:none;stroke-dashoffset:0;stroke-opacity:1;marker:none;enable-background:accumulate" />
      <path
         inkscape:connector-curvature="0"
         style="display:inline;overflow:visible;visibility:visible;fill:none;stroke:#009fda;stroke-width:0.20000002;stroke-linecap:butt;stroke-linejoin:miter;stroke-miterlimit:4;stroke-dasharray:none;stroke-dashoffset:0;stroke-opacity:1;marker:none;enable-background:accumulate"
         d="m -119.44063,-124.34166 c -62.0689,23.33953 -123.4964,46.977261 -193.7467,65.854231"
         id="path16090"
         sodipodi:nodetypes="cc" />
      <path
         inkscape:connector-curvature="0"
         sodipodi:nodetypes="cc"
         id="path16092"
         d="m -103.13853,-119.273 c -63.8144,25.758961 -125.2507,51.878831 -193.4626,65.570061"
         style="display:inline;overflow:visible;visibility:visible;fill:none;stroke:#009fda;stroke-width:0.20000002;stroke-linecap:butt;stroke-linejoin:miter;stroke-miterlimit:4;stroke-dasharray:none;stroke-dashoffset:0;stroke-opacity:1;marker:none;enable-background:accumulate" />
      <path
         inkscape:connector-curvature="0"
         style="display:inline;overflow:visible;visibility:visible;fill:none;stroke:#009fda;stroke-width:0.20000002;stroke-linecap:butt;stroke-linejoin:miter;stroke-miterlimit:4;stroke-dasharray:none;stroke-dashoffset:0;stroke-opacity:1;marker:none;enable-background:accumulate"
         d="m -49.998831,-91.140229 c -57.017299,26.73494 -99.268199,42.22648 -169.592399,46.24654"
         id="path16094"
         sodipodi:nodetypes="cc" />
      <path
         inkscape:connector-curvature="0"
         sodipodi:nodetypes="cc"
         id="path16096"
         d="m -66.029831,-96.255279 c -52.087899,22.00844 -117.826199,43.47334 -169.882299,50.16112"
         style="display:inline;overflow:visible;visibility:visible;fill:none;stroke:#009fda;stroke-width:0.20000002;stroke-linecap:butt;stroke-linejoin:miter;stroke-miterlimit:4;stroke-dasharray:none;stroke-dashoffset:0;stroke-opacity:1;marker:none;enable-background:accumulate" />
      <path
         inkscape:connector-curvature="0"
         style="display:inline;overflow:visible;visibility:visible;fill:none;stroke:#009fda;stroke-width:0.20000002;stroke-linecap:butt;stroke-linejoin:miter;stroke-miterlimit:4;stroke-dasharray:none;stroke-dashoffset:0;stroke-opacity:1;marker:none;enable-background:accumulate"
         d="m -99.967831,-108.35277 c -60.206899,24.850141 -118.637999,47.532901 -173.332899,57.062371"
         id="path16098"
         sodipodi:nodetypes="cc" />
      <path
         inkscape:connector-curvature="0"
         sodipodi:nodetypes="cc"
         id="path16100"
         d="m -83.729531,-102.4664 c -60.206999,24.850131 -117.395299,47.636451 -176.232599,55.094721"
         style="display:inline;overflow:visible;visibility:visible;fill:none;stroke:#009fda;stroke-width:0.20000002;stroke-linecap:butt;stroke-linejoin:miter;stroke-miterlimit:4;stroke-dasharray:none;stroke-dashoffset:0;stroke-opacity:1;marker:none;enable-background:accumulate" />
      <path
         inkscape:connector-curvature="0"
         sodipodi:nodetypes="ccscccccc"
         id="path16102"
         d="m -239.60523,-50.586589 13.4445,-2.75022 c 1.3794,-0.47655 1.5022,-1.55546 -1.2531,-2.10594 l -9.4819,-1.89434 c -2.4937,-0.58207 -4.0187,-1.06263 -5.5858,-0.3738 l -13.2002,2.77866 c -2.5519,0.7259 -5.4034,1.47599 -3.0316,2.30094 l 11.7368,2.26495 c 2.62,0.88218 4.7955,0.12207 7.3713,-0.22025 z"
         style="fill:#000000;fill-opacity:1;fill-rule:evenodd;stroke:none" />
      <path
         inkscape:connector-curvature="0"
         sodipodi:nodetypes="cc"
         id="path8786"
         d="m -176.52363,-143.39639 -197.7251,63.256091"
         style="display:inline;overflow:visible;visibility:visible;fill:none;stroke:#009fda;stroke-width:0.20000002;stroke-linecap:butt;stroke-linejoin:miter;stroke-miterlimit:4;stroke-dasharray:none;stroke-dashoffset:0;stroke-opacity:1;marker:none;enable-background:accumulate" />
      <g
         transform="translate(1669.1863,-717.32088)"
         id="g8792">
        <path
           inkscape:connector-curvature="0"
           style="display:inline;overflow:visible;visibility:visible;fill:none;stroke:#009fda;stroke-width:0.20000002;stroke-linecap:butt;stroke-linejoin:miter;stroke-miterlimit:4;stroke-dasharray:none;stroke-dashoffset:0;stroke-opacity:1;marker:none;enable-background:accumulate"
           d="m -1859.2363,566.76341 -197.7251,63.2561"
           id="path8794"
           sodipodi:nodetypes="cc" />
        <path
           inkscape:connector-curvature="0"
           sodipodi:nodetypes="cc"
           id="path8796"
           d="m -1845.7099,573.92448 -197.725,63.2561"
           style="display:inline;overflow:visible;visibility:visible;fill:none;stroke:#009fda;stroke-width:0.20000002;stroke-linecap:butt;stroke-linejoin:miter;stroke-miterlimit:4;stroke-dasharray:none;stroke-dashoffset:0;stroke-opacity:1;marker:none;enable-background:accumulate" />
      </g>
      <g
         transform="translate(1675.9495,-713.74034)"
         id="g8818">
        <path
           inkscape:connector-curvature="0"
           sodipodi:nodetypes="cc"
           id="path8800"
           d="m -1897.9293,561.76866 175.5749,63.2561"
           style="display:inline;overflow:visible;visibility:visible;fill:none;stroke:#009fda;stroke-width:0.18846485;stroke-linecap:butt;stroke-linejoin:miter;stroke-miterlimit:4;stroke-dasharray:none;stroke-dashoffset:0;stroke-opacity:1;marker:none;enable-background:accumulate" />
        <path
           inkscape:connector-curvature="0"
           sodipodi:nodetypes="cc"
           id="path8816"
           d="m -1909.2333,569.63684 175.5748,63.2561"
           style="display:inline;overflow:visible;visibility:visible;fill:none;stroke:#009fda;stroke-width:0.18846485;stroke-linecap:butt;stroke-linejoin:miter;stroke-miterlimit:4;stroke-dasharray:none;stroke-dashoffset:0;stroke-opacity:1;marker:none;enable-background:accumulate" />
      </g>
      <path
         inkscape:connector-curvature="0"
         sodipodi:nodetypes="cc"
         id="path8802"
         d="m -227.63173,-148.03759 175.574799,63.256101"
         style="display:inline;overflow:visible;visibility:visible;fill:none;stroke:#009fda;stroke-width:0.18846485;stroke-linecap:butt;stroke-linejoin:miter;stroke-miterlimit:4;stroke-dasharray:none;stroke-dashoffset:0;stroke-opacity:1;marker:none;enable-background:accumulate" />
      <path
         inkscape:connector-curvature="0"
         sodipodi:nodetypes="cc"
         id="path8832"
         d="M -216.30593,-155.88397 -0.11603083,-77.995089"
         style="display:inline;overflow:visible;visibility:visible;fill:none;stroke:#009fda;stroke-width:0.23206167;stroke-linecap:butt;stroke-linejoin:miter;stroke-miterlimit:4;stroke-dasharray:none;stroke-dashoffset:0;stroke-opacity:1;marker:none;enable-background:accumulate" />
      <path
         inkscape:connector-curvature="0"
         sodipodi:nodetypes="cc"
         id="path8834"
         d="m -227.63173,-148.03759 175.574799,63.256101"
         style="display:inline;overflow:visible;visibility:visible;fill:none;stroke:#009fda;stroke-width:0.18846485;stroke-linecap:butt;stroke-linejoin:miter;stroke-miterlimit:4;stroke-dasharray:none;stroke-dashoffset:0;stroke-opacity:1;marker:none;enable-background:accumulate" />
    </g>
    <g
       id="glogo48">
      <path
         inkscape:connector-curvature="0"
         style="fill:url(#radialGradient10055);fill-opacity:1;fill-rule:evenodd;stroke:none"
         d="M 33.497089,77.698474 55.500003,66.372655 32.552468,61.653549 8.499997,66.141412 Z"
         id="path9975"
         sodipodi:nodetypes="ccccc" />
      <path
         inkscape:connector-curvature="0"
         style="display:inline;overflow:visible;visibility:visible;fill:url(#linearGradient10033);fill-opacity:1;fill-rule:nonzero;stroke:#555753;stroke-width:1;stroke-linecap:butt;stroke-linejoin:round;stroke-miterlimit:0.60000002;stroke-dasharray:none;stroke-dashoffset:0;stroke-opacity:1;marker:none;marker-start:none;marker-mid:none;marker-end:none;enable-background:accumulate"
         d="m 33.094894,58.301526 -24.5363014,7.848226 0.2161228,0.09323 c 7.4428866,2.736259 16.6368446,7.807392 24.8710796,5.411547 7.893017,1.913002 15.144812,-2.84325 21.853835,-5.280179 z"
         id="path9977" />
      <path
         inkscape:connector-curvature="0"
         style="fill:#2e3436;fill-opacity:1;fill-rule:evenodd;stroke:none"
         d="m 32.841904,59.994654 c -0.12184,0.0099 -0.248945,0.03981 -0.396857,0.08627 l -1.150306,0.356597 c -0.261128,0.08202 -0.431161,0.220299 -0.115034,0.333588 l 1.403379,0.500387 c 0.256823,0.09818 0.49366,0.06084 0.724687,-0.03451 l 1.322864,-0.437118 c 0.136978,-0.05241 0.37591,-0.157595 -0.08627,-0.322087 L 33.40555,60.075174 c -0.179603,-0.06392 -0.360582,-0.09706 -0.563644,-0.08052 z"
         id="path9979" />
      <path
         inkscape:connector-curvature="0"
         style="fill:#2e3436;fill-opacity:1;fill-rule:evenodd;stroke:none"
         d="m 35.416573,61.943932 c -0.24253,0.08435 -0.464519,0.21146 -0.147572,0.323579 l 1.406738,0.495166 c 0.258174,0.09728 0.468875,0.04477 0.680952,-0.05282 l 1.239646,-0.435744 c 0.126208,-0.05371 0.39817,-0.181268 -0.06509,-0.344035 L 37.382788,61.512597 C 37.203854,61.456531 37.03223,61.3976 36.876301,61.459113 Z"
         id="path9981"
         sodipodi:nodetypes="ccccccccc" />
      <path
         inkscape:connector-curvature="0"
         style="fill:#2e3436;fill-opacity:1;fill-rule:evenodd;stroke:none"
         d="m 40.806459,62.93707 -1.32698,0.492149 c -0.280243,0.08381 -0.497295,0.187699 -0.206938,0.282584 l 1.481281,0.535996 c 0.247505,0.09462 0.356618,0.06816 0.636445,-0.04279 l 1.281463,-0.492631 c 0.222557,-0.0791 0.37326,-0.156641 0.0041,-0.291337 l -1.406118,-0.498857 c -0.183808,-0.06476 -0.261836,-0.05235 -0.463244,0.01488 z"
         id="path9983"
         sodipodi:nodetypes="ccccccccc" />
      <path
         inkscape:connector-curvature="0"
         style="fill:#2e3436;fill-opacity:1;fill-rule:evenodd;stroke:none"
         d="m 13.324644,66.394404 1.652385,0.663048 c 0.342705,0.12667 0.411768,0.136815 0.692984,0.06134 l 1.729973,-0.583832 c 0.204577,-0.05899 0.224867,-0.202502 -0.126625,-0.321452 -0.03213,-0.01087 -1.421548,-0.635217 -1.421548,-0.635217 -0.281746,-0.05846 -0.354282,-0.04939 -0.590057,0.03624 l -1.578652,0.492292 c -0.26936,0.08076 -0.5317,0.182254 -0.35846,0.287583 z"
         id="path9985"
         sodipodi:nodetypes="ccccscccc" />
      <path
         inkscape:connector-curvature="0"
         sodipodi:nodetypes="cccccccccc"
         id="path9987"
         d="m 44.859277,64.393399 -1.303533,0.506573 c -0.274928,0.08626 -0.488558,0.1932 -0.206963,0.290864 l 1.469045,0.531692 c 0.239791,0.09739 0.346733,0.07015 0.621749,-0.04404 l 1.259116,-0.507069 c 0.218566,-0.08142 0.366984,-0.161232 0.0092,-0.299875 l -1.396372,-0.493465 c -0.178164,-0.06666 -0.221167,-0.0739 -0.418888,-0.0047 l -0.03335,0.02002 z"
         style="fill:#2e3436;fill-opacity:1;fill-rule:evenodd;stroke:none" />
      <path
         inkscape:connector-curvature="0"
         style="fill:#2e3436;fill-opacity:1;fill-rule:evenodd;stroke:none"
         d="m 47.856093,66.412011 c -0.274929,0.08626 -0.488558,0.1932 -0.206964,0.290863 l 1.469047,0.531693 c 0.239791,0.09739 0.346719,0.07015 0.621736,-0.04404 l 1.18288,-0.516598 c 0.218554,-0.08142 0.366984,-0.161233 0.0092,-0.299876 L 49.53562,65.880588 c -0.178163,-0.06666 -0.221167,-0.0739 -0.418889,-0.0047 l -1.26063,0.536114 z"
         id="path9989"
         sodipodi:nodetypes="ccccccccc" />
      <path
         inkscape:connector-curvature="0"
         sodipodi:nodetypes="ccccscccc"
         id="path9991"
         d="m 17.680533,68.092636 1.380716,0.504276 c 0.348411,0.126667 0.415972,0.136814 0.670938,0.06133 l 1.603942,-0.54647 c 0.184779,-0.05899 0.179375,-0.202502 -0.176081,-0.321451 -0.0325,-0.01087 -1.258686,-0.476448 -1.258686,-0.476448 -0.278552,-0.05846 -0.346113,-0.04939 -0.556031,0.03624 l -1.372774,0.454934 c -0.242758,0.08076 -0.475264,0.182255 -0.292024,0.287583 z"
         style="fill:#2e3436;fill-opacity:1;fill-rule:evenodd;stroke:none" />
      <path
         inkscape:connector-curvature="0"
         style="fill:#2e3436;fill-opacity:1;fill-rule:evenodd;stroke:none"
         d="m 23.6013,70.219095 c 0.348398,0.09776 0.533493,0.07545 0.773801,-0.0017 l 1.802079,-0.438769 c 0.174162,-0.06017 0.102119,-0.173712 -0.236671,-0.278966 -0.416566,-0.129416 -0.941058,-0.328777 -1.327927,-0.461461 -0.262543,-0.112719 -0.494315,-0.147241 -0.692176,-0.06027 l -1.496659,0.442357 c -0.3222,0.09165 -0.459948,0.238656 -0.160488,0.342815 0.58271,0.193245 0.762818,0.25255 1.338041,0.45595 z"
         id="path9993"
         sodipodi:nodetypes="cccsccccc" />
      <path
         inkscape:connector-curvature="0"
         sodipodi:nodetypes="ccscccccc"
         id="path9995"
         d="m 28.780977,71.241457 1.697487,-0.347239 c 0.174161,-0.06017 0.189665,-0.196391 -0.158215,-0.265894 l -1.197174,-0.239176 c -0.314851,-0.07349 -0.507396,-0.134167 -0.705256,-0.0472 l -1.66664,0.35083 c -0.322201,0.09165 -0.682228,0.186357 -0.382767,0.290514 l 1.481874,0.28597 c 0.330798,0.111383 0.605474,0.01541 0.930691,-0.02781 z"
         style="fill:#2e3436;fill-opacity:1;fill-rule:evenodd;stroke:none" />
      <path
         d="m 33.076172,59.347656 -21.554688,6.892578 c 7.046794,2.792288 14.935616,6.489725 21.861328,4.47461 a 0.98051356,0.98051356 0 0 1 0.503907,-0.01172 c 6.545128,1.586321 12.755913,-1.743725 18.871093,-4.273437 z"
         id="path10025"
         style="display:inline;overflow:visible;visibility:visible;fill:none;fill-opacity:1;fill-rule:nonzero;stroke:#eeeeec;stroke-width:1;stroke-linecap:butt;stroke-linejoin:round;stroke-miterlimit:0.60000002;stroke-dasharray:none;stroke-dashoffset:0;stroke-opacity:0.75294118;marker:none;marker-start:none;marker-mid:none;marker-end:none;enable-background:accumulate"
         inkscape:original="M 33.09375 58.3125 L 8.5625 66.15625 L 8.78125 66.25 C 16.224137 68.98626 25.422015 74.052095 33.65625 71.65625 C 41.549268 73.569255 48.790977 68.811929 55.5 66.375 L 33.09375 58.3125 z "
         inkscape:radius="-0.98041552"
         sodipodi:type="inkscape:offset" />
    </g>
    <g
       id="glogo24">
      <path
         inkscape:connector-curvature="0"
         sodipodi:nodetypes="ccccc"
         id="path8856"
         d="M 108.82643,86.48326 118.49998,78.669124 108.5,75.399647 97.500002,78.478613 Z"
         style="fill:#888a85;fill-opacity:1;fill-rule:evenodd;stroke:#888a85;stroke-linejoin:round" />
      <path
         inkscape:connector-curvature="0"
         id="path8854"
         d="m 108.5,72 -10.9375,6.511188 c 3.33624,2.244016 7.48577,6.480415 11.1875,4.494449 3.52666,1.576044 6.75236,-2.313901 9.75,-4.321585 z"
         style="display:inline;overflow:visible;visibility:visible;fill:url(#linearGradient9862);fill-opacity:1;fill-rule:nonzero;stroke:#2e3436;stroke-width:1;stroke-linecap:butt;stroke-linejoin:round;stroke-miterlimit:4;stroke-dasharray:none;stroke-dashoffset:0;stroke-opacity:1;marker:none;marker-start:none;marker-mid:none;marker-end:none;enable-background:accumulate" />
      <path
         inkscape:connector-curvature="0"
         id="path8858"
         d="m 108.41352,72.751665 c -0.0585,0.0088 -0.11947,0.03523 -0.19045,0.07634 l -0.55202,0.315536 c -0.12531,0.07258 -0.20691,0.194932 -0.0552,0.295177 l 0.67346,0.442768 c 0.12325,0.08688 0.2369,0.05383 0.34777,-0.03054 l 0.63483,-0.386784 c 0.0657,-0.04638 0.18039,-0.139449 -0.0414,-0.285001 L 108.684,72.822916 c -0.0862,-0.05656 -0.17304,-0.08589 -0.27048,-0.07125 z"
         style="fill:#2e3436;fill-opacity:1;fill-rule:evenodd;stroke:none" />
      <path
         inkscape:connector-curvature="0"
         sodipodi:nodetypes="ccccccccc"
         id="path8860"
         d="m 109.64907,74.476494 c -0.11639,0.07463 -0.22292,0.187109 -0.0708,0.286319 l 0.67508,0.438149 c 0.12389,0.08608 0.22501,0.03961 0.32678,-0.04673 l 0.59489,-0.385571 c 0.0606,-0.04752 0.19108,-0.160395 -0.0312,-0.304421 l -0.55114,-0.369413 c -0.0859,-0.04961 -0.16823,-0.101756 -0.24305,-0.04733 l -0.70051,0.428995 z"
         style="fill:#2e3436;fill-opacity:1;fill-rule:evenodd;stroke:none" />
      <path
         inkscape:connector-curvature="0"
         sodipodi:nodetypes="ccccccccc"
         id="path8862"
         d="m 112.23561,75.355274 -0.6368,0.435481 c -0.13449,0.07416 -0.23865,0.166086 -0.0993,0.250045 l 0.71085,0.47428 c 0.11878,0.08373 0.17114,0.06031 0.30542,-0.03786 l 0.61496,-0.435906 c 0.10681,-0.06999 0.17913,-0.138604 0.002,-0.25779 l -0.67478,-0.441417 c -0.0882,-0.0573 -0.12565,-0.04632 -0.22231,0.01317 z"
         style="fill:#2e3436;fill-opacity:1;fill-rule:evenodd;stroke:none" />
      <path
         inkscape:connector-curvature="0"
         sodipodi:nodetypes="ccccscccc"
         id="path8864"
         d="m 98.436876,78.68114 0.79296,0.5867 c 0.16446,0.112083 0.197603,0.121061 0.332555,0.05427 l 0.830189,-0.516604 c 0.0982,-0.0522 0.10792,-0.179186 -0.0608,-0.284438 -0.0154,-0.0096 -0.682185,-0.562076 -0.682185,-0.562076 -0.135207,-0.05173 -0.170016,-0.0437 -0.283162,0.03207 l -0.757576,0.435607 c -0.129263,0.07146 -0.255157,0.161267 -0.172021,0.254469 z"
         style="fill:#2e3436;fill-opacity:1;fill-rule:evenodd;stroke:none" />
      <path
         inkscape:connector-curvature="0"
         style="fill:#2e3436;fill-opacity:1;fill-rule:evenodd;stroke:none"
         d="m 114.18051,76.643913 -0.62555,0.448245 c -0.13193,0.07633 -0.23445,0.170953 -0.0993,0.257372 l 0.70498,0.470468 c 0.11507,0.08618 0.16639,0.06208 0.29837,-0.03897 l 0.60423,-0.448682 c 0.10489,-0.07205 0.17611,-0.142666 0.004,-0.265346 l -0.6701,-0.436645 c -0.0855,-0.05898 -0.10613,-0.06539 -0.20102,-0.0041 l -0.016,0.01771 z"
         id="path8870"
         sodipodi:nodetypes="cccccccccc" />
      <path
         inkscape:connector-curvature="0"
         sodipodi:nodetypes="ccccccccc"
         id="path8872"
         d="m 115.61865,78.430091 c -0.13194,0.07633 -0.23446,0.170953 -0.0993,0.257372 l 0.70498,0.470471 c 0.11507,0.08618 0.16638,0.06208 0.29836,-0.03897 l 0.56765,-0.457115 c 0.10488,-0.07204 0.17611,-0.142668 0.004,-0.265345 l -0.6701,-0.436645 c -0.0855,-0.05898 -0.10614,-0.06539 -0.20102,-0.0041 l -0.60496,0.474383 z"
         style="fill:#2e3436;fill-opacity:1;fill-rule:evenodd;stroke:none" />
      <path
         inkscape:connector-curvature="0"
         style="fill:#2e3436;fill-opacity:1;fill-rule:evenodd;stroke:none"
         d="m 100.52722,80.183826 0.66258,0.446212 c 0.1672,0.112082 0.19962,0.12106 0.32198,0.05427 l 0.76971,-0.483547 c 0.0887,-0.05219 0.0861,-0.179184 -0.0845,-0.284437 -0.0156,-0.0096 -0.60403,-0.421587 -0.60403,-0.421587 -0.13367,-0.05173 -0.16609,-0.0437 -0.26683,0.03207 l -0.65878,0.40255 c -0.11649,0.07146 -0.22807,0.161269 -0.14013,0.254469 z"
         id="path8874"
         sodipodi:nodetypes="ccccscccc" />
      <path
         inkscape:connector-curvature="0"
         sodipodi:nodetypes="cccsccccc"
         id="path8876"
         d="m 103.36852,82.065434 c 0.16719,0.0865 0.25602,0.06676 0.37134,-0.0015 l 0.8648,-0.388247 c 0.0836,-0.05324 0.049,-0.153709 -0.11358,-0.246843 -0.19991,-0.114516 -0.4516,-0.290919 -0.63726,-0.408326 -0.12599,-0.09974 -0.23721,-0.130287 -0.33216,-0.05333 l -0.71823,0.39142 c -0.15462,0.0811 -0.22073,0.211177 -0.077,0.303342 0.27964,0.170993 0.36607,0.22347 0.64211,0.403449 z"
         style="fill:#2e3436;fill-opacity:1;fill-rule:evenodd;stroke:none" />
      <path
         inkscape:connector-curvature="0"
         style="fill:#2e3436;fill-opacity:1;fill-rule:evenodd;stroke:none"
         d="m 105.85419,82.970074 0.8146,-0.307256 c 0.0836,-0.05324 0.091,-0.173776 -0.0759,-0.235277 l -0.57451,-0.211636 c -0.15109,-0.06503 -0.24349,-0.118718 -0.33844,-0.04176 l -0.7998,0.310435 c -0.15462,0.0811 -0.32739,0.164898 -0.18369,0.257062 l 0.71114,0.253041 c 0.15874,0.09856 0.29056,0.01364 0.44663,-0.02461 z"
         id="path8920"
         sodipodi:nodetypes="ccscccccc" />
      <path
         d="m 108.4668,73.216797 -9.013675,5.355469 c 1.354365,1.001113 2.725395,2.099213 4.076175,2.86914 1.78688,1.018504 3.29382,1.423241 4.73437,0.650391 a 1.0296619,1.0296619 0 0 1 0.90625,-0.03125 c 1.36919,0.61188 2.60683,0.200924 4.10352,-0.744141 1.10843,-0.699909 2.27835,-1.678897 3.44726,-2.580078 z"
         id="path9880"
         style="display:inline;overflow:visible;visibility:visible;fill:none;fill-opacity:1;fill-rule:nonzero;stroke:#eeeeec;stroke-width:1;stroke-linecap:butt;stroke-linejoin:miter;stroke-miterlimit:4;stroke-dasharray:none;stroke-dashoffset:0;stroke-opacity:0.31451613;marker:none;marker-start:none;marker-mid:none;marker-end:none;enable-background:accumulate"
         inkscape:original="M 108.5 72 L 97.5625 78.5 C 100.89874 80.744019 105.04827 84.985966 108.75 83 C 112.27666 84.576043 115.50236 80.695184 118.5 78.6875 L 108.5 72 z "
         inkscape:radius="-1.0295589"
         sodipodi:type="inkscape:offset" />
    </g>
  </g>
</svg>
