<?xml version="1.0" encoding="UTF-8" standalone="no"?>
<!-- Created with Inkscape (http://www.inkscape.org/) -->

<svg
   xmlns:dc="http://purl.org/dc/elements/1.1/"
   xmlns:cc="http://creativecommons.org/ns#"
   xmlns:rdf="http://www.w3.org/1999/02/22-rdf-syntax-ns#"
   xmlns:svg="http://www.w3.org/2000/svg"
   xmlns="http://www.w3.org/2000/svg"
   xmlns:xlink="http://www.w3.org/1999/xlink"
   xmlns:sodipodi="http://sodipodi.sourceforge.net/DTD/sodipodi-0.dtd"
   xmlns:inkscape="http://www.inkscape.org/namespaces/inkscape"
   width="150"
   height="100"
   id="icon"
   sodipodi:version="0.32"
   inkscape:version="0.92.4 (5da689c313, 2019-01-14)"
   version="1.0"
   sodipodi:docname="placement.svg"
   inkscape:output_extension="org.inkscape.output.svg.inkscape">
  <title
     id="doctitle">Icon: placement</title>
  <defs
     id="defsz">
    <linearGradient
       id="SphereGlow_green">
      <stop
         offset="0"
         style="stop-color:#ecfbe9;stop-opacity:0.70588237"
         id="stop5572" />
      <stop
         offset="0.75999999"
         style="stop-color:#b1edc6;stop-opacity:0.58823532"
         id="stop5578" />
      <stop
         offset="1"
         style="stop-color:#629889;stop-opacity:0.86274511"
         id="stop5574" />
    </linearGradient>
    <radialGradient
       inkscape:collect="always"
       xlink:href="#SphereGlow_green"
       id="radialGradient900"
       gradientUnits="userSpaceOnUse"
       cx="200"
       cy="227.36218"
       fx="200"
       fy="227.36218"
       r="10.15"
       gradientTransform="matrix(0.6991,0,0,0.6991,-8.1767,-75.2124)" />
    <radialGradient
       inkscape:collect="always"
       xlink:href="#SphereGlow_green"
       id="radialGradient924"
       gradientUnits="userSpaceOnUse"
       cx="200"
       cy="227.36218"
       fx="200"
       fy="227.36218"
       r="10.15"
       gradientTransform="matrix(0.99271412,0,0,0.9924095,-90.979233,-146.1521)" />
    <radialGradient
       inkscape:collect="always"
       xlink:href="#SphereGlow_green"
       id="radialGradient881"
       gradientUnits="userSpaceOnUse"
       cx="200"
       cy="227.36218"
       fx="200"
       fy="227.36218"
       r="10.15"
       gradientTransform="matrix(1.39,0,0,1.39,-202.16115,-240.24904)" />
    <radialGradient
       inkscape:collect="always"
       xlink:href="#SphereGlow_green"
       id="radialGradient866"
       gradientUnits="userSpaceOnUse"
       cx="200"
       cy="227.36218"
       fx="200"
       fy="227.36218"
       r="10.15"
       gradientTransform="matrix(2.134,0,0,2.134,-394.51542,-417.81291)" />
    <filter
       inkscape:collect="always"
       style="color-interpolation-filters:sRGB"
       id="filter852"
       x="-0.0648"
       width="1.1296"
       y="-0.0648"
       height="1.1296">
      <feGaussianBlur
         inkscape:collect="always"
         stdDeviation="0.40770001"
         id="feGaussianBlur854" />
    </filter>
    <filter
       inkscape:collect="always"
       style="color-interpolation-filters:sRGB"
       id="filter867"
       x="-0.072196473"
       width="1.1443929"
       y="-0.071804594"
       height="1.1436092">
      <feGaussianBlur
         inkscape:collect="always"
         stdDeviation="0.62112013"
         id="feGaussianBlur869" />
    </filter>
    <filter
       inkscape:collect="always"
       style="color-interpolation-filters:sRGB"
       id="filter910"
       x="-0.0888"
       width="1.1776"
       y="-0.0888"
       height="1.1776">
      <feGaussianBlur
         inkscape:collect="always"
         stdDeviation="1.0656"
         id="feGaussianBlur912" />
    </filter>
    <filter
       inkscape:collect="always"
       style="color-interpolation-filters:sRGB"
       id="filter883"
       x="-0.0792"
       width="1.1584"
       y="-0.0792"
       height="1.1584">
      <feGaussianBlur
         inkscape:collect="always"
         stdDeviation="1.4495704"
         id="feGaussianBlur885" />
    </filter>
  </defs>
  <sodipodi:namedview
     id="base"
     pagecolor="#ffffff"
     bordercolor="#666666"
     borderopacity="1.0"
     gridtolerance="10000"
     guidetolerance="10"
     objecttolerance="10"
     inkscape:pageopacity="0.0"
     inkscape:pageshadow="2"
     inkscape:zoom="8"
     inkscape:cx="75"
     inkscape:cy="32"
     inkscape:document-units="px"
     inkscape:current-layer="aardvark"
     showgrid="false"
     inkscape:snap-nodes="true"
     inkscape:snap-bbox="true"
     inkscape:snap-global="true"
     showguides="true"
     inkscape:guide-bbox="true"
     inkscape:window-width="1680"
     inkscape:window-height="1030"
     inkscape:window-x="0"
     inkscape:window-y="0"
     inkscape:window-maximized="1">
    <inkscape:grid
       type="xygrid"
       id="grid13478"
       visible="true"
       enabled="true"
       spacingx="0.5"
       spacingy="0.5"
       empspacing="2"
       originx="0"
       originy="0" />
  </sodipodi:namedview>
  <metadata
     id="metadead">
    <rdf:RDF>
      <cc:Work
         rdf:about="">
        <dc:format>image/svg+xml</dc:format>
        <dc:type
           rdf:resource="http://purl.org/dc/dcmitype/StillImage" />
        <dc:title>Icon: placement</dc:title>
        <cc:license
           rdf:resource="http://creativecommons.org/licenses/by-sa/4.0/" />
        <dc:creator>
          <cc:Agent>
            <dc:title>Ichthyostega</dc:title>
          </cc:Agent>
        </dc:creator>
        <dc:publisher>
          <cc:Agent>
            <dc:title>Lumiera.org</dc:title>
          </cc:Agent>
        </dc:publisher>
        <dc:description>Artwork for the »Placement« emblem

prepared for Lumiera build :: Icon rendering</dc:description>
        <dc:date>2022</dc:date>
        <dc:identifier>icon:placement</dc:identifier>
      </cc:Work>
      <cc:License
         rdf:about="http://creativecommons.org/licenses/by-sa/4.0/">
        <cc:permits
           rdf:resource="http://creativecommons.org/ns#Reproduction" />
        <cc:permits
           rdf:resource="http://creativecommons.org/ns#Distribution" />
        <cc:requires
           rdf:resource="http://creativecommons.org/ns#Notice" />
        <cc:requires
           rdf:resource="http://creativecommons.org/ns#Attribution" />
        <cc:permits
           rdf:resource="http://creativecommons.org/ns#DerivativeWorks" />
        <cc:requires
           rdf:resource="http://creativecommons.org/ns#ShareAlike" />
      </cc:License>
    </rdf:RDF>
  </metadata>
  <g
     inkscape:groupmode="layer"
     inkscape:label="artwork:placement"
     id="aardvark"
     style="display:inline">
    <g
       inkscape:groupmode="layer"
       id="layerp"
       inkscape:label="plate#1"
       style="display:none"
       sodipodi:insensitive="true">
      <rect
         id="bbox48"
         x="8"
         y="44"
         width="48"
         height="48"
         style="fill:black;fill-opacity:0.5;stroke:#5a8fb2;stroke-opacity:1;stroke-width:0.1"
         sodipodi:insensitive="true" />
      <rect
         id="bbox32"
         x="60"
         y="60"
         width="32"
         height="32"
         style="fill:black;fill-opacity:0.5;stroke:#5a8fb2;stroke-opacity:1;stroke-width:0.1"
         sodipodi:insensitive="true" />
      <rect
         id="bbox24"
         x="96"
         y="68"
         width="24"
         height="24"
         style="fill:black;fill-opacity:0.5;stroke:#5a8fb2;stroke-opacity:1;stroke-width:0.1"
         sodipodi:insensitive="true" />
      <rect
         id="bbox22"
         x="97"
         y="69"
         width="22"
         height="22"
         style="fill:black;fill-opacity:0.5;stroke:#5a8fb2;stroke-opacity:1;stroke-width:0.1"
         sodipodi:insensitive="true" />
      <rect
         id="bbox16"
         x="124"
         y="76"
         width="16"
         height="16"
         style="fill:black;fill-opacity:0.5;stroke:#5a8fb2;stroke-opacity:1;stroke-width:0.1"
         sodipodi:insensitive="true" />
    </g>
    <g
       id="gplace48">
      <circle
         id="shadow48"
         cx="31.897429"
         cy="68.10257"
         r="21.963188"
         style="fill:#43434b;fill-opacity:0.52747258;stroke:none;stroke-width:0.30000001;filter:url(#filter883)" />
      <circle
         id="disc48"
         cx="31.559999"
         cy="67.599998"
         r="21.299999"
         style="fill:url(#radialGradient866);fill-opacity:1;stroke:#003c23;stroke-opacity:1;stroke-width:0.60000002;stroke-linecap:butt;stroke-linejoin:miter;stroke-miterlimit:4;stroke-dasharray:none;stroke-dashoffset:0;marker:none" />
      <path
         id="symbol48"
         style="fill:#054b3f;fill-opacity:1;stroke:none;stroke-width:1"
         d="M 27.266803,53.550259 23.856,78.36 c -4.612132,-0.519678 -4.141053,-3.328569 -2.923051,-6.675 l -2.61,-0.885 c -2.365476,5.736575 -1.717118,10.814277 6.12087,11.4378 h 0.528258 C 33.017092,82.059472 35.833224,77.431225 36.077051,71.629345 L 33.240612,72 c -0.403288,3.290065 -1.701037,5.882291 -5.788982,6.4 l 1.864421,-11.51 h 4.1347 c 3.191229,2.1e-5 5.624116,-0.627086 7.304358,-1.995131 1.680198,-1.368022 2.450167,-3.305295 2.301497,-5.761847 -0.110486,-1.827351 -0.779332,-3.186363 -2.030708,-4.134981 -1.251418,-0.948636 -3.00366,-1.448258 -5.279882,-1.448301 h -7.865323 z m 3.803,2.532923 h 4.270071 c 1.260847,2.1e-5 2.251487,0.234277 2.978407,0.813424 0.737969,0.57923 1.154944,1.391856 1.218403,2.440333 0.09924,1.637643 -0.380433,2.91732 -1.353798,3.796028 -0.973408,0.878774 -2.412956,1.355742 -4.332204,1.355742 h -4.134699 z"
         sodipodi:nodetypes="cccccccccccssscccccsssccc"
         inkscape:connector-curvature="0" />
    </g>
    <g
       id="gplace32">
      <circle
         id="shadow32"
         cx="76.187927"
         cy="75.942558"
         r="14.4"
         style="fill:#43434b;fill-opacity:0.52747258;stroke:none;stroke-width:0.30000001;filter:url(#filter910)" />
      <circle
         id="disc32"
         cx="75.921059"
         cy="75.497215"
         r="13.9"
         style="fill:url(#radialGradient881);fill-opacity:1;stroke:#003c23;stroke-opacity:1;stroke-width:0.5;stroke-linecap:butt;stroke-linejoin:miter;stroke-miterlimit:4;stroke-dasharray:none;stroke-dashoffset:0;marker:none" />
      <path
         id="symbol32"
         style="fill:#054b3f;fill-opacity:1;stroke:none;stroke-width:1"
         d="m 73.4,66.047489 -2.281994,16.42609 C 68.06037,82.130321 68.192778,80.210378 69,78 l -1.77,-0.7 c -1.508775,3.946246 -1.053593,7.284278 4.140972,7.696127 h 0.3501 c 5.331769,-0.117788 7.198136,-3.174829 7.359732,-7.007076 l -1.879828,0.244825 C 76.9337,80.407023 76.209251,82.158042 73.5,82.5 l 1.276782,-7.759222 h 2.740239 c 2.173888,1.3e-5 3.742344,-0.396018 4.840905,-1.31782 1.052486,-0.88314 1.604102,-2.065352 1.505657,-3.687953 -0.07226,-1.190991 -0.572903,-2.147268 -1.345836,-2.731229 -0.829363,-0.626596 -1.990652,-0.9566 -3.499199,-0.956629 h -5.21268 z m 2.559693,1.673043 h 2.829954 c 0.835617,1.3e-5 1.542947,0.121385 2.013199,0.497996 0.614219,0.491909 0.785071,1.037197 0.827128,1.729736 0.06577,1.081692 -0.361626,1.84819 -0.936501,2.330568 -0.664782,0.557818 -1.638452,0.875848 -2.910417,0.875848 h -2.740239 z"
         sodipodi:nodetypes="cccccccccccssscccccsssccc"
         inkscape:connector-curvature="0" />
    </g>
    <g
       id="gplace24">
      <circle
         id="shadow24"
         cx="107.92383"
         cy="79.922096"
         r="10.34"
         style="fill:#43434b;fill-opacity:0.52747258;stroke:none;stroke-width:0.30000001;filter:url(#filter867)" />
      <circle
         id="disc24"
         cx="107.564"
         cy="79.484299"
         r="9.9239998"
         style="fill:url(#radialGradient924);fill-opacity:1;stroke:#003c23;stroke-opacity:1;stroke-width:0.29999998;stroke-linecap:butt;stroke-linejoin:miter;stroke-miterlimit:4;stroke-dasharray:none;stroke-dashoffset:0;marker:none" />
      <path
         id="symbol24"
         style="fill:#054b3f;fill-opacity:1;stroke:none;stroke-width:1"
         d="m 105.50537,72.932933 -1.58705,11.414674 c -1.93576,-0.311348 -1.86285,-1.563253 -1.34622,-3.122447 l -1.22096,-0.125084 c -1.09403,2.646548 -0.83875,4.809842 2.78631,5.097502 l 0.24432,-0.002 c 3.72081,-0.08227 5.08119,-2.25666 5.19396,-4.933337 l -1.31185,0.156771 c -0.18652,1.51786 -0.78923,2.717803 -2.6799,2.956646 l 0.85942,-5.282149 h 1.89694 c 1.47594,1e-5 2.60402,-0.307052 3.38113,-0.938195 0.77709,-0.631132 1.1332,-1.524886 1.06444,-2.658208 -0.0511,-0.843042 -0.36044,-1.470017 -0.9392,-1.907659 -0.57878,-0.437663 -1.38919,-0.656717 -2.44194,-0.656737 h -3.6316 z m 1.75201,1.15711 h 1.95955 c 0.58314,1e-5 1.04131,0.108083 1.37751,0.37527 0.34131,0.267226 0.53416,0.642128 0.56351,1.125839 0.0459,0.755521 -0.17595,1.345896 -0.62613,1.751285 -0.4502,0.405419 -1.11599,0.625466 -2.00364,0.625466 h -1.89694 z"
         sodipodi:nodetypes="cccccccccccssscccccsssccc"
         inkscape:connector-curvature="0" />
    </g>
    <g
       id="gplace16">
      <circle
         id="shadow16"
         cx="131.90001"
         cy="83.952499"
         r="7.5500002"
         style="fill:#43434b;fill-opacity:0.52747258;stroke:none;stroke-width:0.30000001;filter:url(#filter852)" />
      <circle
         id="disc16"
         cx="131.64999"
         cy="83.695"
         r="7"
         style="fill:url(#radialGradient900);fill-opacity:1;stroke:#003c23;stroke-opacity:1;stroke-width:0.34999999;stroke-linecap:butt;stroke-linejoin:miter;stroke-miterlimit:4;stroke-dasharray:none;stroke-dashoffset:0;marker:none" />
      <path
         id="symbol16"
         style="fill:#054b3f;fill-opacity:1;stroke:none;stroke-width:1"
         d="m 130.38401,79.003475 -1.13693,8.339858 c -1.53738,-0.173226 -1.38035,-1.230356 -0.97435,-2.345833 l -0.87,-0.295 c -0.7885,1.912192 -0.57238,3.669659 2.04029,3.8775 H 129.65 c 2.94785,-0.116478 3.76872,-1.64604 3.85,-3.58 l -1,0.15339 c -0.25217,1.430122 -0.79823,2.051751 -2.1,2.21661 L 131,83.5 h 1.44533 c 1.06374,7e-6 1.8747,-0.258973 2.43478,-0.714988 0.56007,-0.456008 0.81672,-1.101765 0.76717,-1.920616 -0.0368,-0.609117 -0.25978,-1.062121 -0.6769,-1.378327 -0.41714,-0.316212 -1.00122,-0.482753 -1.75997,-0.482767 h -2.62177 z m 1.22241,0.844308 h 1.46861 c 0.42029,7e-6 0.77294,0.08161 1.01525,0.274657 0.24599,0.193077 0.38498,0.463953 0.40613,0.813444 0.0331,0.545881 -0.14836,1.028773 -0.47282,1.321676 -0.32446,0.292925 -0.82675,0.448397 -1.4665,0.448397 h -1.42351 z"
         sodipodi:nodetypes="cccccccccccssscccccsssccc"
         inkscape:connector-curvature="0" />
    </g>
  </g>
</svg>
