<?xml version="1.0" encoding="UTF-8" standalone="no"?>
<!-- Created with Inkscape (http://www.inkscape.org/) -->

<svg
   xmlns:dc="http://purl.org/dc/elements/1.1/"
   xmlns:cc="http://creativecommons.org/ns#"
   xmlns:rdf="http://www.w3.org/1999/02/22-rdf-syntax-ns#"
   xmlns:svg="http://www.w3.org/2000/svg"
   xmlns="http://www.w3.org/2000/svg"
   xmlns:xlink="http://www.w3.org/1999/xlink"
   xmlns:sodipodi="http://sodipodi.sourceforge.net/DTD/sodipodi-0.dtd"
   xmlns:inkscape="http://www.inkscape.org/namespaces/inkscape"
   width="150"
   height="100"
   id="icon"
   sodipodi:version="0.32"
   inkscape:version="0.92.4 (5da689c313, 2019-01-14)"
   version="1.0"
   sodipodi:docname="tool-i-beam.svg"
   inkscape:output_extension="org.inkscape.output.svg.inkscape">
  <title
     id="doctitle">Icon: tool-i-beam</title>
  <defs
     id="defsz">
    <linearGradient
       inkscape:collect="always"
       id="linearGradient8773">
      <stop
         style="stop-color:black;stop-opacity:0.3137255"
         offset="0"
         id="stop8775" />
      <stop
         style="stop-color:black;stop-opacity:0;"
         offset="1"
         id="stop8777" />
    </linearGradient>
    <radialGradient
       inkscape:collect="always"
       xlink:href="#linearGradient8773"
       id="radialGradient14479"
       gradientUnits="userSpaceOnUse"
       gradientTransform="matrix(1,0,0,0.234973,0,18.5877)"
       cx="-57.850174"
       cy="24.296782"
       fx="-58.028885"
       fy="27.01318"
       r="8.087534" />
    <radialGradient
       inkscape:collect="always"
       xlink:href="#linearGradient8773"
       id="radialGradient8778"
       gradientUnits="userSpaceOnUse"
       gradientTransform="matrix(1,0,0,0.234973,0,18.5877)"
       cx="-57.850174"
       cy="24.296782"
       fx="-58.028885"
       fy="27.01318"
       r="8.087534" />
    <radialGradient
       inkscape:collect="always"
       xlink:href="#linearGradient8773"
       id="radialGradient8788"
       gradientUnits="userSpaceOnUse"
       gradientTransform="matrix(1,0,0,0.234973,0,18.5877)"
       cx="-57.850174"
       cy="24.296782"
       fx="-58.028885"
       fy="27.01318"
       r="8.087534" />
  </defs>
  <sodipodi:namedview
     id="base"
     pagecolor="#ffffff"
     bordercolor="#666666"
     borderopacity="1.0"
     gridtolerance="10000"
     guidetolerance="10"
     objecttolerance="10"
     inkscape:pageopacity="0.0"
     inkscape:pageshadow="2"
     inkscape:zoom="8"
     inkscape:cx="75"
     inkscape:cy="50"
     inkscape:document-units="px"
     inkscape:current-layer="artwork"
     showgrid="false"
     inkscape:snap-nodes="false"
     inkscape:snap-bbox="true"
     inkscape:snap-global="true"
     showguides="true"
     inkscape:guide-bbox="true"
     inkscape:window-width="1680"
     inkscape:window-height="977"
     inkscape:window-x="0"
     inkscape:window-y="24"
     inkscape:window-maximized="0">
    <inkscape:grid
       type="xygrid"
       id="grid13478"
       visible="true"
       enabled="true"
       spacingx="0.5"
       spacingy="0.5"
       empspacing="2"
       originx="0"
       originy="0" />
  </sodipodi:namedview>
  <metadata
     id="metadead">
    <rdf:RDF>
      <cc:Work
         rdf:about="">
        <dc:format>image/svg+xml</dc:format>
        <dc:type
           rdf:resource="http://purl.org/dc/dcmitype/StillImage" />
        <dc:title>Icon: tool-i-beam</dc:title>
        <cc:license
           rdf:resource="http://creativecommons.org/licenses/by-sa/4.0/" />
        <dc:creator>
          <cc:Agent>
            <dc:title>Joel Holdsworth</dc:title>
          </cc:Agent>
        </dc:creator>
        <dc:publisher>
          <cc:Agent>
            <dc:title>Lumiera.org</dc:title>
          </cc:Agent>
        </dc:publisher>
        <dc:description>prepared for Lumiera build :: Icon rendering</dc:description>
        <dc:date>2008</dc:date>
        <dc:identifier>icon:tool-i-beam</dc:identifier>
      </cc:Work>
      <cc:License
         rdf:about="http://creativecommons.org/licenses/by-sa/4.0/">
        <cc:permits
           rdf:resource="http://creativecommons.org/ns#Reproduction" />
        <cc:permits
           rdf:resource="http://creativecommons.org/ns#Distribution" />
        <cc:requires
           rdf:resource="http://creativecommons.org/ns#Notice" />
        <cc:requires
           rdf:resource="http://creativecommons.org/ns#Attribution" />
        <cc:permits
           rdf:resource="http://creativecommons.org/ns#DerivativeWorks" />
        <cc:requires
           rdf:resource="http://creativecommons.org/ns#ShareAlike" />
      </cc:License>
    </rdf:RDF>
  </metadata>
  <g
     inkscape:groupmode="layer"
     id="artwork"
     inkscape:label="artwork:tool-i-beam"
     style="display:inline">
    <g
       inkscape:groupmode="layer"
       id="layerp"
       inkscape:label="plate#1"
       style="display:none"
       sodipodi:insensitive="true">
      <rect
         id="bbox48"
         x="8"
         y="44"
         width="48"
         height="48"
         style="fill:black;fill-opacity:0.5;stroke:#5a8fb2;stroke-opacity:1;stroke-width:0.1"
         sodipodi:insensitive="true" />
      <rect
         id="bbox32"
         x="60"
         y="60"
         width="32"
         height="32"
         style="fill:black;fill-opacity:0.5;stroke:#5a8fb2;stroke-opacity:1;stroke-width:0.1"
         sodipodi:insensitive="true" />
      <rect
         id="bbox24"
         x="96"
         y="68"
         width="24"
         height="24"
         style="fill:black;fill-opacity:0.5;stroke:#5a8fb2;stroke-opacity:1;stroke-width:0.1"
         sodipodi:insensitive="true" />
      <rect
         id="bbox22"
         x="97"
         y="69"
         width="22"
         height="22"
         style="fill:black;fill-opacity:0.5;stroke:#5a8fb2;stroke-opacity:1;stroke-width:0.1"
         sodipodi:insensitive="true" />
      <rect
         id="bbox16"
         x="124"
         y="76"
         width="16"
         height="16"
         style="fill:black;fill-opacity:0.5;stroke:#5a8fb2;stroke-opacity:1;stroke-width:0.1"
         sodipodi:insensitive="true" />
    </g>
    <g
       id="gicon48">
      <ellipse
         id="shadow48"
         ry="1.9003495"
         rx="8.087534"
         cy="24.296782"
         cx="-57.850174"
         style="display:inline;opacity:0.7;fill:url(#radialGradient8788);fill-opacity:1;stroke:none;stroke-width:1;stroke-linecap:round;stroke-linejoin:miter;stroke-miterlimit:4;stroke-dasharray:none;stroke-opacity:1"
         transform="matrix(1.97835,0,0,2.6311,145.94789,21.072816)" />
      <path
         inkscape:connector-curvature="0"
         style="fill:#eeeeec;fill-rule:evenodd;stroke:#555753;stroke-width:1;stroke-linecap:round;stroke-linejoin:round;stroke-miterlimit:4;stroke-dasharray:none;stroke-opacity:1"
         d="m 25.5,50.509196 c -1,0 -2,1 -2,1.989516 0,1.010484 1,2.010484 2,2.010484 h 2 c 1,0 2,1 2,2 v 21.989516 c 0,1 -1,2 -2,2 h -2 c -1,0 -2,1 -2,2 0,1.017752 1,2 2,2 h 4 c 1.04304,0.04305 2,-1 2,-2 0,1 1,2 2,2 l 4,-0.01903 c 0.99998,-0.0048 2,-1 2,-1.98097 0,-1.01903 -1.00004,-2.028544 -2,-2.01903 l -2,0.01903 c -1,0 -2,-1 -2,-2 V 56.509196 c 0,-1 1,-2 2,-2 l 2,-0.01048 c 0.99998,-0.0052 2,-1 2,-1.96875 0,-1.03125 -1,-2.03387 -2,-2.03125 l -4,0.01048 c -1,0 -2,1 -2,2 0,-1 -1,-2 -2,-2 z"
         id="path8786"
         sodipodi:nodetypes="cssccccssscccsssccccssscccs" />
    </g>
    <g
       id="gicon32">
      <ellipse
         id="shadow32"
         ry="1.9003495"
         rx="8.087534"
         cy="24.296782"
         cx="-57.850174"
         transform="matrix(1.3189,0,0,1.7540667,152.29859,44.715211)"
         style="display:inline;opacity:0.7;fill:url(#radialGradient8778);fill-opacity:1;stroke:none;stroke-width:1;stroke-linecap:round;stroke-linejoin:miter;stroke-miterlimit:4;stroke-dasharray:none;stroke-opacity:1" />
      <path
         id="path8765"
         style="fill:#eeeeec;fill-rule:evenodd;stroke:#555753;stroke-width:1;stroke-linecap:round;stroke-linejoin:round;stroke-miterlimit:4;stroke-dasharray:none;stroke-opacity:1"
         d="M 71.5,64.5 C 71,64.498835 70,65 70,66 c 0,1 1,1.5 1.5,1.5 h 2 c 0.5,0 1,0.5 1,1.006989 V 83.166666 C 74.5,83.833333 73.83333,84.5 73.16667,84.5 H 71.5 C 71,84.5 70,85 70,86 c 0,1 1,1.5 1.5,1.5 h 3 c 1,0 1.5,-1 1.5,-1.5 0,0.5 0.5,1.5 1.5,1.5 h 3 C 81,87.5 82,87 82,86 82,85 81,84.5 80.5,84.5 h -2 c -0.66667,0 -1,-0.673656 -1,-1.340323 V 68.5 c 0,-0.5 0.5,-1 1,-1 h 2 C 81,67.5 82,67 82,66 82,65 81,64.5 80.5,64.5 h -3 c -1,0 -1.5,1 -1.5,1.5 0,-0.5 -0.5,-1.5 -1.5,-1.493011 z"
         sodipodi:nodetypes="cssccccssscccsssccccssscccs"
         inkscape:connector-curvature="0" />
    </g>
    <g
       id="gicon24">
      <ellipse
         id="shadow24"
         ry="1.9003495"
         rx="8.087534"
         cy="24.296782"
         cx="-57.850174"
         style="display:inline;opacity:0.7;fill:url(#radialGradient14479);fill-opacity:1;stroke:none;stroke-width:1;stroke-linecap:round;stroke-linejoin:miter;stroke-miterlimit:4;stroke-dasharray:none;stroke-opacity:1"
         transform="matrix(0.989175,0,0,1.31555,164.72395,56.536408)" />
      <path
         id="path7969"
         d="m 104.5,71.505242 c -0.5,0 -1,0.5 -1,0.994758 0,0.505242 0.5,1.005242 1,1.005242 h 1 c 0.5,0 1,0.5 1,1 V 85.5 c 0,0.5 -0.5,1 -1,1 h -1 c -0.5,0 -1,0.5 -1,1 0,0.508876 0.5,1 1,1 h 2 c 0.52152,0.02152 1,-0.5 1,-1 0,0.5 0.5,1 1,1 l 2,-0.0095 c 0.49999,-0.0024 1,-0.5 1,-0.990485 0,-0.509515 -0.50002,-1.014272 -1,-1.009515 l -1,0.0095 c -0.5,0 -1,-0.5 -1,-1 V 74.505242 c 0,-0.5 0.5,-1 1,-1 l 1,-0.0052 c 0.49999,-0.0026 1,-0.5 1,-0.984375 C 111.5,72 111,71.49869 110.5,71.5 l -2,0.0052 c -0.5,0 -1,0.5 -1,1 0,-0.5 -0.5,-1 -1,-1 z"
         style="fill:#eeeeec;fill-rule:evenodd;stroke:#555753;stroke-width:1px;stroke-linecap:round;stroke-linejoin:round;stroke-opacity:1"
         sodipodi:nodetypes="cssccccssscccsssccccssscccs"
         inkscape:connector-curvature="0" />
    </g>
    <g
       id="gicon16">
      <path
         style="fill:#eeeeec;fill-rule:evenodd;stroke:#555753;stroke-width:1;stroke-linecap:round;stroke-linejoin:round;stroke-miterlimit:4;stroke-dasharray:none;stroke-opacity:1"
         d="m 129.5,77.5 c -0.50963,0 -1,0.5 -1,1 0,0.5 0.5,1 1,1 v 0 c 0.5,0 1,0.5 1,1 v 7 c 0,0.5 -0.5,1 -1,1 v 0 c -0.5,0 -1,0.5 -1,1 0,0.5 0.5,1 1,1 h 1 c 0.5,0 1,-0.5 1,-1 0,0.5 0.5,1 1,1 h 1 c 0.5,0 1,-0.5 1,-1 0,-0.5 -0.5,-1 -1,-1 v 0 c -0.5,0 -1,-0.5 -1,-1 v -7 c 0,-0.5 0.5,-1 1,-1 v 0 c 0.5,0 1,-0.5 1,-1 0,-0.5 -0.5,-1 -1,-1 h -1 c -0.5,0 -1,0.5 -1,1 0,-0.5 -0.5,-1 -1,-1 z"
         id="path7977"
         sodipodi:nodetypes="cssccccssscccsssccccssscccs"
         inkscape:connector-curvature="0" />
    </g>
  </g>
</svg>
