<?xml version="1.0" encoding="UTF-8" standalone="no"?>
<!DOCTYPE svg PUBLIC "-//W3C//DTD SVG 1.1//EN"
 "http://www.w3.org/Graphics/SVG/1.1/DTD/svg11.dtd">
<!-- Generated by graphviz version 2.40.1 (20161225.0304)
 -->
<!-- Title: %3 Pages: 1 -->
<svg width="604pt" height="720pt"
 viewBox="0.00 0.00 604.34 720.00" xmlns="http://www.w3.org/2000/svg" xmlns:xlink="http://www.w3.org/1999/xlink">
<g id="graph0" class="graph" transform="scale(.2436 .2436) rotate(0) translate(4 2952.0655)">
<title>%3</title>
<polygon fill="#ffffff" stroke="transparent" points="-4,4 -4,-2952.0655 2477.196,-2952.0655 2477.196,4 -4,4"/>
<!-- N0 -->
<g id="node1" class="node">
<title>N0</title>
<ellipse fill="none" stroke="#000000" cx="40.7696" cy="-2907.296" rx="36.5629" ry="36.5629"/>
<ellipse fill="none" stroke="#000000" cx="40.7696" cy="-2907.296" rx="40.5404" ry="40.5404"/>
<text text-anchor="middle" x="40.7696" y="-2903.496" font-family="Times,serif" font-size="16.00" fill="#000000">0: 3C</text>
</g>
<!-- N2 -->
<g id="node3" class="node">
<title>N2</title>
<ellipse fill="none" stroke="#000000" cx="40.7696" cy="-2793.7569" rx="35.2113" ry="18.2703"/>
<text text-anchor="middle" x="40.7696" y="-2789.9569" font-family="Times,serif" font-size="16.00" fill="#000000">2: 96</text>
</g>
<!-- N0&#45;&gt;N2 -->
<g id="edge1" class="edge">
<title>N0&#45;&gt;N2</title>
<path fill="none" stroke="#000000" d="M40.7696,-2866.3057C40.7696,-2851.6705 40.7696,-2835.5154 40.7696,-2822.1721"/>
<polygon fill="#000000" stroke="#000000" points="44.2697,-2822.1566 40.7696,-2812.1567 37.2697,-2822.1567 44.2697,-2822.1566"/>
</g>
<!-- N1 -->
<g id="node2" class="node">
<title>N1</title>
<ellipse fill="none" stroke="#000000" cx="130.7696" cy="-2793.7569" rx="36.5405" ry="36.5405"/>
<text text-anchor="middle" x="130.7696" y="-2789.9569" font-family="Times,serif" font-size="16.00" fill="#000000">1: 3C</text>
</g>
<!-- N4 -->
<g id="node5" class="node">
<title>N4</title>
<ellipse fill="none" stroke="#000000" cx="130.7696" cy="-2684.2177" rx="35.2113" ry="18.2703"/>
<text text-anchor="middle" x="130.7696" y="-2680.4177" font-family="Times,serif" font-size="16.00" fill="#000000">4: 96</text>
</g>
<!-- N1&#45;&gt;N4 -->
<g id="edge2" class="edge">
<title>N1&#45;&gt;N4</title>
<path fill="none" stroke="#000000" d="M130.7696,-2756.9772C130.7696,-2742.5587 130.7696,-2726.269 130.7696,-2712.7637"/>
<polygon fill="#000000" stroke="#000000" points="134.2697,-2712.6187 130.7696,-2702.6187 127.2697,-2712.6187 134.2697,-2712.6187"/>
</g>
<!-- N5 -->
<g id="node6" class="node">
<title>N5</title>
<ellipse fill="none" stroke="#000000" cx="40.7696" cy="-2684.2177" rx="35.2113" ry="18.2703"/>
<text text-anchor="middle" x="40.7696" y="-2680.4177" font-family="Times,serif" font-size="16.00" fill="#000000">5: 0F</text>
</g>
<!-- N2&#45;&gt;N5 -->
<g id="edge3" class="edge">
<title>N2&#45;&gt;N5</title>
<path fill="none" stroke="#000000" d="M40.7696,-2775.175C40.7696,-2758.1795 40.7696,-2732.769 40.7696,-2713.1224"/>
<polygon fill="#000000" stroke="#000000" points="44.2697,-2712.8907 40.7696,-2702.8907 37.2697,-2712.8908 44.2697,-2712.8907"/>
</g>
<!-- N3 -->
<g id="node4" class="node">
<title>N3</title>
<ellipse fill="none" stroke="#000000" cx="220.7696" cy="-2684.2177" rx="36.5405" ry="36.5405"/>
<text text-anchor="middle" x="220.7696" y="-2680.4177" font-family="Times,serif" font-size="16.00" fill="#000000">3: 3C</text>
</g>
<!-- N7 -->
<g id="node8" class="node">
<title>N7</title>
<ellipse fill="none" stroke="#000000" cx="220.7696" cy="-2574.6786" rx="35.2113" ry="18.2703"/>
<text text-anchor="middle" x="220.7696" y="-2570.8786" font-family="Times,serif" font-size="16.00" fill="#000000">7: 96</text>
</g>
<!-- N3&#45;&gt;N7 -->
<g id="edge4" class="edge">
<title>N3&#45;&gt;N7</title>
<path fill="none" stroke="#000000" d="M220.7696,-2647.4381C220.7696,-2633.0196 220.7696,-2616.7299 220.7696,-2603.2246"/>
<polygon fill="#000000" stroke="#000000" points="224.2697,-2603.0796 220.7696,-2593.0796 217.2697,-2603.0796 224.2697,-2603.0796"/>
</g>
<!-- N8 -->
<g id="node9" class="node">
<title>N8</title>
<ellipse fill="none" stroke="#000000" cx="130.7696" cy="-2574.6786" rx="35.2113" ry="18.2703"/>
<text text-anchor="middle" x="130.7696" y="-2570.8786" font-family="Times,serif" font-size="16.00" fill="#000000">8: 0F</text>
</g>
<!-- N4&#45;&gt;N8 -->
<g id="edge5" class="edge">
<title>N4&#45;&gt;N8</title>
<path fill="none" stroke="#000000" d="M130.7696,-2665.6359C130.7696,-2648.6404 130.7696,-2623.2299 130.7696,-2603.5833"/>
<polygon fill="#000000" stroke="#000000" points="134.2697,-2603.3516 130.7696,-2593.3516 127.2697,-2603.3516 134.2697,-2603.3516"/>
</g>
<!-- N9 -->
<g id="node10" class="node">
<title>N9</title>
<path fill="none" stroke="#000000" d="M55.7696,-2592.6786C55.7696,-2592.6786 25.7696,-2592.6786 25.7696,-2592.6786 19.7696,-2592.6786 13.7696,-2586.6786 13.7696,-2580.6786 13.7696,-2580.6786 13.7696,-2568.6786 13.7696,-2568.6786 13.7696,-2562.6786 19.7696,-2556.6786 25.7696,-2556.6786 25.7696,-2556.6786 55.7696,-2556.6786 55.7696,-2556.6786 61.7696,-2556.6786 67.7696,-2562.6786 67.7696,-2568.6786 67.7696,-2568.6786 67.7696,-2580.6786 67.7696,-2580.6786 67.7696,-2586.6786 61.7696,-2592.6786 55.7696,-2592.6786"/>
<text text-anchor="middle" x="40.7696" y="-2570.8786" font-family="Times,serif" font-size="16.00" fill="#000000">9: 48</text>
</g>
<!-- N5&#45;&gt;N9 -->
<g id="edge6" class="edge">
<title>N5&#45;&gt;N9</title>
<path fill="none" stroke="#000000" d="M40.7696,-2665.6359C40.7696,-2648.5374 40.7696,-2622.9216 40.7696,-2603.2268"/>
<polygon fill="#000000" stroke="#000000" points="44.2697,-2602.986 40.7696,-2592.986 37.2697,-2602.9861 44.2697,-2602.986"/>
</g>
<!-- N6 -->
<g id="node7" class="node">
<title>N6</title>
<ellipse fill="none" stroke="#000000" cx="321.7696" cy="-2574.6786" rx="36.5405" ry="36.5405"/>
<text text-anchor="middle" x="321.7696" y="-2570.8786" font-family="Times,serif" font-size="16.00" fill="#000000">6: 3C</text>
</g>
<!-- N11 -->
<g id="node12" class="node">
<title>N11</title>
<ellipse fill="none" stroke="#000000" cx="321.7696" cy="-2459.4827" rx="41.0244" ry="18.2703"/>
<text text-anchor="middle" x="321.7696" y="-2455.6827" font-family="Times,serif" font-size="16.00" fill="#000000">11: 96</text>
</g>
<!-- N6&#45;&gt;N11 -->
<g id="edge7" class="edge">
<title>N6&#45;&gt;N11</title>
<path fill="none" stroke="#000000" d="M321.7696,-2537.5958C321.7696,-2521.6121 321.7696,-2503.2039 321.7696,-2488.2735"/>
<polygon fill="#000000" stroke="#000000" points="325.2697,-2488.1009 321.7696,-2478.1009 318.2697,-2488.1009 325.2697,-2488.1009"/>
</g>
<!-- N12 -->
<g id="node13" class="node">
<title>N12</title>
<ellipse fill="none" stroke="#000000" cx="220.7696" cy="-2459.4827" rx="41.9398" ry="18.2703"/>
<text text-anchor="middle" x="220.7696" y="-2455.6827" font-family="Times,serif" font-size="16.00" fill="#000000">12: 0F</text>
</g>
<!-- N7&#45;&gt;N12 -->
<g id="edge8" class="edge">
<title>N7&#45;&gt;N12</title>
<path fill="none" stroke="#000000" d="M220.7696,-2556.1704C220.7696,-2537.7806 220.7696,-2509.3247 220.7696,-2488.0374"/>
<polygon fill="#000000" stroke="#000000" points="224.2697,-2487.9449 220.7696,-2477.945 217.2697,-2487.945 224.2697,-2487.9449"/>
</g>
<!-- N13 -->
<g id="node14" class="node">
<title>N13</title>
<path fill="none" stroke="#000000" d="M147.7696,-2477.4827C147.7696,-2477.4827 113.7696,-2477.4827 113.7696,-2477.4827 107.7696,-2477.4827 101.7696,-2471.4827 101.7696,-2465.4827 101.7696,-2465.4827 101.7696,-2453.4827 101.7696,-2453.4827 101.7696,-2447.4827 107.7696,-2441.4827 113.7696,-2441.4827 113.7696,-2441.4827 147.7696,-2441.4827 147.7696,-2441.4827 153.7696,-2441.4827 159.7696,-2447.4827 159.7696,-2453.4827 159.7696,-2453.4827 159.7696,-2465.4827 159.7696,-2465.4827 159.7696,-2471.4827 153.7696,-2477.4827 147.7696,-2477.4827"/>
<text text-anchor="middle" x="130.7696" y="-2455.6827" font-family="Times,serif" font-size="16.00" fill="#000000">13: 48</text>
</g>
<!-- N8&#45;&gt;N13 -->
<g id="edge9" class="edge">
<title>N8&#45;&gt;N13</title>
<path fill="none" stroke="#000000" d="M130.7696,-2556.1704C130.7696,-2537.6717 130.7696,-2508.9876 130.7696,-2487.6603"/>
<polygon fill="#000000" stroke="#000000" points="134.2697,-2487.5651 130.7696,-2477.5652 127.2697,-2487.5652 134.2697,-2487.5651"/>
</g>
<!-- N10 -->
<g id="node11" class="node">
<title>N10</title>
<ellipse fill="none" stroke="#000000" cx="422.7696" cy="-2459.4827" rx="42.3529" ry="42.3529"/>
<text text-anchor="middle" x="422.7696" y="-2455.6827" font-family="Times,serif" font-size="16.00" fill="#000000">10: 3C</text>
</g>
<!-- N15 -->
<g id="node16" class="node">
<title>N15</title>
<ellipse fill="none" stroke="#000000" cx="422.7696" cy="-2338.6299" rx="41.0244" ry="18.2703"/>
<text text-anchor="middle" x="422.7696" y="-2334.8299" font-family="Times,serif" font-size="16.00" fill="#000000">15: 96</text>
</g>
<!-- N10&#45;&gt;N15 -->
<g id="edge10" class="edge">
<title>N10&#45;&gt;N15</title>
<path fill="none" stroke="#000000" d="M422.7696,-2416.8745C422.7696,-2400.4691 422.7696,-2382.1394 422.7696,-2367.3471"/>
<polygon fill="#000000" stroke="#000000" points="426.2697,-2367.2792 422.7696,-2357.2792 419.2697,-2367.2793 426.2697,-2367.2792"/>
</g>
<!-- N16 -->
<g id="node17" class="node">
<title>N16</title>
<ellipse fill="none" stroke="#000000" cx="321.7696" cy="-2338.6299" rx="41.9398" ry="18.2703"/>
<text text-anchor="middle" x="321.7696" y="-2334.8299" font-family="Times,serif" font-size="16.00" fill="#000000">16: 0F</text>
</g>
<!-- N11&#45;&gt;N16 -->
<g id="edge11" class="edge">
<title>N11&#45;&gt;N16</title>
<path fill="none" stroke="#000000" d="M321.7696,-2440.8643C321.7696,-2421.2016 321.7696,-2389.9546 321.7696,-2367.1764"/>
<polygon fill="#000000" stroke="#000000" points="325.2697,-2367.0711 321.7696,-2357.0711 318.2697,-2367.0711 325.2697,-2367.0711"/>
</g>
<!-- N17 -->
<g id="node18" class="node">
<title>N17</title>
<path fill="none" stroke="#000000" d="M237.7696,-2356.6299C237.7696,-2356.6299 203.7696,-2356.6299 203.7696,-2356.6299 197.7696,-2356.6299 191.7696,-2350.6299 191.7696,-2344.6299 191.7696,-2344.6299 191.7696,-2332.6299 191.7696,-2332.6299 191.7696,-2326.6299 197.7696,-2320.6299 203.7696,-2320.6299 203.7696,-2320.6299 237.7696,-2320.6299 237.7696,-2320.6299 243.7696,-2320.6299 249.7696,-2326.6299 249.7696,-2332.6299 249.7696,-2332.6299 249.7696,-2344.6299 249.7696,-2344.6299 249.7696,-2350.6299 243.7696,-2356.6299 237.7696,-2356.6299"/>
<text text-anchor="middle" x="220.7696" y="-2334.8299" font-family="Times,serif" font-size="16.00" fill="#000000">17: 48</text>
</g>
<!-- N12&#45;&gt;N17 -->
<g id="edge12" class="edge">
<title>N12&#45;&gt;N17</title>
<path fill="none" stroke="#000000" d="M220.7696,-2440.8643C220.7696,-2421.0873 220.7696,-2389.5909 220.7696,-2366.78"/>
<polygon fill="#000000" stroke="#000000" points="224.2697,-2366.6768 220.7696,-2356.6768 217.2697,-2366.6769 224.2697,-2366.6768"/>
</g>
<!-- N14 -->
<g id="node15" class="node">
<title>N14</title>
<ellipse fill="none" stroke="#000000" cx="523.7696" cy="-2338.6299" rx="42.3529" ry="42.3529"/>
<text text-anchor="middle" x="523.7696" y="-2334.8299" font-family="Times,serif" font-size="16.00" fill="#000000">14: 3C</text>
</g>
<!-- N19 -->
<g id="node20" class="node">
<title>N19</title>
<ellipse fill="none" stroke="#000000" cx="523.7696" cy="-2217.7771" rx="41.0244" ry="18.2703"/>
<text text-anchor="middle" x="523.7696" y="-2213.9771" font-family="Times,serif" font-size="16.00" fill="#000000">19: 96</text>
</g>
<!-- N14&#45;&gt;N19 -->
<g id="edge13" class="edge">
<title>N14&#45;&gt;N19</title>
<path fill="none" stroke="#000000" d="M523.7696,-2296.0217C523.7696,-2279.6163 523.7696,-2261.2866 523.7696,-2246.4943"/>
<polygon fill="#000000" stroke="#000000" points="527.2697,-2246.4264 523.7696,-2236.4264 520.2697,-2246.4265 527.2697,-2246.4264"/>
</g>
<!-- N20 -->
<g id="node21" class="node">
<title>N20</title>
<ellipse fill="none" stroke="#000000" cx="422.7696" cy="-2217.7771" rx="41.9398" ry="18.2703"/>
<text text-anchor="middle" x="422.7696" y="-2213.9771" font-family="Times,serif" font-size="16.00" fill="#000000">20: 0F</text>
</g>
<!-- N15&#45;&gt;N20 -->
<g id="edge14" class="edge">
<title>N15&#45;&gt;N20</title>
<path fill="none" stroke="#000000" d="M422.7696,-2320.0115C422.7696,-2300.3488 422.7696,-2269.1018 422.7696,-2246.3236"/>
<polygon fill="#000000" stroke="#000000" points="426.2697,-2246.2183 422.7696,-2236.2183 419.2697,-2246.2183 426.2697,-2246.2183"/>
</g>
<!-- N21 -->
<g id="node22" class="node">
<title>N21</title>
<path fill="none" stroke="#000000" d="M338.7696,-2235.7771C338.7696,-2235.7771 304.7696,-2235.7771 304.7696,-2235.7771 298.7696,-2235.7771 292.7696,-2229.7771 292.7696,-2223.7771 292.7696,-2223.7771 292.7696,-2211.7771 292.7696,-2211.7771 292.7696,-2205.7771 298.7696,-2199.7771 304.7696,-2199.7771 304.7696,-2199.7771 338.7696,-2199.7771 338.7696,-2199.7771 344.7696,-2199.7771 350.7696,-2205.7771 350.7696,-2211.7771 350.7696,-2211.7771 350.7696,-2223.7771 350.7696,-2223.7771 350.7696,-2229.7771 344.7696,-2235.7771 338.7696,-2235.7771"/>
<text text-anchor="middle" x="321.7696" y="-2213.9771" font-family="Times,serif" font-size="16.00" fill="#000000">21: 48</text>
</g>
<!-- N16&#45;&gt;N21 -->
<g id="edge15" class="edge">
<title>N16&#45;&gt;N21</title>
<path fill="none" stroke="#000000" d="M321.7696,-2320.0115C321.7696,-2300.2345 321.7696,-2268.7381 321.7696,-2245.9272"/>
<polygon fill="#000000" stroke="#000000" points="325.2697,-2245.824 321.7696,-2235.824 318.2697,-2245.8241 325.2697,-2245.824"/>
</g>
<!-- N18 -->
<g id="node19" class="node">
<title>N18</title>
<ellipse fill="none" stroke="#000000" cx="624.7696" cy="-2217.7771" rx="42.3529" ry="42.3529"/>
<text text-anchor="middle" x="624.7696" y="-2213.9771" font-family="Times,serif" font-size="16.00" fill="#000000">18: 3C</text>
</g>
<!-- N23 -->
<g id="node24" class="node">
<title>N23</title>
<ellipse fill="none" stroke="#000000" cx="624.7696" cy="-2096.9242" rx="41.0244" ry="18.2703"/>
<text text-anchor="middle" x="624.7696" y="-2093.1242" font-family="Times,serif" font-size="16.00" fill="#000000">23: 96</text>
</g>
<!-- N18&#45;&gt;N23 -->
<g id="edge16" class="edge">
<title>N18&#45;&gt;N23</title>
<path fill="none" stroke="#000000" d="M624.7696,-2175.1689C624.7696,-2158.7635 624.7696,-2140.4338 624.7696,-2125.6415"/>
<polygon fill="#000000" stroke="#000000" points="628.2697,-2125.5736 624.7696,-2115.5736 621.2697,-2125.5736 628.2697,-2125.5736"/>
</g>
<!-- N24 -->
<g id="node25" class="node">
<title>N24</title>
<ellipse fill="none" stroke="#000000" cx="523.7696" cy="-2096.9242" rx="41.9398" ry="18.2703"/>
<text text-anchor="middle" x="523.7696" y="-2093.1242" font-family="Times,serif" font-size="16.00" fill="#000000">24: 0F</text>
</g>
<!-- N19&#45;&gt;N24 -->
<g id="edge17" class="edge">
<title>N19&#45;&gt;N24</title>
<path fill="none" stroke="#000000" d="M523.7696,-2199.1587C523.7696,-2179.496 523.7696,-2148.249 523.7696,-2125.4708"/>
<polygon fill="#000000" stroke="#000000" points="527.2697,-2125.3654 523.7696,-2115.3655 520.2697,-2125.3655 527.2697,-2125.3654"/>
</g>
<!-- N25 -->
<g id="node26" class="node">
<title>N25</title>
<path fill="none" stroke="#000000" d="M439.7696,-2114.9242C439.7696,-2114.9242 405.7696,-2114.9242 405.7696,-2114.9242 399.7696,-2114.9242 393.7696,-2108.9242 393.7696,-2102.9242 393.7696,-2102.9242 393.7696,-2090.9242 393.7696,-2090.9242 393.7696,-2084.9242 399.7696,-2078.9242 405.7696,-2078.9242 405.7696,-2078.9242 439.7696,-2078.9242 439.7696,-2078.9242 445.7696,-2078.9242 451.7696,-2084.9242 451.7696,-2090.9242 451.7696,-2090.9242 451.7696,-2102.9242 451.7696,-2102.9242 451.7696,-2108.9242 445.7696,-2114.9242 439.7696,-2114.9242"/>
<text text-anchor="middle" x="422.7696" y="-2093.1242" font-family="Times,serif" font-size="16.00" fill="#000000">25: 48</text>
</g>
<!-- N20&#45;&gt;N25 -->
<g id="edge18" class="edge">
<title>N20&#45;&gt;N25</title>
<path fill="none" stroke="#000000" d="M422.7696,-2199.1587C422.7696,-2179.3817 422.7696,-2147.8853 422.7696,-2125.0744"/>
<polygon fill="#000000" stroke="#000000" points="426.2697,-2124.9712 422.7696,-2114.9712 419.2697,-2124.9712 426.2697,-2124.9712"/>
</g>
<!-- N22 -->
<g id="node23" class="node">
<title>N22</title>
<ellipse fill="none" stroke="#000000" cx="725.7696" cy="-2096.9242" rx="42.3529" ry="42.3529"/>
<text text-anchor="middle" x="725.7696" y="-2093.1242" font-family="Times,serif" font-size="16.00" fill="#000000">22: 3C</text>
</g>
<!-- N27 -->
<g id="node28" class="node">
<title>N27</title>
<ellipse fill="none" stroke="#000000" cx="725.7696" cy="-1976.0714" rx="41.0244" ry="18.2703"/>
<text text-anchor="middle" x="725.7696" y="-1972.2714" font-family="Times,serif" font-size="16.00" fill="#000000">27: 96</text>
</g>
<!-- N22&#45;&gt;N27 -->
<g id="edge19" class="edge">
<title>N22&#45;&gt;N27</title>
<path fill="none" stroke="#000000" d="M725.7696,-2054.3161C725.7696,-2037.9107 725.7696,-2019.581 725.7696,-2004.7886"/>
<polygon fill="#000000" stroke="#000000" points="729.2697,-2004.7208 725.7696,-1994.7208 722.2697,-2004.7208 729.2697,-2004.7208"/>
</g>
<!-- N28 -->
<g id="node29" class="node">
<title>N28</title>
<ellipse fill="none" stroke="#000000" cx="624.7696" cy="-1976.0714" rx="41.9398" ry="18.2703"/>
<text text-anchor="middle" x="624.7696" y="-1972.2714" font-family="Times,serif" font-size="16.00" fill="#000000">28: 0F</text>
</g>
<!-- N23&#45;&gt;N28 -->
<g id="edge20" class="edge">
<title>N23&#45;&gt;N28</title>
<path fill="none" stroke="#000000" d="M624.7696,-2078.3058C624.7696,-2058.6432 624.7696,-2027.3962 624.7696,-2004.618"/>
<polygon fill="#000000" stroke="#000000" points="628.2697,-2004.5126 624.7696,-1994.5127 621.2697,-2004.5127 628.2697,-2004.5126"/>
</g>
<!-- N29 -->
<g id="node30" class="node">
<title>N29</title>
<path fill="none" stroke="#000000" d="M540.7696,-1994.0714C540.7696,-1994.0714 506.7696,-1994.0714 506.7696,-1994.0714 500.7696,-1994.0714 494.7696,-1988.0714 494.7696,-1982.0714 494.7696,-1982.0714 494.7696,-1970.0714 494.7696,-1970.0714 494.7696,-1964.0714 500.7696,-1958.0714 506.7696,-1958.0714 506.7696,-1958.0714 540.7696,-1958.0714 540.7696,-1958.0714 546.7696,-1958.0714 552.7696,-1964.0714 552.7696,-1970.0714 552.7696,-1970.0714 552.7696,-1982.0714 552.7696,-1982.0714 552.7696,-1988.0714 546.7696,-1994.0714 540.7696,-1994.0714"/>
<text text-anchor="middle" x="523.7696" y="-1972.2714" font-family="Times,serif" font-size="16.00" fill="#000000">29: 48</text>
</g>
<!-- N24&#45;&gt;N29 -->
<g id="edge21" class="edge">
<title>N24&#45;&gt;N29</title>
<path fill="none" stroke="#000000" d="M523.7696,-2078.3058C523.7696,-2058.5288 523.7696,-2027.0324 523.7696,-2004.2216"/>
<polygon fill="#000000" stroke="#000000" points="527.2697,-2004.1184 523.7696,-1994.1184 520.2697,-2004.1184 527.2697,-2004.1184"/>
</g>
<!-- N26 -->
<g id="node27" class="node">
<title>N26</title>
<ellipse fill="none" stroke="#000000" cx="826.7696" cy="-1976.0714" rx="42.3529" ry="42.3529"/>
<text text-anchor="middle" x="826.7696" y="-1972.2714" font-family="Times,serif" font-size="16.00" fill="#000000">26: 3C</text>
</g>
<!-- N31 -->
<g id="node32" class="node">
<title>N31</title>
<ellipse fill="none" stroke="#000000" cx="826.7696" cy="-1855.2186" rx="41.0244" ry="18.2703"/>
<text text-anchor="middle" x="826.7696" y="-1851.4186" font-family="Times,serif" font-size="16.00" fill="#000000">31: 96</text>
</g>
<!-- N26&#45;&gt;N31 -->
<g id="edge22" class="edge">
<title>N26&#45;&gt;N31</title>
<path fill="none" stroke="#000000" d="M826.7696,-1933.4632C826.7696,-1917.0579 826.7696,-1898.7282 826.7696,-1883.9358"/>
<polygon fill="#000000" stroke="#000000" points="830.2697,-1883.8679 826.7696,-1873.868 823.2697,-1883.868 830.2697,-1883.8679"/>
</g>
<!-- N32 -->
<g id="node33" class="node">
<title>N32</title>
<ellipse fill="none" stroke="#000000" cx="725.7696" cy="-1855.2186" rx="41.9398" ry="18.2703"/>
<text text-anchor="middle" x="725.7696" y="-1851.4186" font-family="Times,serif" font-size="16.00" fill="#000000">32: 0F</text>
</g>
<!-- N27&#45;&gt;N32 -->
<g id="edge23" class="edge">
<title>N27&#45;&gt;N32</title>
<path fill="none" stroke="#000000" d="M725.7696,-1957.453C725.7696,-1937.7903 725.7696,-1906.5434 725.7696,-1883.7652"/>
<polygon fill="#000000" stroke="#000000" points="729.2697,-1883.6598 725.7696,-1873.6598 722.2697,-1883.6599 729.2697,-1883.6598"/>
</g>
<!-- N33 -->
<g id="node34" class="node">
<title>N33</title>
<path fill="none" stroke="#000000" d="M641.7696,-1873.2186C641.7696,-1873.2186 607.7696,-1873.2186 607.7696,-1873.2186 601.7696,-1873.2186 595.7696,-1867.2186 595.7696,-1861.2186 595.7696,-1861.2186 595.7696,-1849.2186 595.7696,-1849.2186 595.7696,-1843.2186 601.7696,-1837.2186 607.7696,-1837.2186 607.7696,-1837.2186 641.7696,-1837.2186 641.7696,-1837.2186 647.7696,-1837.2186 653.7696,-1843.2186 653.7696,-1849.2186 653.7696,-1849.2186 653.7696,-1861.2186 653.7696,-1861.2186 653.7696,-1867.2186 647.7696,-1873.2186 641.7696,-1873.2186"/>
<text text-anchor="middle" x="624.7696" y="-1851.4186" font-family="Times,serif" font-size="16.00" fill="#000000">33: 48</text>
</g>
<!-- N28&#45;&gt;N33 -->
<g id="edge24" class="edge">
<title>N28&#45;&gt;N33</title>
<path fill="none" stroke="#000000" d="M624.7696,-1957.453C624.7696,-1937.676 624.7696,-1906.1796 624.7696,-1883.3687"/>
<polygon fill="#000000" stroke="#000000" points="628.2697,-1883.2655 624.7696,-1873.2656 621.2697,-1883.2656 628.2697,-1883.2655"/>
</g>
<!-- N30 -->
<g id="node31" class="node">
<title>N30</title>
<ellipse fill="none" stroke="#000000" cx="927.7696" cy="-1855.2186" rx="42.3529" ry="42.3529"/>
<text text-anchor="middle" x="927.7696" y="-1851.4186" font-family="Times,serif" font-size="16.00" fill="#000000">30: 3C</text>
</g>
<!-- N35 -->
<g id="node36" class="node">
<title>N35</title>
<ellipse fill="none" stroke="#000000" cx="927.7696" cy="-1734.3658" rx="41.0244" ry="18.2703"/>
<text text-anchor="middle" x="927.7696" y="-1730.5658" font-family="Times,serif" font-size="16.00" fill="#000000">35: 96</text>
</g>
<!-- N30&#45;&gt;N35 -->
<g id="edge25" class="edge">
<title>N30&#45;&gt;N35</title>
<path fill="none" stroke="#000000" d="M927.7696,-1812.6104C927.7696,-1796.2051 927.7696,-1777.8754 927.7696,-1763.083"/>
<polygon fill="#000000" stroke="#000000" points="931.2697,-1763.0151 927.7696,-1753.0152 924.2697,-1763.0152 931.2697,-1763.0151"/>
</g>
<!-- N36 -->
<g id="node37" class="node">
<title>N36</title>
<ellipse fill="none" stroke="#000000" cx="826.7696" cy="-1734.3658" rx="41.9398" ry="18.2703"/>
<text text-anchor="middle" x="826.7696" y="-1730.5658" font-family="Times,serif" font-size="16.00" fill="#000000">36: 0F</text>
</g>
<!-- N31&#45;&gt;N36 -->
<g id="edge26" class="edge">
<title>N31&#45;&gt;N36</title>
<path fill="none" stroke="#000000" d="M826.7696,-1836.6002C826.7696,-1816.9375 826.7696,-1785.6905 826.7696,-1762.9124"/>
<polygon fill="#000000" stroke="#000000" points="830.2697,-1762.807 826.7696,-1752.807 823.2697,-1762.8071 830.2697,-1762.807"/>
</g>
<!-- N37 -->
<g id="node38" class="node">
<title>N37</title>
<path fill="none" stroke="#000000" d="M742.7696,-1752.3658C742.7696,-1752.3658 708.7696,-1752.3658 708.7696,-1752.3658 702.7696,-1752.3658 696.7696,-1746.3658 696.7696,-1740.3658 696.7696,-1740.3658 696.7696,-1728.3658 696.7696,-1728.3658 696.7696,-1722.3658 702.7696,-1716.3658 708.7696,-1716.3658 708.7696,-1716.3658 742.7696,-1716.3658 742.7696,-1716.3658 748.7696,-1716.3658 754.7696,-1722.3658 754.7696,-1728.3658 754.7696,-1728.3658 754.7696,-1740.3658 754.7696,-1740.3658 754.7696,-1746.3658 748.7696,-1752.3658 742.7696,-1752.3658"/>
<text text-anchor="middle" x="725.7696" y="-1730.5658" font-family="Times,serif" font-size="16.00" fill="#000000">37: 48</text>
</g>
<!-- N32&#45;&gt;N37 -->
<g id="edge27" class="edge">
<title>N32&#45;&gt;N37</title>
<path fill="none" stroke="#000000" d="M725.7696,-1836.6002C725.7696,-1816.8232 725.7696,-1785.3268 725.7696,-1762.5159"/>
<polygon fill="#000000" stroke="#000000" points="729.2697,-1762.4127 725.7696,-1752.4128 722.2697,-1762.4128 729.2697,-1762.4127"/>
</g>
<!-- N34 -->
<g id="node35" class="node">
<title>N34</title>
<ellipse fill="none" stroke="#000000" cx="1028.7696" cy="-1734.3658" rx="42.3529" ry="42.3529"/>
<text text-anchor="middle" x="1028.7696" y="-1730.5658" font-family="Times,serif" font-size="16.00" fill="#000000">34: 3C</text>
</g>
<!-- N39 -->
<g id="node40" class="node">
<title>N39</title>
<ellipse fill="none" stroke="#000000" cx="1028.7696" cy="-1613.513" rx="41.0244" ry="18.2703"/>
<text text-anchor="middle" x="1028.7696" y="-1609.713" font-family="Times,serif" font-size="16.00" fill="#000000">39: 96</text>
</g>
<!-- N34&#45;&gt;N39 -->
<g id="edge28" class="edge">
<title>N34&#45;&gt;N39</title>
<path fill="none" stroke="#000000" d="M1028.7696,-1691.7576C1028.7696,-1675.3522 1028.7696,-1657.0225 1028.7696,-1642.2302"/>
<polygon fill="#000000" stroke="#000000" points="1032.2697,-1642.1623 1028.7696,-1632.1624 1025.2697,-1642.1624 1032.2697,-1642.1623"/>
</g>
<!-- N40 -->
<g id="node41" class="node">
<title>N40</title>
<ellipse fill="none" stroke="#000000" cx="927.7696" cy="-1613.513" rx="41.9398" ry="18.2703"/>
<text text-anchor="middle" x="927.7696" y="-1609.713" font-family="Times,serif" font-size="16.00" fill="#000000">40: 0F</text>
</g>
<!-- N35&#45;&gt;N40 -->
<g id="edge29" class="edge">
<title>N35&#45;&gt;N40</title>
<path fill="none" stroke="#000000" d="M927.7696,-1715.7474C927.7696,-1696.0847 927.7696,-1664.8377 927.7696,-1642.0596"/>
<polygon fill="#000000" stroke="#000000" points="931.2697,-1641.9542 927.7696,-1631.9542 924.2697,-1641.9543 931.2697,-1641.9542"/>
</g>
<!-- N41 -->
<g id="node42" class="node">
<title>N41</title>
<path fill="none" stroke="#000000" d="M843.7696,-1631.513C843.7696,-1631.513 809.7696,-1631.513 809.7696,-1631.513 803.7696,-1631.513 797.7696,-1625.513 797.7696,-1619.513 797.7696,-1619.513 797.7696,-1607.513 797.7696,-1607.513 797.7696,-1601.513 803.7696,-1595.513 809.7696,-1595.513 809.7696,-1595.513 843.7696,-1595.513 843.7696,-1595.513 849.7696,-1595.513 855.7696,-1601.513 855.7696,-1607.513 855.7696,-1607.513 855.7696,-1619.513 855.7696,-1619.513 855.7696,-1625.513 849.7696,-1631.513 843.7696,-1631.513"/>
<text text-anchor="middle" x="826.7696" y="-1609.713" font-family="Times,serif" font-size="16.00" fill="#000000">41: 48</text>
</g>
<!-- N36&#45;&gt;N41 -->
<g id="edge30" class="edge">
<title>N36&#45;&gt;N41</title>
<path fill="none" stroke="#000000" d="M826.7696,-1715.7474C826.7696,-1695.9704 826.7696,-1664.474 826.7696,-1641.6631"/>
<polygon fill="#000000" stroke="#000000" points="830.2697,-1641.5599 826.7696,-1631.56 823.2697,-1641.56 830.2697,-1641.5599"/>
</g>
<!-- N38 -->
<g id="node39" class="node">
<title>N38</title>
<ellipse fill="none" stroke="#000000" cx="1129.7696" cy="-1613.513" rx="42.3529" ry="42.3529"/>
<text text-anchor="middle" x="1129.7696" y="-1609.713" font-family="Times,serif" font-size="16.00" fill="#000000">38: 3C</text>
</g>
<!-- N43 -->
<g id="node44" class="node">
<title>N43</title>
<ellipse fill="none" stroke="#000000" cx="1129.7696" cy="-1492.6602" rx="41.0244" ry="18.2703"/>
<text text-anchor="middle" x="1129.7696" y="-1488.8602" font-family="Times,serif" font-size="16.00" fill="#000000">43: 96</text>
</g>
<!-- N38&#45;&gt;N43 -->
<g id="edge31" class="edge">
<title>N38&#45;&gt;N43</title>
<path fill="none" stroke="#000000" d="M1129.7696,-1570.9048C1129.7696,-1554.4994 1129.7696,-1536.1697 1129.7696,-1521.3774"/>
<polygon fill="#000000" stroke="#000000" points="1133.2697,-1521.3095 1129.7696,-1511.3095 1126.2697,-1521.3096 1133.2697,-1521.3095"/>
</g>
<!-- N44 -->
<g id="node45" class="node">
<title>N44</title>
<ellipse fill="none" stroke="#000000" cx="1028.7696" cy="-1492.6602" rx="41.9398" ry="18.2703"/>
<text text-anchor="middle" x="1028.7696" y="-1488.8602" font-family="Times,serif" font-size="16.00" fill="#000000">44: 0F</text>
</g>
<!-- N39&#45;&gt;N44 -->
<g id="edge32" class="edge">
<title>N39&#45;&gt;N44</title>
<path fill="none" stroke="#000000" d="M1028.7696,-1594.8946C1028.7696,-1575.2319 1028.7696,-1543.9849 1028.7696,-1521.2067"/>
<polygon fill="#000000" stroke="#000000" points="1032.2697,-1521.1014 1028.7696,-1511.1014 1025.2697,-1521.1014 1032.2697,-1521.1014"/>
</g>
<!-- N45 -->
<g id="node46" class="node">
<title>N45</title>
<path fill="none" stroke="#000000" d="M944.7696,-1510.6602C944.7696,-1510.6602 910.7696,-1510.6602 910.7696,-1510.6602 904.7696,-1510.6602 898.7696,-1504.6602 898.7696,-1498.6602 898.7696,-1498.6602 898.7696,-1486.6602 898.7696,-1486.6602 898.7696,-1480.6602 904.7696,-1474.6602 910.7696,-1474.6602 910.7696,-1474.6602 944.7696,-1474.6602 944.7696,-1474.6602 950.7696,-1474.6602 956.7696,-1480.6602 956.7696,-1486.6602 956.7696,-1486.6602 956.7696,-1498.6602 956.7696,-1498.6602 956.7696,-1504.6602 950.7696,-1510.6602 944.7696,-1510.6602"/>
<text text-anchor="middle" x="927.7696" y="-1488.8602" font-family="Times,serif" font-size="16.00" fill="#000000">45: 48</text>
</g>
<!-- N40&#45;&gt;N45 -->
<g id="edge33" class="edge">
<title>N40&#45;&gt;N45</title>
<path fill="none" stroke="#000000" d="M927.7696,-1594.8946C927.7696,-1575.1176 927.7696,-1543.6212 927.7696,-1520.8103"/>
<polygon fill="#000000" stroke="#000000" points="931.2697,-1520.7071 927.7696,-1510.7071 924.2697,-1520.7072 931.2697,-1520.7071"/>
</g>
<!-- N42 -->
<g id="node43" class="node">
<title>N42</title>
<ellipse fill="none" stroke="#000000" cx="1230.7696" cy="-1492.6602" rx="42.3529" ry="42.3529"/>
<text text-anchor="middle" x="1230.7696" y="-1488.8602" font-family="Times,serif" font-size="16.00" fill="#000000">42: 3C</text>
</g>
<!-- N47 -->
<g id="node48" class="node">
<title>N47</title>
<ellipse fill="none" stroke="#000000" cx="1230.7696" cy="-1371.8074" rx="41.0244" ry="18.2703"/>
<text text-anchor="middle" x="1230.7696" y="-1368.0074" font-family="Times,serif" font-size="16.00" fill="#000000">47: 96</text>
</g>
<!-- N42&#45;&gt;N47 -->
<g id="edge34" class="edge">
<title>N42&#45;&gt;N47</title>
<path fill="none" stroke="#000000" d="M1230.7696,-1450.052C1230.7696,-1433.6466 1230.7696,-1415.3169 1230.7696,-1400.5246"/>
<polygon fill="#000000" stroke="#000000" points="1234.2697,-1400.4567 1230.7696,-1390.4567 1227.2697,-1400.4568 1234.2697,-1400.4567"/>
</g>
<!-- N48 -->
<g id="node49" class="node">
<title>N48</title>
<ellipse fill="none" stroke="#000000" cx="1129.7696" cy="-1371.8074" rx="41.9398" ry="18.2703"/>
<text text-anchor="middle" x="1129.7696" y="-1368.0074" font-family="Times,serif" font-size="16.00" fill="#000000">48: 0F</text>
</g>
<!-- N43&#45;&gt;N48 -->
<g id="edge35" class="edge">
<title>N43&#45;&gt;N48</title>
<path fill="none" stroke="#000000" d="M1129.7696,-1474.0418C1129.7696,-1454.3791 1129.7696,-1423.1321 1129.7696,-1400.3539"/>
<polygon fill="#000000" stroke="#000000" points="1133.2697,-1400.2486 1129.7696,-1390.2486 1126.2697,-1400.2486 1133.2697,-1400.2486"/>
</g>
<!-- N49 -->
<g id="node50" class="node">
<title>N49</title>
<path fill="none" stroke="#000000" d="M1045.7696,-1389.8074C1045.7696,-1389.8074 1011.7696,-1389.8074 1011.7696,-1389.8074 1005.7696,-1389.8074 999.7696,-1383.8074 999.7696,-1377.8074 999.7696,-1377.8074 999.7696,-1365.8074 999.7696,-1365.8074 999.7696,-1359.8074 1005.7696,-1353.8074 1011.7696,-1353.8074 1011.7696,-1353.8074 1045.7696,-1353.8074 1045.7696,-1353.8074 1051.7696,-1353.8074 1057.7696,-1359.8074 1057.7696,-1365.8074 1057.7696,-1365.8074 1057.7696,-1377.8074 1057.7696,-1377.8074 1057.7696,-1383.8074 1051.7696,-1389.8074 1045.7696,-1389.8074"/>
<text text-anchor="middle" x="1028.7696" y="-1368.0074" font-family="Times,serif" font-size="16.00" fill="#000000">49: 48</text>
</g>
<!-- N44&#45;&gt;N49 -->
<g id="edge36" class="edge">
<title>N44&#45;&gt;N49</title>
<path fill="none" stroke="#000000" d="M1028.7696,-1474.0418C1028.7696,-1454.2648 1028.7696,-1422.7684 1028.7696,-1399.9575"/>
<polygon fill="#000000" stroke="#000000" points="1032.2697,-1399.8543 1028.7696,-1389.8543 1025.2697,-1399.8544 1032.2697,-1399.8543"/>
</g>
<!-- N46 -->
<g id="node47" class="node">
<title>N46</title>
<ellipse fill="none" stroke="#000000" cx="1331.7696" cy="-1371.8074" rx="42.3529" ry="42.3529"/>
<text text-anchor="middle" x="1331.7696" y="-1368.0074" font-family="Times,serif" font-size="16.00" fill="#000000">46: 3C</text>
</g>
<!-- N51 -->
<g id="node52" class="node">
<title>N51</title>
<ellipse fill="none" stroke="#000000" cx="1331.7696" cy="-1250.9545" rx="41.0244" ry="18.2703"/>
<text text-anchor="middle" x="1331.7696" y="-1247.1545" font-family="Times,serif" font-size="16.00" fill="#000000">51: 96</text>
</g>
<!-- N46&#45;&gt;N51 -->
<g id="edge37" class="edge">
<title>N46&#45;&gt;N51</title>
<path fill="none" stroke="#000000" d="M1331.7696,-1329.1992C1331.7696,-1312.7938 1331.7696,-1294.4641 1331.7696,-1279.6718"/>
<polygon fill="#000000" stroke="#000000" points="1335.2697,-1279.6039 1331.7696,-1269.6039 1328.2697,-1279.6039 1335.2697,-1279.6039"/>
</g>
<!-- N52 -->
<g id="node53" class="node">
<title>N52</title>
<ellipse fill="none" stroke="#000000" cx="1230.7696" cy="-1250.9545" rx="41.9398" ry="18.2703"/>
<text text-anchor="middle" x="1230.7696" y="-1247.1545" font-family="Times,serif" font-size="16.00" fill="#000000">52: 0F</text>
</g>
<!-- N47&#45;&gt;N52 -->
<g id="edge38" class="edge">
<title>N47&#45;&gt;N52</title>
<path fill="none" stroke="#000000" d="M1230.7696,-1353.189C1230.7696,-1333.5263 1230.7696,-1302.2793 1230.7696,-1279.5011"/>
<polygon fill="#000000" stroke="#000000" points="1234.2697,-1279.3957 1230.7696,-1269.3958 1227.2697,-1279.3958 1234.2697,-1279.3957"/>
</g>
<!-- N53 -->
<g id="node54" class="node">
<title>N53</title>
<path fill="none" stroke="#000000" d="M1146.7696,-1268.9545C1146.7696,-1268.9545 1112.7696,-1268.9545 1112.7696,-1268.9545 1106.7696,-1268.9545 1100.7696,-1262.9545 1100.7696,-1256.9545 1100.7696,-1256.9545 1100.7696,-1244.9545 1100.7696,-1244.9545 1100.7696,-1238.9545 1106.7696,-1232.9545 1112.7696,-1232.9545 1112.7696,-1232.9545 1146.7696,-1232.9545 1146.7696,-1232.9545 1152.7696,-1232.9545 1158.7696,-1238.9545 1158.7696,-1244.9545 1158.7696,-1244.9545 1158.7696,-1256.9545 1158.7696,-1256.9545 1158.7696,-1262.9545 1152.7696,-1268.9545 1146.7696,-1268.9545"/>
<text text-anchor="middle" x="1129.7696" y="-1247.1545" font-family="Times,serif" font-size="16.00" fill="#000000">53: 48</text>
</g>
<!-- N48&#45;&gt;N53 -->
<g id="edge39" class="edge">
<title>N48&#45;&gt;N53</title>
<path fill="none" stroke="#000000" d="M1129.7696,-1353.189C1129.7696,-1333.412 1129.7696,-1301.9156 1129.7696,-1279.1047"/>
<polygon fill="#000000" stroke="#000000" points="1133.2697,-1279.0015 1129.7696,-1269.0015 1126.2697,-1279.0015 1133.2697,-1279.0015"/>
</g>
<!-- N50 -->
<g id="node51" class="node">
<title>N50</title>
<ellipse fill="none" stroke="#000000" cx="1432.7696" cy="-1250.9545" rx="42.3529" ry="42.3529"/>
<text text-anchor="middle" x="1432.7696" y="-1247.1545" font-family="Times,serif" font-size="16.00" fill="#000000">50: 3C</text>
</g>
<!-- N55 -->
<g id="node56" class="node">
<title>N55</title>
<ellipse fill="none" stroke="#000000" cx="1432.7696" cy="-1130.1017" rx="41.0244" ry="18.2703"/>
<text text-anchor="middle" x="1432.7696" y="-1126.3017" font-family="Times,serif" font-size="16.00" fill="#000000">55: 96</text>
</g>
<!-- N50&#45;&gt;N55 -->
<g id="edge40" class="edge">
<title>N50&#45;&gt;N55</title>
<path fill="none" stroke="#000000" d="M1432.7696,-1208.3464C1432.7696,-1191.941 1432.7696,-1173.6113 1432.7696,-1158.8189"/>
<polygon fill="#000000" stroke="#000000" points="1436.2697,-1158.7511 1432.7696,-1148.7511 1429.2697,-1158.7511 1436.2697,-1158.7511"/>
</g>
<!-- N56 -->
<g id="node57" class="node">
<title>N56</title>
<ellipse fill="none" stroke="#000000" cx="1331.7696" cy="-1130.1017" rx="41.9398" ry="18.2703"/>
<text text-anchor="middle" x="1331.7696" y="-1126.3017" font-family="Times,serif" font-size="16.00" fill="#000000">56: 0F</text>
</g>
<!-- N51&#45;&gt;N56 -->
<g id="edge41" class="edge">
<title>N51&#45;&gt;N56</title>
<path fill="none" stroke="#000000" d="M1331.7696,-1232.3361C1331.7696,-1212.6735 1331.7696,-1181.4265 1331.7696,-1158.6483"/>
<polygon fill="#000000" stroke="#000000" points="1335.2697,-1158.5429 1331.7696,-1148.543 1328.2697,-1158.543 1335.2697,-1158.5429"/>
</g>
<!-- N57 -->
<g id="node58" class="node">
<title>N57</title>
<path fill="none" stroke="#000000" d="M1247.7696,-1148.1017C1247.7696,-1148.1017 1213.7696,-1148.1017 1213.7696,-1148.1017 1207.7696,-1148.1017 1201.7696,-1142.1017 1201.7696,-1136.1017 1201.7696,-1136.1017 1201.7696,-1124.1017 1201.7696,-1124.1017 1201.7696,-1118.1017 1207.7696,-1112.1017 1213.7696,-1112.1017 1213.7696,-1112.1017 1247.7696,-1112.1017 1247.7696,-1112.1017 1253.7696,-1112.1017 1259.7696,-1118.1017 1259.7696,-1124.1017 1259.7696,-1124.1017 1259.7696,-1136.1017 1259.7696,-1136.1017 1259.7696,-1142.1017 1253.7696,-1148.1017 1247.7696,-1148.1017"/>
<text text-anchor="middle" x="1230.7696" y="-1126.3017" font-family="Times,serif" font-size="16.00" fill="#000000">57: 48</text>
</g>
<!-- N52&#45;&gt;N57 -->
<g id="edge42" class="edge">
<title>N52&#45;&gt;N57</title>
<path fill="none" stroke="#000000" d="M1230.7696,-1232.3361C1230.7696,-1212.5591 1230.7696,-1181.0627 1230.7696,-1158.2519"/>
<polygon fill="#000000" stroke="#000000" points="1234.2697,-1158.1487 1230.7696,-1148.1487 1227.2697,-1158.1487 1234.2697,-1158.1487"/>
</g>
<!-- N54 -->
<g id="node55" class="node">
<title>N54</title>
<ellipse fill="none" stroke="#000000" cx="1533.7696" cy="-1130.1017" rx="42.3529" ry="42.3529"/>
<text text-anchor="middle" x="1533.7696" y="-1126.3017" font-family="Times,serif" font-size="16.00" fill="#000000">54: 3C</text>
</g>
<!-- N59 -->
<g id="node60" class="node">
<title>N59</title>
<ellipse fill="none" stroke="#000000" cx="1533.7696" cy="-1009.2489" rx="41.0244" ry="18.2703"/>
<text text-anchor="middle" x="1533.7696" y="-1005.4489" font-family="Times,serif" font-size="16.00" fill="#000000">59: 96</text>
</g>
<!-- N54&#45;&gt;N59 -->
<g id="edge43" class="edge">
<title>N54&#45;&gt;N59</title>
<path fill="none" stroke="#000000" d="M1533.7696,-1087.4935C1533.7696,-1071.0882 1533.7696,-1052.7585 1533.7696,-1037.9661"/>
<polygon fill="#000000" stroke="#000000" points="1537.2697,-1037.8982 1533.7696,-1027.8983 1530.2697,-1037.8983 1537.2697,-1037.8982"/>
</g>
<!-- N60 -->
<g id="node61" class="node">
<title>N60</title>
<ellipse fill="none" stroke="#000000" cx="1432.7696" cy="-1009.2489" rx="41.9398" ry="18.2703"/>
<text text-anchor="middle" x="1432.7696" y="-1005.4489" font-family="Times,serif" font-size="16.00" fill="#000000">60: 0F</text>
</g>
<!-- N55&#45;&gt;N60 -->
<g id="edge44" class="edge">
<title>N55&#45;&gt;N60</title>
<path fill="none" stroke="#000000" d="M1432.7696,-1111.4833C1432.7696,-1091.8206 1432.7696,-1060.5737 1432.7696,-1037.7955"/>
<polygon fill="#000000" stroke="#000000" points="1436.2697,-1037.6901 1432.7696,-1027.6902 1429.2697,-1037.6902 1436.2697,-1037.6901"/>
</g>
<!-- N61 -->
<g id="node62" class="node">
<title>N61</title>
<path fill="none" stroke="#000000" d="M1348.7696,-1027.2489C1348.7696,-1027.2489 1314.7696,-1027.2489 1314.7696,-1027.2489 1308.7696,-1027.2489 1302.7696,-1021.2489 1302.7696,-1015.2489 1302.7696,-1015.2489 1302.7696,-1003.2489 1302.7696,-1003.2489 1302.7696,-997.2489 1308.7696,-991.2489 1314.7696,-991.2489 1314.7696,-991.2489 1348.7696,-991.2489 1348.7696,-991.2489 1354.7696,-991.2489 1360.7696,-997.2489 1360.7696,-1003.2489 1360.7696,-1003.2489 1360.7696,-1015.2489 1360.7696,-1015.2489 1360.7696,-1021.2489 1354.7696,-1027.2489 1348.7696,-1027.2489"/>
<text text-anchor="middle" x="1331.7696" y="-1005.4489" font-family="Times,serif" font-size="16.00" fill="#000000">61: 48</text>
</g>
<!-- N56&#45;&gt;N61 -->
<g id="edge45" class="edge">
<title>N56&#45;&gt;N61</title>
<path fill="none" stroke="#000000" d="M1331.7696,-1111.4833C1331.7696,-1091.7063 1331.7696,-1060.2099 1331.7696,-1037.3991"/>
<polygon fill="#000000" stroke="#000000" points="1335.2697,-1037.2959 1331.7696,-1027.2959 1328.2697,-1037.2959 1335.2697,-1037.2959"/>
</g>
<!-- N58 -->
<g id="node59" class="node">
<title>N58</title>
<ellipse fill="none" stroke="#000000" cx="1634.7696" cy="-1009.2489" rx="42.3529" ry="42.3529"/>
<text text-anchor="middle" x="1634.7696" y="-1005.4489" font-family="Times,serif" font-size="16.00" fill="#000000">58: 3C</text>
</g>
<!-- N63 -->
<g id="node64" class="node">
<title>N63</title>
<ellipse fill="none" stroke="#000000" cx="1634.7696" cy="-888.3961" rx="41.0244" ry="18.2703"/>
<text text-anchor="middle" x="1634.7696" y="-884.5961" font-family="Times,serif" font-size="16.00" fill="#000000">63: 96</text>
</g>
<!-- N58&#45;&gt;N63 -->
<g id="edge46" class="edge">
<title>N58&#45;&gt;N63</title>
<path fill="none" stroke="#000000" d="M1634.7696,-966.6407C1634.7696,-950.2354 1634.7696,-931.9057 1634.7696,-917.1133"/>
<polygon fill="#000000" stroke="#000000" points="1638.2697,-917.0454 1634.7696,-907.0455 1631.2697,-917.0455 1638.2697,-917.0454"/>
</g>
<!-- N64 -->
<g id="node65" class="node">
<title>N64</title>
<ellipse fill="none" stroke="#000000" cx="1533.7696" cy="-888.3961" rx="41.9398" ry="18.2703"/>
<text text-anchor="middle" x="1533.7696" y="-884.5961" font-family="Times,serif" font-size="16.00" fill="#000000">64: 0F</text>
</g>
<!-- N59&#45;&gt;N64 -->
<g id="edge47" class="edge">
<title>N59&#45;&gt;N64</title>
<path fill="none" stroke="#000000" d="M1533.7696,-990.6305C1533.7696,-970.9678 1533.7696,-939.7208 1533.7696,-916.9427"/>
<polygon fill="#000000" stroke="#000000" points="1537.2697,-916.8373 1533.7696,-906.8373 1530.2697,-916.8374 1537.2697,-916.8373"/>
</g>
<!-- N65 -->
<g id="node66" class="node">
<title>N65</title>
<path fill="none" stroke="#000000" d="M1449.7696,-906.3961C1449.7696,-906.3961 1415.7696,-906.3961 1415.7696,-906.3961 1409.7696,-906.3961 1403.7696,-900.3961 1403.7696,-894.3961 1403.7696,-894.3961 1403.7696,-882.3961 1403.7696,-882.3961 1403.7696,-876.3961 1409.7696,-870.3961 1415.7696,-870.3961 1415.7696,-870.3961 1449.7696,-870.3961 1449.7696,-870.3961 1455.7696,-870.3961 1461.7696,-876.3961 1461.7696,-882.3961 1461.7696,-882.3961 1461.7696,-894.3961 1461.7696,-894.3961 1461.7696,-900.3961 1455.7696,-906.3961 1449.7696,-906.3961"/>
<text text-anchor="middle" x="1432.7696" y="-884.5961" font-family="Times,serif" font-size="16.00" fill="#000000">65: 48</text>
</g>
<!-- N60&#45;&gt;N65 -->
<g id="edge48" class="edge">
<title>N60&#45;&gt;N65</title>
<path fill="none" stroke="#000000" d="M1432.7696,-990.6305C1432.7696,-970.8535 1432.7696,-939.3571 1432.7696,-916.5462"/>
<polygon fill="#000000" stroke="#000000" points="1436.2697,-916.443 1432.7696,-906.4431 1429.2697,-916.4431 1436.2697,-916.443"/>
</g>
<!-- N62 -->
<g id="node63" class="node">
<title>N62</title>
<ellipse fill="none" stroke="#000000" cx="1735.7696" cy="-888.3961" rx="42.3529" ry="42.3529"/>
<text text-anchor="middle" x="1735.7696" y="-884.5961" font-family="Times,serif" font-size="16.00" fill="#000000">62: 3C</text>
</g>
<!-- N67 -->
<g id="node68" class="node">
<title>N67</title>
<ellipse fill="none" stroke="#000000" cx="1735.7696" cy="-767.5433" rx="41.0244" ry="18.2703"/>
<text text-anchor="middle" x="1735.7696" y="-763.7433" font-family="Times,serif" font-size="16.00" fill="#000000">67: 96</text>
</g>
<!-- N62&#45;&gt;N67 -->
<g id="edge49" class="edge">
<title>N62&#45;&gt;N67</title>
<path fill="none" stroke="#000000" d="M1735.7696,-845.7879C1735.7696,-829.3826 1735.7696,-811.0528 1735.7696,-796.2605"/>
<polygon fill="#000000" stroke="#000000" points="1739.2697,-796.1926 1735.7696,-786.1927 1732.2697,-796.1927 1739.2697,-796.1926"/>
</g>
<!-- N68 -->
<g id="node69" class="node">
<title>N68</title>
<ellipse fill="none" stroke="#000000" cx="1634.7696" cy="-767.5433" rx="41.9398" ry="18.2703"/>
<text text-anchor="middle" x="1634.7696" y="-763.7433" font-family="Times,serif" font-size="16.00" fill="#000000">68: 0F</text>
</g>
<!-- N63&#45;&gt;N68 -->
<g id="edge50" class="edge">
<title>N63&#45;&gt;N68</title>
<path fill="none" stroke="#000000" d="M1634.7696,-869.7777C1634.7696,-850.115 1634.7696,-818.868 1634.7696,-796.0899"/>
<polygon fill="#000000" stroke="#000000" points="1638.2697,-795.9845 1634.7696,-785.9845 1631.2697,-795.9846 1638.2697,-795.9845"/>
</g>
<!-- N69 -->
<g id="node70" class="node">
<title>N69</title>
<path fill="none" stroke="#000000" d="M1550.7696,-785.5433C1550.7696,-785.5433 1516.7696,-785.5433 1516.7696,-785.5433 1510.7696,-785.5433 1504.7696,-779.5433 1504.7696,-773.5433 1504.7696,-773.5433 1504.7696,-761.5433 1504.7696,-761.5433 1504.7696,-755.5433 1510.7696,-749.5433 1516.7696,-749.5433 1516.7696,-749.5433 1550.7696,-749.5433 1550.7696,-749.5433 1556.7696,-749.5433 1562.7696,-755.5433 1562.7696,-761.5433 1562.7696,-761.5433 1562.7696,-773.5433 1562.7696,-773.5433 1562.7696,-779.5433 1556.7696,-785.5433 1550.7696,-785.5433"/>
<text text-anchor="middle" x="1533.7696" y="-763.7433" font-family="Times,serif" font-size="16.00" fill="#000000">69: 48</text>
</g>
<!-- N64&#45;&gt;N69 -->
<g id="edge51" class="edge">
<title>N64&#45;&gt;N69</title>
<path fill="none" stroke="#000000" d="M1533.7696,-869.7777C1533.7696,-850.0007 1533.7696,-818.5043 1533.7696,-795.6934"/>
<polygon fill="#000000" stroke="#000000" points="1537.2697,-795.5902 1533.7696,-785.5903 1530.2697,-795.5903 1537.2697,-795.5902"/>
</g>
<!-- N66 -->
<g id="node67" class="node">
<title>N66</title>
<ellipse fill="none" stroke="#000000" cx="1836.7696" cy="-767.5433" rx="42.3529" ry="42.3529"/>
<text text-anchor="middle" x="1836.7696" y="-763.7433" font-family="Times,serif" font-size="16.00" fill="#000000">66: 3C</text>
</g>
<!-- N71 -->
<g id="node72" class="node">
<title>N71</title>
<ellipse fill="none" stroke="#000000" cx="1836.7696" cy="-646.6905" rx="41.0244" ry="18.2703"/>
<text text-anchor="middle" x="1836.7696" y="-642.8905" font-family="Times,serif" font-size="16.00" fill="#000000">71: 96</text>
</g>
<!-- N66&#45;&gt;N71 -->
<g id="edge52" class="edge">
<title>N66&#45;&gt;N71</title>
<path fill="none" stroke="#000000" d="M1836.7696,-724.9351C1836.7696,-708.5297 1836.7696,-690.2 1836.7696,-675.4077"/>
<polygon fill="#000000" stroke="#000000" points="1840.2697,-675.3398 1836.7696,-665.3398 1833.2697,-675.3399 1840.2697,-675.3398"/>
</g>
<!-- N72 -->
<g id="node73" class="node">
<title>N72</title>
<ellipse fill="none" stroke="#000000" cx="1735.7696" cy="-646.6905" rx="41.9398" ry="18.2703"/>
<text text-anchor="middle" x="1735.7696" y="-642.8905" font-family="Times,serif" font-size="16.00" fill="#000000">72: 0F</text>
</g>
<!-- N67&#45;&gt;N72 -->
<g id="edge53" class="edge">
<title>N67&#45;&gt;N72</title>
<path fill="none" stroke="#000000" d="M1735.7696,-748.9249C1735.7696,-729.2622 1735.7696,-698.0152 1735.7696,-675.237"/>
<polygon fill="#000000" stroke="#000000" points="1739.2697,-675.1317 1735.7696,-665.1317 1732.2697,-675.1317 1739.2697,-675.1317"/>
</g>
<!-- N73 -->
<g id="node74" class="node">
<title>N73</title>
<path fill="none" stroke="#000000" d="M1651.7696,-664.6905C1651.7696,-664.6905 1617.7696,-664.6905 1617.7696,-664.6905 1611.7696,-664.6905 1605.7696,-658.6905 1605.7696,-652.6905 1605.7696,-652.6905 1605.7696,-640.6905 1605.7696,-640.6905 1605.7696,-634.6905 1611.7696,-628.6905 1617.7696,-628.6905 1617.7696,-628.6905 1651.7696,-628.6905 1651.7696,-628.6905 1657.7696,-628.6905 1663.7696,-634.6905 1663.7696,-640.6905 1663.7696,-640.6905 1663.7696,-652.6905 1663.7696,-652.6905 1663.7696,-658.6905 1657.7696,-664.6905 1651.7696,-664.6905"/>
<text text-anchor="middle" x="1634.7696" y="-642.8905" font-family="Times,serif" font-size="16.00" fill="#000000">73: 48</text>
</g>
<!-- N68&#45;&gt;N73 -->
<g id="edge54" class="edge">
<title>N68&#45;&gt;N73</title>
<path fill="none" stroke="#000000" d="M1634.7696,-748.9249C1634.7696,-729.1479 1634.7696,-697.6515 1634.7696,-674.8406"/>
<polygon fill="#000000" stroke="#000000" points="1638.2697,-674.7374 1634.7696,-664.7374 1631.2697,-674.7375 1638.2697,-674.7374"/>
</g>
<!-- N70 -->
<g id="node71" class="node">
<title>N70</title>
<ellipse fill="none" stroke="#000000" cx="1937.7696" cy="-646.6905" rx="42.3529" ry="42.3529"/>
<text text-anchor="middle" x="1937.7696" y="-642.8905" font-family="Times,serif" font-size="16.00" fill="#000000">70: 3C</text>
</g>
<!-- N75 -->
<g id="node76" class="node">
<title>N75</title>
<ellipse fill="none" stroke="#000000" cx="1937.7696" cy="-525.8377" rx="41.0244" ry="18.2703"/>
<text text-anchor="middle" x="1937.7696" y="-522.0377" font-family="Times,serif" font-size="16.00" fill="#000000">75: 96</text>
</g>
<!-- N70&#45;&gt;N75 -->
<g id="edge55" class="edge">
<title>N70&#45;&gt;N75</title>
<path fill="none" stroke="#000000" d="M1937.7696,-604.0823C1937.7696,-587.6769 1937.7696,-569.3472 1937.7696,-554.5549"/>
<polygon fill="#000000" stroke="#000000" points="1941.2697,-554.487 1937.7696,-544.487 1934.2697,-554.4871 1941.2697,-554.487"/>
</g>
<!-- N76 -->
<g id="node77" class="node">
<title>N76</title>
<ellipse fill="none" stroke="#000000" cx="1836.7696" cy="-525.8377" rx="41.9398" ry="18.2703"/>
<text text-anchor="middle" x="1836.7696" y="-522.0377" font-family="Times,serif" font-size="16.00" fill="#000000">76: 0F</text>
</g>
<!-- N71&#45;&gt;N76 -->
<g id="edge56" class="edge">
<title>N71&#45;&gt;N76</title>
<path fill="none" stroke="#000000" d="M1836.7696,-628.0721C1836.7696,-608.4094 1836.7696,-577.1624 1836.7696,-554.3842"/>
<polygon fill="#000000" stroke="#000000" points="1840.2697,-554.2789 1836.7696,-544.2789 1833.2697,-554.2789 1840.2697,-554.2789"/>
</g>
<!-- N77 -->
<g id="node78" class="node">
<title>N77</title>
<path fill="none" stroke="#000000" d="M1752.7696,-543.8377C1752.7696,-543.8377 1718.7696,-543.8377 1718.7696,-543.8377 1712.7696,-543.8377 1706.7696,-537.8377 1706.7696,-531.8377 1706.7696,-531.8377 1706.7696,-519.8377 1706.7696,-519.8377 1706.7696,-513.8377 1712.7696,-507.8377 1718.7696,-507.8377 1718.7696,-507.8377 1752.7696,-507.8377 1752.7696,-507.8377 1758.7696,-507.8377 1764.7696,-513.8377 1764.7696,-519.8377 1764.7696,-519.8377 1764.7696,-531.8377 1764.7696,-531.8377 1764.7696,-537.8377 1758.7696,-543.8377 1752.7696,-543.8377"/>
<text text-anchor="middle" x="1735.7696" y="-522.0377" font-family="Times,serif" font-size="16.00" fill="#000000">77: 48</text>
</g>
<!-- N72&#45;&gt;N77 -->
<g id="edge57" class="edge">
<title>N72&#45;&gt;N77</title>
<path fill="none" stroke="#000000" d="M1735.7696,-628.0721C1735.7696,-608.2951 1735.7696,-576.7987 1735.7696,-553.9878"/>
<polygon fill="#000000" stroke="#000000" points="1739.2697,-553.8846 1735.7696,-543.8846 1732.2697,-553.8847 1739.2697,-553.8846"/>
</g>
<!-- N74 -->
<g id="node75" class="node">
<title>N74</title>
<ellipse fill="none" stroke="#000000" cx="2038.7696" cy="-525.8377" rx="42.3529" ry="42.3529"/>
<text text-anchor="middle" x="2038.7696" y="-522.0377" font-family="Times,serif" font-size="16.00" fill="#000000">74: 3C</text>
</g>
<!-- N79 -->
<g id="node80" class="node">
<title>N79</title>
<ellipse fill="none" stroke="#000000" cx="2038.7696" cy="-404.9848" rx="41.0244" ry="18.2703"/>
<text text-anchor="middle" x="2038.7696" y="-401.1848" font-family="Times,serif" font-size="16.00" fill="#000000">79: 96</text>
</g>
<!-- N74&#45;&gt;N79 -->
<g id="edge58" class="edge">
<title>N74&#45;&gt;N79</title>
<path fill="none" stroke="#000000" d="M2038.7696,-483.2295C2038.7696,-466.8241 2038.7696,-448.4944 2038.7696,-433.7021"/>
<polygon fill="#000000" stroke="#000000" points="2042.2697,-433.6342 2038.7696,-423.6342 2035.2697,-433.6342 2042.2697,-433.6342"/>
</g>
<!-- N80 -->
<g id="node81" class="node">
<title>N80</title>
<ellipse fill="none" stroke="#000000" cx="1937.7696" cy="-404.9848" rx="41.9398" ry="18.2703"/>
<text text-anchor="middle" x="1937.7696" y="-401.1848" font-family="Times,serif" font-size="16.00" fill="#000000">80: 0F</text>
</g>
<!-- N75&#45;&gt;N80 -->
<g id="edge59" class="edge">
<title>N75&#45;&gt;N80</title>
<path fill="none" stroke="#000000" d="M1937.7696,-507.2193C1937.7696,-487.5566 1937.7696,-456.3096 1937.7696,-433.5314"/>
<polygon fill="#000000" stroke="#000000" points="1941.2697,-433.426 1937.7696,-423.4261 1934.2697,-433.4261 1941.2697,-433.426"/>
</g>
<!-- N81 -->
<g id="node82" class="node">
<title>N81</title>
<path fill="none" stroke="#000000" d="M1853.7696,-422.9848C1853.7696,-422.9848 1819.7696,-422.9848 1819.7696,-422.9848 1813.7696,-422.9848 1807.7696,-416.9848 1807.7696,-410.9848 1807.7696,-410.9848 1807.7696,-398.9848 1807.7696,-398.9848 1807.7696,-392.9848 1813.7696,-386.9848 1819.7696,-386.9848 1819.7696,-386.9848 1853.7696,-386.9848 1853.7696,-386.9848 1859.7696,-386.9848 1865.7696,-392.9848 1865.7696,-398.9848 1865.7696,-398.9848 1865.7696,-410.9848 1865.7696,-410.9848 1865.7696,-416.9848 1859.7696,-422.9848 1853.7696,-422.9848"/>
<text text-anchor="middle" x="1836.7696" y="-401.1848" font-family="Times,serif" font-size="16.00" fill="#000000">81: 48</text>
</g>
<!-- N76&#45;&gt;N81 -->
<g id="edge60" class="edge">
<title>N76&#45;&gt;N81</title>
<path fill="none" stroke="#000000" d="M1836.7696,-507.2193C1836.7696,-487.4423 1836.7696,-455.9459 1836.7696,-433.135"/>
<polygon fill="#000000" stroke="#000000" points="1840.2697,-433.0318 1836.7696,-423.0318 1833.2697,-433.0319 1840.2697,-433.0318"/>
</g>
<!-- N78 -->
<g id="node79" class="node">
<title>N78</title>
<ellipse fill="none" stroke="#000000" cx="2139.7696" cy="-404.9848" rx="42.3529" ry="42.3529"/>
<text text-anchor="middle" x="2139.7696" y="-401.1848" font-family="Times,serif" font-size="16.00" fill="#000000">78: 3C</text>
</g>
<!-- N83 -->
<g id="node84" class="node">
<title>N83</title>
<ellipse fill="none" stroke="#000000" cx="2139.7696" cy="-284.132" rx="41.0244" ry="18.2703"/>
<text text-anchor="middle" x="2139.7696" y="-280.332" font-family="Times,serif" font-size="16.00" fill="#000000">83: 96</text>
</g>
<!-- N78&#45;&gt;N83 -->
<g id="edge61" class="edge">
<title>N78&#45;&gt;N83</title>
<path fill="none" stroke="#000000" d="M2139.7696,-362.3767C2139.7696,-345.9713 2139.7696,-327.6416 2139.7696,-312.8492"/>
<polygon fill="#000000" stroke="#000000" points="2143.2697,-312.7814 2139.7696,-302.7814 2136.2697,-312.7814 2143.2697,-312.7814"/>
</g>
<!-- N84 -->
<g id="node85" class="node">
<title>N84</title>
<ellipse fill="none" stroke="#000000" cx="2038.7696" cy="-284.132" rx="41.9398" ry="18.2703"/>
<text text-anchor="middle" x="2038.7696" y="-280.332" font-family="Times,serif" font-size="16.00" fill="#000000">84: 0F</text>
</g>
<!-- N79&#45;&gt;N84 -->
<g id="edge62" class="edge">
<title>N79&#45;&gt;N84</title>
<path fill="none" stroke="#000000" d="M2038.7696,-386.3664C2038.7696,-366.7038 2038.7696,-335.4568 2038.7696,-312.6786"/>
<polygon fill="#000000" stroke="#000000" points="2042.2697,-312.5732 2038.7696,-302.5733 2035.2697,-312.5733 2042.2697,-312.5732"/>
</g>
<!-- N85 -->
<g id="node86" class="node">
<title>N85</title>
<path fill="none" stroke="#000000" d="M1954.7696,-302.132C1954.7696,-302.132 1920.7696,-302.132 1920.7696,-302.132 1914.7696,-302.132 1908.7696,-296.132 1908.7696,-290.132 1908.7696,-290.132 1908.7696,-278.132 1908.7696,-278.132 1908.7696,-272.132 1914.7696,-266.132 1920.7696,-266.132 1920.7696,-266.132 1954.7696,-266.132 1954.7696,-266.132 1960.7696,-266.132 1966.7696,-272.132 1966.7696,-278.132 1966.7696,-278.132 1966.7696,-290.132 1966.7696,-290.132 1966.7696,-296.132 1960.7696,-302.132 1954.7696,-302.132"/>
<text text-anchor="middle" x="1937.7696" y="-280.332" font-family="Times,serif" font-size="16.00" fill="#000000">85: 48</text>
</g>
<!-- N80&#45;&gt;N85 -->
<g id="edge63" class="edge">
<title>N80&#45;&gt;N85</title>
<path fill="none" stroke="#000000" d="M1937.7696,-386.3664C1937.7696,-366.5894 1937.7696,-335.0931 1937.7696,-312.2822"/>
<polygon fill="#000000" stroke="#000000" points="1941.2697,-312.179 1937.7696,-302.179 1934.2697,-312.179 1941.2697,-312.179"/>
</g>
<!-- N82 -->
<g id="node83" class="node">
<title>N82</title>
<ellipse fill="none" stroke="#000000" cx="2240.7696" cy="-284.132" rx="42.3529" ry="42.3529"/>
<text text-anchor="middle" x="2240.7696" y="-280.332" font-family="Times,serif" font-size="16.00" fill="#000000">82: 3C</text>
</g>
<!-- N87 -->
<g id="node88" class="node">
<title>N87</title>
<ellipse fill="none" stroke="#000000" cx="2240.7696" cy="-163.2792" rx="41.0244" ry="18.2703"/>
<text text-anchor="middle" x="2240.7696" y="-159.4792" font-family="Times,serif" font-size="16.00" fill="#000000">87: 96</text>
</g>
<!-- N82&#45;&gt;N87 -->
<g id="edge64" class="edge">
<title>N82&#45;&gt;N87</title>
<path fill="none" stroke="#000000" d="M2240.7696,-241.5239C2240.7696,-225.1185 2240.7696,-206.7888 2240.7696,-191.9964"/>
<polygon fill="#000000" stroke="#000000" points="2244.2697,-191.9286 2240.7696,-181.9286 2237.2697,-191.9286 2244.2697,-191.9286"/>
</g>
<!-- N88 -->
<g id="node89" class="node">
<title>N88</title>
<ellipse fill="none" stroke="#000000" cx="2139.7696" cy="-163.2792" rx="41.9398" ry="18.2703"/>
<text text-anchor="middle" x="2139.7696" y="-159.4792" font-family="Times,serif" font-size="16.00" fill="#000000">88: 0F</text>
</g>
<!-- N83&#45;&gt;N88 -->
<g id="edge65" class="edge">
<title>N83&#45;&gt;N88</title>
<path fill="none" stroke="#000000" d="M2139.7696,-265.5136C2139.7696,-245.8509 2139.7696,-214.604 2139.7696,-191.8258"/>
<polygon fill="#000000" stroke="#000000" points="2143.2697,-191.7204 2139.7696,-181.7205 2136.2697,-191.7205 2143.2697,-191.7204"/>
</g>
<!-- N89 -->
<g id="node90" class="node">
<title>N89</title>
<path fill="none" stroke="#000000" d="M2055.7696,-181.2792C2055.7696,-181.2792 2021.7696,-181.2792 2021.7696,-181.2792 2015.7696,-181.2792 2009.7696,-175.2792 2009.7696,-169.2792 2009.7696,-169.2792 2009.7696,-157.2792 2009.7696,-157.2792 2009.7696,-151.2792 2015.7696,-145.2792 2021.7696,-145.2792 2021.7696,-145.2792 2055.7696,-145.2792 2055.7696,-145.2792 2061.7696,-145.2792 2067.7696,-151.2792 2067.7696,-157.2792 2067.7696,-157.2792 2067.7696,-169.2792 2067.7696,-169.2792 2067.7696,-175.2792 2061.7696,-181.2792 2055.7696,-181.2792"/>
<text text-anchor="middle" x="2038.7696" y="-159.4792" font-family="Times,serif" font-size="16.00" fill="#000000">89: 48</text>
</g>
<!-- N84&#45;&gt;N89 -->
<g id="edge66" class="edge">
<title>N84&#45;&gt;N89</title>
<path fill="none" stroke="#000000" d="M2038.7696,-265.5136C2038.7696,-245.7366 2038.7696,-214.2402 2038.7696,-191.4294"/>
<polygon fill="#000000" stroke="#000000" points="2042.2697,-191.3262 2038.7696,-181.3262 2035.2697,-191.3262 2042.2697,-191.3262"/>
</g>
<!-- N86 -->
<g id="node87" class="node">
<title>N86</title>
<ellipse fill="none" stroke="#000000" cx="2341.7696" cy="-163.2792" rx="42.3529" ry="42.3529"/>
<text text-anchor="middle" x="2341.7696" y="-159.4792" font-family="Times,serif" font-size="16.00" fill="#000000">86: 3C</text>
</g>
<!-- N91 -->
<g id="node92" class="node">
<title>N91</title>
<path fill="none" stroke="#000000" d="M2358.7696,-60.4264C2358.7696,-60.4264 2324.7696,-60.4264 2324.7696,-60.4264 2318.7696,-60.4264 2312.7696,-54.4264 2312.7696,-48.4264 2312.7696,-48.4264 2312.7696,-36.4264 2312.7696,-36.4264 2312.7696,-30.4264 2318.7696,-24.4264 2324.7696,-24.4264 2324.7696,-24.4264 2358.7696,-24.4264 2358.7696,-24.4264 2364.7696,-24.4264 2370.7696,-30.4264 2370.7696,-36.4264 2370.7696,-36.4264 2370.7696,-48.4264 2370.7696,-48.4264 2370.7696,-54.4264 2364.7696,-60.4264 2358.7696,-60.4264"/>
<text text-anchor="middle" x="2341.7696" y="-38.6264" font-family="Times,serif" font-size="16.00" fill="#000000">91: 96</text>
</g>
<!-- N86&#45;&gt;N91 -->
<g id="edge67" class="edge">
<title>N86&#45;&gt;N91</title>
<path fill="none" stroke="#000000" d="M2341.7696,-120.671C2341.7696,-104.0469 2341.7696,-85.4468 2341.7696,-70.5538"/>
<polygon fill="#000000" stroke="#000000" points="2345.2697,-70.4458 2341.7696,-60.4458 2338.2697,-70.4459 2345.2697,-70.4458"/>
</g>
<!-- N92 -->
<g id="node93" class="node">
<title>N92</title>
<path fill="none" stroke="#000000" d="M2258.2696,-60.4264C2258.2696,-60.4264 2223.2696,-60.4264 2223.2696,-60.4264 2217.2696,-60.4264 2211.2696,-54.4264 2211.2696,-48.4264 2211.2696,-48.4264 2211.2696,-36.4264 2211.2696,-36.4264 2211.2696,-30.4264 2217.2696,-24.4264 2223.2696,-24.4264 2223.2696,-24.4264 2258.2696,-24.4264 2258.2696,-24.4264 2264.2696,-24.4264 2270.2696,-30.4264 2270.2696,-36.4264 2270.2696,-36.4264 2270.2696,-48.4264 2270.2696,-48.4264 2270.2696,-54.4264 2264.2696,-60.4264 2258.2696,-60.4264"/>
<text text-anchor="middle" x="2240.7696" y="-38.6264" font-family="Times,serif" font-size="16.00" fill="#000000">92: 0F</text>
</g>
<!-- N87&#45;&gt;N92 -->
<g id="edge68" class="edge">
<title>N87&#45;&gt;N92</title>
<path fill="none" stroke="#000000" d="M2240.7696,-144.6608C2240.7696,-124.8838 2240.7696,-93.3874 2240.7696,-70.5765"/>
<polygon fill="#000000" stroke="#000000" points="2244.2697,-70.4733 2240.7696,-60.4734 2237.2697,-70.4734 2244.2697,-70.4733"/>
</g>
<!-- N93 -->
<g id="node94" class="node">
<title>N93</title>
<path fill="none" stroke="#000000" d="M2156.7696,-60.4264C2156.7696,-60.4264 2122.7696,-60.4264 2122.7696,-60.4264 2116.7696,-60.4264 2110.7696,-54.4264 2110.7696,-48.4264 2110.7696,-48.4264 2110.7696,-36.4264 2110.7696,-36.4264 2110.7696,-30.4264 2116.7696,-24.4264 2122.7696,-24.4264 2122.7696,-24.4264 2156.7696,-24.4264 2156.7696,-24.4264 2162.7696,-24.4264 2168.7696,-30.4264 2168.7696,-36.4264 2168.7696,-36.4264 2168.7696,-48.4264 2168.7696,-48.4264 2168.7696,-54.4264 2162.7696,-60.4264 2156.7696,-60.4264"/>
<text text-anchor="middle" x="2139.7696" y="-38.6264" font-family="Times,serif" font-size="16.00" fill="#000000">93: 48</text>
</g>
<!-- N88&#45;&gt;N93 -->
<g id="edge69" class="edge">
<title>N88&#45;&gt;N93</title>
<path fill="none" stroke="#000000" d="M2139.7696,-144.6608C2139.7696,-124.8838 2139.7696,-93.3874 2139.7696,-70.5765"/>
<polygon fill="#000000" stroke="#000000" points="2143.2697,-70.4733 2139.7696,-60.4734 2136.2697,-70.4734 2143.2697,-70.4733"/>
</g>
<!-- N90 -->
<g id="node91" class="node">
<title>N90</title>
<ellipse fill="none" stroke="#000000" cx="2430.7696" cy="-42.4264" rx="42.3529" ry="42.3529"/>
<text text-anchor="middle" x="2430.7696" y="-38.6264" font-family="Times,serif" font-size="16.00" fill="#000000">90: 3C</text>
</g>
</g>
</svg>
