<?xml version="1.0" encoding="UTF-8" standalone="no"?>
<!DOCTYPE svg PUBLIC "-//W3C//DTD SVG 1.1//EN"
 "http://www.w3.org/Graphics/SVG/1.1/DTD/svg11.dtd">
<!-- Generated by graphviz version 2.40.1 (20161225.0304)
 -->
<!-- Title: %3 Pages: 1 -->
<svg width="720pt" height="231pt"
 viewBox="0.00 0.00 720.00 231.05" xmlns="http://www.w3.org/2000/svg" xmlns:xlink="http://www.w3.org/1999/xlink">
<g id="graph0" class="graph" transform="scale(.1383 .1383) rotate(0) translate(4 1666.4003)">
<title>%3</title>
<polygon fill="#ffffff" stroke="transparent" points="-4,4 -4,-1666.4003 5201.3675,-1666.4003 5201.3675,4 -4,4"/>
<!-- N0 -->
<g id="node1" class="node">
<title>N0</title>
<ellipse fill="none" stroke="#000000" cx="39.3553" cy="-1623.0449" rx="35.2259" ry="35.2259"/>
<ellipse fill="none" stroke="#000000" cx="39.3553" cy="-1623.0449" rx="39.2112" ry="39.2112"/>
<text text-anchor="middle" x="39.3553" y="-1619.2449" font-family="Times,serif" font-size="16.00" fill="#000000">0: 37</text>
</g>
<!-- N3 -->
<g id="node4" class="node">
<title>N3</title>
<path fill="none" stroke="#000000" d="M54.3553,-1530.3343C54.3553,-1530.3343 24.3553,-1530.3343 24.3553,-1530.3343 18.3553,-1530.3343 12.3553,-1524.3343 12.3553,-1518.3343 12.3553,-1518.3343 12.3553,-1506.3343 12.3553,-1506.3343 12.3553,-1500.3343 18.3553,-1494.3343 24.3553,-1494.3343 24.3553,-1494.3343 54.3553,-1494.3343 54.3553,-1494.3343 60.3553,-1494.3343 66.3553,-1500.3343 66.3553,-1506.3343 66.3553,-1506.3343 66.3553,-1518.3343 66.3553,-1518.3343 66.3553,-1524.3343 60.3553,-1530.3343 54.3553,-1530.3343"/>
<text text-anchor="middle" x="39.3553" y="-1508.5343" font-family="Times,serif" font-size="16.00" fill="#000000">3: 4F</text>
</g>
<!-- N0&#45;&gt;N3 -->
<g id="edge1" class="edge">
<title>N0&#45;&gt;N3</title>
<path fill="none" stroke="#000000" d="M39.3553,-1583.3886C39.3553,-1569.2344 39.3553,-1553.5875 39.3553,-1540.5879"/>
<polygon fill="#000000" stroke="#000000" points="42.8554,-1540.3817 39.3553,-1530.3818 35.8554,-1540.3818 42.8554,-1540.3817"/>
</g>
<!-- N1 -->
<g id="node2" class="node">
<title>N1</title>
<ellipse fill="none" stroke="#000000" cx="119.3553" cy="-1512.3343" rx="35.2113" ry="35.2113"/>
<text text-anchor="middle" x="119.3553" y="-1508.5343" font-family="Times,serif" font-size="16.00" fill="#000000">1: 37</text>
</g>
<!-- N6 -->
<g id="node7" class="node">
<title>N6</title>
<path fill="none" stroke="#000000" d="M134.3553,-1423.6236C134.3553,-1423.6236 104.3553,-1423.6236 104.3553,-1423.6236 98.3553,-1423.6236 92.3553,-1417.6236 92.3553,-1411.6236 92.3553,-1411.6236 92.3553,-1399.6236 92.3553,-1399.6236 92.3553,-1393.6236 98.3553,-1387.6236 104.3553,-1387.6236 104.3553,-1387.6236 134.3553,-1387.6236 134.3553,-1387.6236 140.3553,-1387.6236 146.3553,-1393.6236 146.3553,-1399.6236 146.3553,-1399.6236 146.3553,-1411.6236 146.3553,-1411.6236 146.3553,-1417.6236 140.3553,-1423.6236 134.3553,-1423.6236"/>
<text text-anchor="middle" x="119.3553" y="-1401.8236" font-family="Times,serif" font-size="16.00" fill="#000000">6: 4F</text>
</g>
<!-- N1&#45;&gt;N6 -->
<g id="edge2" class="edge">
<title>N1&#45;&gt;N6</title>
<path fill="none" stroke="#000000" d="M119.3553,-1476.8012C119.3553,-1462.8754 119.3553,-1447.1196 119.3553,-1433.9783"/>
<polygon fill="#000000" stroke="#000000" points="122.8554,-1433.652 119.3553,-1423.652 115.8554,-1433.6521 122.8554,-1433.652"/>
</g>
<!-- N2 -->
<g id="node3" class="node">
<title>N2</title>
<ellipse fill="none" stroke="#000000" cx="208.3553" cy="-1512.3343" rx="35.2113" ry="35.2113"/>
<text text-anchor="middle" x="208.3553" y="-1508.5343" font-family="Times,serif" font-size="16.00" fill="#000000">2: 37</text>
</g>
<!-- N9 -->
<g id="node10" class="node">
<title>N9</title>
<path fill="none" stroke="#000000" d="M223.3553,-1423.6236C223.3553,-1423.6236 193.3553,-1423.6236 193.3553,-1423.6236 187.3553,-1423.6236 181.3553,-1417.6236 181.3553,-1411.6236 181.3553,-1411.6236 181.3553,-1399.6236 181.3553,-1399.6236 181.3553,-1393.6236 187.3553,-1387.6236 193.3553,-1387.6236 193.3553,-1387.6236 223.3553,-1387.6236 223.3553,-1387.6236 229.3553,-1387.6236 235.3553,-1393.6236 235.3553,-1399.6236 235.3553,-1399.6236 235.3553,-1411.6236 235.3553,-1411.6236 235.3553,-1417.6236 229.3553,-1423.6236 223.3553,-1423.6236"/>
<text text-anchor="middle" x="208.3553" y="-1401.8236" font-family="Times,serif" font-size="16.00" fill="#000000">9: 4F</text>
</g>
<!-- N2&#45;&gt;N9 -->
<g id="edge3" class="edge">
<title>N2&#45;&gt;N9</title>
<path fill="none" stroke="#000000" d="M208.3553,-1476.8012C208.3553,-1462.8754 208.3553,-1447.1196 208.3553,-1433.9783"/>
<polygon fill="#000000" stroke="#000000" points="211.8554,-1433.652 208.3553,-1423.652 204.8554,-1433.6521 211.8554,-1433.652"/>
</g>
<!-- N4 -->
<g id="node5" class="node">
<title>N4</title>
<ellipse fill="none" stroke="#000000" cx="288.3553" cy="-1405.6236" rx="35.2113" ry="35.2113"/>
<text text-anchor="middle" x="288.3553" y="-1401.8236" font-family="Times,serif" font-size="16.00" fill="#000000">4: 37</text>
</g>
<!-- N12 -->
<g id="node13" class="node">
<title>N12</title>
<path fill="none" stroke="#000000" d="M305.8553,-1311.2561C305.8553,-1311.2561 270.8553,-1311.2561 270.8553,-1311.2561 264.8553,-1311.2561 258.8553,-1305.2561 258.8553,-1299.2561 258.8553,-1299.2561 258.8553,-1287.2561 258.8553,-1287.2561 258.8553,-1281.2561 264.8553,-1275.2561 270.8553,-1275.2561 270.8553,-1275.2561 305.8553,-1275.2561 305.8553,-1275.2561 311.8553,-1275.2561 317.8553,-1281.2561 317.8553,-1287.2561 317.8553,-1287.2561 317.8553,-1299.2561 317.8553,-1299.2561 317.8553,-1305.2561 311.8553,-1311.2561 305.8553,-1311.2561"/>
<text text-anchor="middle" x="288.3553" y="-1289.4561" font-family="Times,serif" font-size="16.00" fill="#000000">12: 4F</text>
</g>
<!-- N4&#45;&gt;N12 -->
<g id="edge4" class="edge">
<title>N4&#45;&gt;N12</title>
<path fill="none" stroke="#000000" d="M288.3553,-1370.0698C288.3553,-1354.3411 288.3553,-1336.1074 288.3553,-1321.3529"/>
<polygon fill="#000000" stroke="#000000" points="291.8554,-1321.3098 288.3553,-1311.3098 284.8554,-1321.3099 291.8554,-1321.3098"/>
</g>
<!-- N5 -->
<g id="node6" class="node">
<title>N5</title>
<ellipse fill="none" stroke="#000000" cx="377.3553" cy="-1405.6236" rx="35.2113" ry="35.2113"/>
<text text-anchor="middle" x="377.3553" y="-1401.8236" font-family="Times,serif" font-size="16.00" fill="#000000">5: 37</text>
</g>
<!-- N15 -->
<g id="node16" class="node">
<title>N15</title>
<path fill="none" stroke="#000000" d="M394.8553,-1311.2561C394.8553,-1311.2561 359.8553,-1311.2561 359.8553,-1311.2561 353.8553,-1311.2561 347.8553,-1305.2561 347.8553,-1299.2561 347.8553,-1299.2561 347.8553,-1287.2561 347.8553,-1287.2561 347.8553,-1281.2561 353.8553,-1275.2561 359.8553,-1275.2561 359.8553,-1275.2561 394.8553,-1275.2561 394.8553,-1275.2561 400.8553,-1275.2561 406.8553,-1281.2561 406.8553,-1287.2561 406.8553,-1287.2561 406.8553,-1299.2561 406.8553,-1299.2561 406.8553,-1305.2561 400.8553,-1311.2561 394.8553,-1311.2561"/>
<text text-anchor="middle" x="377.3553" y="-1289.4561" font-family="Times,serif" font-size="16.00" fill="#000000">15: 4F</text>
</g>
<!-- N5&#45;&gt;N15 -->
<g id="edge5" class="edge">
<title>N5&#45;&gt;N15</title>
<path fill="none" stroke="#000000" d="M377.3553,-1370.0698C377.3553,-1354.3411 377.3553,-1336.1074 377.3553,-1321.3529"/>
<polygon fill="#000000" stroke="#000000" points="380.8554,-1321.3098 377.3553,-1311.3098 373.8554,-1321.3099 380.8554,-1321.3098"/>
</g>
<!-- N7 -->
<g id="node8" class="node">
<title>N7</title>
<ellipse fill="none" stroke="#000000" cx="466.3553" cy="-1405.6236" rx="35.2113" ry="35.2113"/>
<text text-anchor="middle" x="466.3553" y="-1401.8236" font-family="Times,serif" font-size="16.00" fill="#000000">7: 37</text>
</g>
<!-- N17 -->
<g id="node18" class="node">
<title>N17</title>
<ellipse fill="none" stroke="#000000" cx="510.3553" cy="-1293.2561" rx="41.0244" ry="18.2703"/>
<text text-anchor="middle" x="510.3553" y="-1289.4561" font-family="Times,serif" font-size="16.00" fill="#000000">17: 13</text>
</g>
<!-- N7&#45;&gt;N17 -->
<g id="edge6" class="edge">
<title>N7&#45;&gt;N17</title>
<path fill="none" stroke="#000000" d="M479.3188,-1372.5174C485.7235,-1356.161 493.3649,-1336.6463 499.4629,-1321.0733"/>
<polygon fill="#000000" stroke="#000000" points="502.8315,-1322.0694 503.2187,-1311.4816 496.3134,-1319.5171 502.8315,-1322.0694"/>
</g>
<!-- N8 -->
<g id="node9" class="node">
<title>N8</title>
<ellipse fill="none" stroke="#000000" cx="555.3553" cy="-1405.6236" rx="35.2113" ry="35.2113"/>
<text text-anchor="middle" x="555.3553" y="-1401.8236" font-family="Times,serif" font-size="16.00" fill="#000000">8: 37</text>
</g>
<!-- N8&#45;&gt;N17 -->
<g id="edge7" class="edge">
<title>N8&#45;&gt;N17</title>
<path fill="none" stroke="#000000" d="M542.0972,-1372.5174C535.547,-1356.161 527.7319,-1336.6463 521.4954,-1321.0733"/>
<polygon fill="#000000" stroke="#000000" points="524.6211,-1319.4637 517.6542,-1311.4816 518.1228,-1322.0661 524.6211,-1319.4637"/>
</g>
<!-- N10 -->
<g id="node11" class="node">
<title>N10</title>
<ellipse fill="none" stroke="#000000" cx="910.3553" cy="-1293.2561" rx="41.0244" ry="41.0244"/>
<text text-anchor="middle" x="910.3553" y="-1289.4561" font-family="Times,serif" font-size="16.00" fill="#000000">10: 37</text>
</g>
<!-- N20 -->
<g id="node21" class="node">
<title>N20</title>
<path fill="none" stroke="#000000" d="M927.8553,-1193.2317C927.8553,-1193.2317 892.8553,-1193.2317 892.8553,-1193.2317 886.8553,-1193.2317 880.8553,-1187.2317 880.8553,-1181.2317 880.8553,-1181.2317 880.8553,-1169.2317 880.8553,-1169.2317 880.8553,-1163.2317 886.8553,-1157.2317 892.8553,-1157.2317 892.8553,-1157.2317 927.8553,-1157.2317 927.8553,-1157.2317 933.8553,-1157.2317 939.8553,-1163.2317 939.8553,-1169.2317 939.8553,-1169.2317 939.8553,-1181.2317 939.8553,-1181.2317 939.8553,-1187.2317 933.8553,-1193.2317 927.8553,-1193.2317"/>
<text text-anchor="middle" x="910.3553" y="-1171.4317" font-family="Times,serif" font-size="16.00" fill="#000000">20: 4F</text>
</g>
<!-- N10&#45;&gt;N20 -->
<g id="edge8" class="edge">
<title>N10&#45;&gt;N20</title>
<path fill="none" stroke="#000000" d="M910.3553,-1251.9769C910.3553,-1235.9794 910.3553,-1218.0653 910.3553,-1203.5706"/>
<polygon fill="#000000" stroke="#000000" points="913.8554,-1203.2413 910.3553,-1193.2413 906.8554,-1203.2413 913.8554,-1203.2413"/>
</g>
<!-- N11 -->
<g id="node12" class="node">
<title>N11</title>
<ellipse fill="none" stroke="#000000" cx="1010.3553" cy="-1293.2561" rx="41.0244" ry="41.0244"/>
<text text-anchor="middle" x="1010.3553" y="-1289.4561" font-family="Times,serif" font-size="16.00" fill="#000000">11: 37</text>
</g>
<!-- N23 -->
<g id="node24" class="node">
<title>N23</title>
<path fill="none" stroke="#000000" d="M1027.8553,-1193.2317C1027.8553,-1193.2317 992.8553,-1193.2317 992.8553,-1193.2317 986.8553,-1193.2317 980.8553,-1187.2317 980.8553,-1181.2317 980.8553,-1181.2317 980.8553,-1169.2317 980.8553,-1169.2317 980.8553,-1163.2317 986.8553,-1157.2317 992.8553,-1157.2317 992.8553,-1157.2317 1027.8553,-1157.2317 1027.8553,-1157.2317 1033.8553,-1157.2317 1039.8553,-1163.2317 1039.8553,-1169.2317 1039.8553,-1169.2317 1039.8553,-1181.2317 1039.8553,-1181.2317 1039.8553,-1187.2317 1033.8553,-1193.2317 1027.8553,-1193.2317"/>
<text text-anchor="middle" x="1010.3553" y="-1171.4317" font-family="Times,serif" font-size="16.00" fill="#000000">23: 4F</text>
</g>
<!-- N11&#45;&gt;N23 -->
<g id="edge9" class="edge">
<title>N11&#45;&gt;N23</title>
<path fill="none" stroke="#000000" d="M1010.3553,-1251.9769C1010.3553,-1235.9794 1010.3553,-1218.0653 1010.3553,-1203.5706"/>
<polygon fill="#000000" stroke="#000000" points="1013.8554,-1203.2413 1010.3553,-1193.2413 1006.8554,-1203.2413 1013.8554,-1203.2413"/>
</g>
<!-- N13 -->
<g id="node14" class="node">
<title>N13</title>
<ellipse fill="none" stroke="#000000" cx="610.3553" cy="-1293.2561" rx="41.0244" ry="41.0244"/>
<text text-anchor="middle" x="610.3553" y="-1289.4561" font-family="Times,serif" font-size="16.00" fill="#000000">13: 37</text>
</g>
<!-- N25 -->
<g id="node26" class="node">
<title>N25</title>
<path fill="none" stroke="#000000" d="M677.3553,-1193.2317C677.3553,-1193.2317 643.3553,-1193.2317 643.3553,-1193.2317 637.3553,-1193.2317 631.3553,-1187.2317 631.3553,-1181.2317 631.3553,-1181.2317 631.3553,-1169.2317 631.3553,-1169.2317 631.3553,-1163.2317 637.3553,-1157.2317 643.3553,-1157.2317 643.3553,-1157.2317 677.3553,-1157.2317 677.3553,-1157.2317 683.3553,-1157.2317 689.3553,-1163.2317 689.3553,-1169.2317 689.3553,-1169.2317 689.3553,-1181.2317 689.3553,-1181.2317 689.3553,-1187.2317 683.3553,-1193.2317 677.3553,-1193.2317"/>
<text text-anchor="middle" x="660.3553" y="-1171.4317" font-family="Times,serif" font-size="16.00" fill="#000000">25: 61</text>
</g>
<!-- N13&#45;&gt;N25 -->
<g id="edge10" class="edge">
<title>N13&#45;&gt;N25</title>
<path fill="none" stroke="#000000" d="M626.4509,-1255.2627C633.6637,-1238.2369 642.0141,-1218.526 648.6229,-1202.926"/>
<polygon fill="#000000" stroke="#000000" points="652.0067,-1203.9109 652.6848,-1193.3378 645.5612,-1201.1803 652.0067,-1203.9109"/>
</g>
<!-- N14 -->
<g id="node15" class="node">
<title>N14</title>
<ellipse fill="none" stroke="#000000" cx="710.3553" cy="-1293.2561" rx="41.0244" ry="41.0244"/>
<text text-anchor="middle" x="710.3553" y="-1289.4561" font-family="Times,serif" font-size="16.00" fill="#000000">14: 37</text>
</g>
<!-- N14&#45;&gt;N25 -->
<g id="edge11" class="edge">
<title>N14&#45;&gt;N25</title>
<path fill="none" stroke="#000000" d="M694.2598,-1255.2627C687.047,-1238.2369 678.6966,-1218.526 672.0878,-1202.926"/>
<polygon fill="#000000" stroke="#000000" points="675.1494,-1201.1803 668.0258,-1193.3378 668.704,-1203.9109 675.1494,-1201.1803"/>
</g>
<!-- N16 -->
<g id="node17" class="node">
<title>N16</title>
<ellipse fill="none" stroke="#000000" cx="810.3553" cy="-1293.2561" rx="41.0244" ry="41.0244"/>
<text text-anchor="middle" x="810.3553" y="-1289.4561" font-family="Times,serif" font-size="16.00" fill="#000000">16: 37</text>
</g>
<!-- N16&#45;&gt;N25 -->
<g id="edge12" class="edge">
<title>N16&#45;&gt;N25</title>
<path fill="none" stroke="#000000" d="M778.734,-1267.0736C772.661,-1262.1149 766.3318,-1256.9944 760.3553,-1252.2439 737.841,-1234.3477 712.127,-1214.559 692.4123,-1199.5224"/>
<polygon fill="#000000" stroke="#000000" points="694.4336,-1196.6623 684.3572,-1193.3884 690.1927,-1202.2315 694.4336,-1196.6623"/>
</g>
<!-- N17&#45;&gt;N25 -->
<g id="edge13" class="edge">
<title>N17&#45;&gt;N25</title>
<path fill="none" stroke="#000000" d="M530.1924,-1276.7502C539.325,-1269.2119 550.336,-1260.208 560.3553,-1252.2439 582.8697,-1234.3477 608.5837,-1214.559 628.2984,-1199.5224"/>
<polygon fill="#000000" stroke="#000000" points="630.518,-1202.2315 636.3534,-1193.3884 626.2771,-1196.6623 630.518,-1202.2315"/>
</g>
<!-- N18 -->
<g id="node19" class="node">
<title>N18</title>
<ellipse fill="none" stroke="#000000" cx="1099.3553" cy="-1175.2317" rx="41.0244" ry="41.0244"/>
<text text-anchor="middle" x="1099.3553" y="-1171.4317" font-family="Times,serif" font-size="16.00" fill="#000000">18: 37</text>
</g>
<!-- N28 -->
<g id="node29" class="node">
<title>N28</title>
<path fill="none" stroke="#000000" d="M1116.8553,-1075.2073C1116.8553,-1075.2073 1081.8553,-1075.2073 1081.8553,-1075.2073 1075.8553,-1075.2073 1069.8553,-1069.2073 1069.8553,-1063.2073 1069.8553,-1063.2073 1069.8553,-1051.2073 1069.8553,-1051.2073 1069.8553,-1045.2073 1075.8553,-1039.2073 1081.8553,-1039.2073 1081.8553,-1039.2073 1116.8553,-1039.2073 1116.8553,-1039.2073 1122.8553,-1039.2073 1128.8553,-1045.2073 1128.8553,-1051.2073 1128.8553,-1051.2073 1128.8553,-1063.2073 1128.8553,-1063.2073 1128.8553,-1069.2073 1122.8553,-1075.2073 1116.8553,-1075.2073"/>
<text text-anchor="middle" x="1099.3553" y="-1053.4073" font-family="Times,serif" font-size="16.00" fill="#000000">28: 4F</text>
</g>
<!-- N18&#45;&gt;N28 -->
<g id="edge14" class="edge">
<title>N18&#45;&gt;N28</title>
<path fill="none" stroke="#000000" d="M1099.3553,-1133.9525C1099.3553,-1117.955 1099.3553,-1100.0409 1099.3553,-1085.5462"/>
<polygon fill="#000000" stroke="#000000" points="1102.8554,-1085.2169 1099.3553,-1075.2169 1095.8554,-1085.217 1102.8554,-1085.2169"/>
</g>
<!-- N19 -->
<g id="node20" class="node">
<title>N19</title>
<ellipse fill="none" stroke="#000000" cx="1199.3553" cy="-1175.2317" rx="41.0244" ry="41.0244"/>
<text text-anchor="middle" x="1199.3553" y="-1171.4317" font-family="Times,serif" font-size="16.00" fill="#000000">19: 37</text>
</g>
<!-- N31 -->
<g id="node32" class="node">
<title>N31</title>
<path fill="none" stroke="#000000" d="M1216.8553,-1075.2073C1216.8553,-1075.2073 1181.8553,-1075.2073 1181.8553,-1075.2073 1175.8553,-1075.2073 1169.8553,-1069.2073 1169.8553,-1063.2073 1169.8553,-1063.2073 1169.8553,-1051.2073 1169.8553,-1051.2073 1169.8553,-1045.2073 1175.8553,-1039.2073 1181.8553,-1039.2073 1181.8553,-1039.2073 1216.8553,-1039.2073 1216.8553,-1039.2073 1222.8553,-1039.2073 1228.8553,-1045.2073 1228.8553,-1051.2073 1228.8553,-1051.2073 1228.8553,-1063.2073 1228.8553,-1063.2073 1228.8553,-1069.2073 1222.8553,-1075.2073 1216.8553,-1075.2073"/>
<text text-anchor="middle" x="1199.3553" y="-1053.4073" font-family="Times,serif" font-size="16.00" fill="#000000">31: 4F</text>
</g>
<!-- N19&#45;&gt;N31 -->
<g id="edge15" class="edge">
<title>N19&#45;&gt;N31</title>
<path fill="none" stroke="#000000" d="M1199.3553,-1133.9525C1199.3553,-1117.955 1199.3553,-1100.0409 1199.3553,-1085.5462"/>
<polygon fill="#000000" stroke="#000000" points="1202.8554,-1085.2169 1199.3553,-1075.2169 1195.8554,-1085.217 1202.8554,-1085.2169"/>
</g>
<!-- N21 -->
<g id="node22" class="node">
<title>N21</title>
<ellipse fill="none" stroke="#000000" cx="1299.3553" cy="-1175.2317" rx="41.0244" ry="41.0244"/>
<text text-anchor="middle" x="1299.3553" y="-1171.4317" font-family="Times,serif" font-size="16.00" fill="#000000">21: 37</text>
</g>
<!-- N33 -->
<g id="node34" class="node">
<title>N33</title>
<ellipse fill="none" stroke="#000000" cx="1399.3553" cy="-1057.2073" rx="41.0244" ry="18.2703"/>
<text text-anchor="middle" x="1399.3553" y="-1053.4073" font-family="Times,serif" font-size="16.00" fill="#000000">33: 40</text>
</g>
<!-- N21&#45;&gt;N33 -->
<g id="edge16" class="edge">
<title>N21&#45;&gt;N33</title>
<path fill="none" stroke="#000000" d="M1325.891,-1143.9132C1342.2488,-1124.6069 1362.94,-1100.1863 1378.192,-1082.1852"/>
<polygon fill="#000000" stroke="#000000" points="1380.9878,-1084.2997 1384.7819,-1074.4075 1375.647,-1079.7746 1380.9878,-1084.2997"/>
</g>
<!-- N22 -->
<g id="node23" class="node">
<title>N22</title>
<ellipse fill="none" stroke="#000000" cx="1399.3553" cy="-1175.2317" rx="41.0244" ry="41.0244"/>
<text text-anchor="middle" x="1399.3553" y="-1171.4317" font-family="Times,serif" font-size="16.00" fill="#000000">22: 37</text>
</g>
<!-- N22&#45;&gt;N33 -->
<g id="edge17" class="edge">
<title>N22&#45;&gt;N33</title>
<path fill="none" stroke="#000000" d="M1399.3553,-1133.9525C1399.3553,-1118.1669 1399.3553,-1100.5151 1399.3553,-1086.1239"/>
<polygon fill="#000000" stroke="#000000" points="1402.8554,-1085.8394 1399.3553,-1075.8394 1395.8554,-1085.8394 1402.8554,-1085.8394"/>
</g>
<!-- N24 -->
<g id="node25" class="node">
<title>N24</title>
<ellipse fill="none" stroke="#000000" cx="1499.3553" cy="-1175.2317" rx="41.0244" ry="41.0244"/>
<text text-anchor="middle" x="1499.3553" y="-1171.4317" font-family="Times,serif" font-size="16.00" fill="#000000">24: 37</text>
</g>
<!-- N24&#45;&gt;N33 -->
<g id="edge18" class="edge">
<title>N24&#45;&gt;N33</title>
<path fill="none" stroke="#000000" d="M1472.8197,-1143.9132C1456.4619,-1124.6069 1435.7707,-1100.1863 1420.5187,-1082.1852"/>
<polygon fill="#000000" stroke="#000000" points="1423.0636,-1079.7746 1413.9288,-1074.4075 1417.7229,-1084.2997 1423.0636,-1079.7746"/>
</g>
<!-- N26 -->
<g id="node27" class="node">
<title>N26</title>
<ellipse fill="none" stroke="#000000" cx="1940.3553" cy="-1057.2073" rx="41.0244" ry="41.0244"/>
<text text-anchor="middle" x="1940.3553" y="-1053.4073" font-family="Times,serif" font-size="16.00" fill="#000000">26: 37</text>
</g>
<!-- N36 -->
<g id="node37" class="node">
<title>N36</title>
<path fill="none" stroke="#000000" d="M1957.8553,-957.1829C1957.8553,-957.1829 1922.8553,-957.1829 1922.8553,-957.1829 1916.8553,-957.1829 1910.8553,-951.1829 1910.8553,-945.1829 1910.8553,-945.1829 1910.8553,-933.1829 1910.8553,-933.1829 1910.8553,-927.1829 1916.8553,-921.1829 1922.8553,-921.1829 1922.8553,-921.1829 1957.8553,-921.1829 1957.8553,-921.1829 1963.8553,-921.1829 1969.8553,-927.1829 1969.8553,-933.1829 1969.8553,-933.1829 1969.8553,-945.1829 1969.8553,-945.1829 1969.8553,-951.1829 1963.8553,-957.1829 1957.8553,-957.1829"/>
<text text-anchor="middle" x="1940.3553" y="-935.3829" font-family="Times,serif" font-size="16.00" fill="#000000">36: 4F</text>
</g>
<!-- N26&#45;&gt;N36 -->
<g id="edge19" class="edge">
<title>N26&#45;&gt;N36</title>
<path fill="none" stroke="#000000" d="M1940.3553,-1015.9281C1940.3553,-999.9306 1940.3553,-982.0165 1940.3553,-967.5218"/>
<polygon fill="#000000" stroke="#000000" points="1943.8554,-967.1925 1940.3553,-957.1925 1936.8554,-967.1926 1943.8554,-967.1925"/>
</g>
<!-- N27 -->
<g id="node28" class="node">
<title>N27</title>
<ellipse fill="none" stroke="#000000" cx="2040.3553" cy="-1057.2073" rx="41.0244" ry="41.0244"/>
<text text-anchor="middle" x="2040.3553" y="-1053.4073" font-family="Times,serif" font-size="16.00" fill="#000000">27: 37</text>
</g>
<!-- N39 -->
<g id="node40" class="node">
<title>N39</title>
<path fill="none" stroke="#000000" d="M2057.8553,-957.1829C2057.8553,-957.1829 2022.8553,-957.1829 2022.8553,-957.1829 2016.8553,-957.1829 2010.8553,-951.1829 2010.8553,-945.1829 2010.8553,-945.1829 2010.8553,-933.1829 2010.8553,-933.1829 2010.8553,-927.1829 2016.8553,-921.1829 2022.8553,-921.1829 2022.8553,-921.1829 2057.8553,-921.1829 2057.8553,-921.1829 2063.8553,-921.1829 2069.8553,-927.1829 2069.8553,-933.1829 2069.8553,-933.1829 2069.8553,-945.1829 2069.8553,-945.1829 2069.8553,-951.1829 2063.8553,-957.1829 2057.8553,-957.1829"/>
<text text-anchor="middle" x="2040.3553" y="-935.3829" font-family="Times,serif" font-size="16.00" fill="#000000">39: 4F</text>
</g>
<!-- N27&#45;&gt;N39 -->
<g id="edge20" class="edge">
<title>N27&#45;&gt;N39</title>
<path fill="none" stroke="#000000" d="M2040.3553,-1015.9281C2040.3553,-999.9306 2040.3553,-982.0165 2040.3553,-967.5218"/>
<polygon fill="#000000" stroke="#000000" points="2043.8554,-967.1925 2040.3553,-957.1925 2036.8554,-967.1926 2043.8554,-967.1925"/>
</g>
<!-- N29 -->
<g id="node30" class="node">
<title>N29</title>
<ellipse fill="none" stroke="#000000" cx="1499.3553" cy="-1057.2073" rx="41.0244" ry="41.0244"/>
<text text-anchor="middle" x="1499.3553" y="-1053.4073" font-family="Times,serif" font-size="16.00" fill="#000000">29: 37</text>
</g>
<!-- N41 -->
<g id="node42" class="node">
<title>N41</title>
<ellipse fill="none" stroke="#000000" cx="1549.3553" cy="-939.1829" rx="43.2674" ry="18.2703"/>
<text text-anchor="middle" x="1549.3553" y="-935.3829" font-family="Times,serif" font-size="16.00" fill="#000000">41: 3A</text>
</g>
<!-- N29&#45;&gt;N41 -->
<g id="edge21" class="edge">
<title>N29&#45;&gt;N41</title>
<path fill="none" stroke="#000000" d="M1515.4509,-1019.214C1522.6637,-1002.1882 1531.0141,-982.4773 1537.6229,-966.8773"/>
<polygon fill="#000000" stroke="#000000" points="1541.0067,-967.8621 1541.6848,-957.289 1534.5612,-965.1315 1541.0067,-967.8621"/>
</g>
<!-- N30 -->
<g id="node31" class="node">
<title>N30</title>
<ellipse fill="none" stroke="#000000" cx="1599.3553" cy="-1057.2073" rx="41.0244" ry="41.0244"/>
<text text-anchor="middle" x="1599.3553" y="-1053.4073" font-family="Times,serif" font-size="16.00" fill="#000000">30: 37</text>
</g>
<!-- N30&#45;&gt;N41 -->
<g id="edge22" class="edge">
<title>N30&#45;&gt;N41</title>
<path fill="none" stroke="#000000" d="M1583.2598,-1019.214C1576.047,-1002.1882 1567.6966,-982.4773 1561.0878,-966.8773"/>
<polygon fill="#000000" stroke="#000000" points="1564.1494,-965.1315 1557.0258,-957.289 1557.704,-967.8621 1564.1494,-965.1315"/>
</g>
<!-- N32 -->
<g id="node33" class="node">
<title>N32</title>
<ellipse fill="none" stroke="#000000" cx="1699.3553" cy="-1057.2073" rx="41.0244" ry="41.0244"/>
<text text-anchor="middle" x="1699.3553" y="-1053.4073" font-family="Times,serif" font-size="16.00" fill="#000000">32: 37</text>
</g>
<!-- N32&#45;&gt;N41 -->
<g id="edge23" class="edge">
<title>N32&#45;&gt;N41</title>
<path fill="none" stroke="#000000" d="M1667.7829,-1030.963C1661.7054,-1026.01 1655.3619,-1020.9074 1649.3553,-1016.1951 1628.3747,-999.7353 1622.4926,-996.4532 1601.3553,-980.1951 1593.7255,-974.3265 1585.5248,-967.9101 1577.9425,-961.932"/>
<polygon fill="#000000" stroke="#000000" points="1580.0292,-959.12 1570.014,-955.6636 1575.6879,-964.6112 1580.0292,-959.12"/>
</g>
<!-- N33&#45;&gt;N41 -->
<g id="edge24" class="edge">
<title>N33&#45;&gt;N41</title>
<path fill="none" stroke="#000000" d="M1419.1924,-1040.7015C1428.325,-1033.1631 1439.336,-1024.1592 1449.3553,-1016.1951 1472.9204,-997.4638 1499.9906,-976.6591 1520.0183,-961.4002"/>
<polygon fill="#000000" stroke="#000000" points="1522.2997,-964.0624 1528.1397,-955.2224 1518.0617,-958.4911 1522.2997,-964.0624"/>
</g>
<!-- N34 -->
<g id="node35" class="node">
<title>N34</title>
<ellipse fill="none" stroke="#000000" cx="2129.3553" cy="-939.1829" rx="41.0244" ry="41.0244"/>
<text text-anchor="middle" x="2129.3553" y="-935.3829" font-family="Times,serif" font-size="16.00" fill="#000000">34: 37</text>
</g>
<!-- N44 -->
<g id="node45" class="node">
<title>N44</title>
<path fill="none" stroke="#000000" d="M2146.8553,-839.1585C2146.8553,-839.1585 2111.8553,-839.1585 2111.8553,-839.1585 2105.8553,-839.1585 2099.8553,-833.1585 2099.8553,-827.1585 2099.8553,-827.1585 2099.8553,-815.1585 2099.8553,-815.1585 2099.8553,-809.1585 2105.8553,-803.1585 2111.8553,-803.1585 2111.8553,-803.1585 2146.8553,-803.1585 2146.8553,-803.1585 2152.8553,-803.1585 2158.8553,-809.1585 2158.8553,-815.1585 2158.8553,-815.1585 2158.8553,-827.1585 2158.8553,-827.1585 2158.8553,-833.1585 2152.8553,-839.1585 2146.8553,-839.1585"/>
<text text-anchor="middle" x="2129.3553" y="-817.3585" font-family="Times,serif" font-size="16.00" fill="#000000">44: 4F</text>
</g>
<!-- N34&#45;&gt;N44 -->
<g id="edge25" class="edge">
<title>N34&#45;&gt;N44</title>
<path fill="none" stroke="#000000" d="M2129.3553,-897.9037C2129.3553,-881.9063 2129.3553,-863.9921 2129.3553,-849.4974"/>
<polygon fill="#000000" stroke="#000000" points="2132.8554,-849.1681 2129.3553,-839.1682 2125.8554,-849.1682 2132.8554,-849.1681"/>
</g>
<!-- N35 -->
<g id="node36" class="node">
<title>N35</title>
<ellipse fill="none" stroke="#000000" cx="2229.3553" cy="-939.1829" rx="41.0244" ry="41.0244"/>
<text text-anchor="middle" x="2229.3553" y="-935.3829" font-family="Times,serif" font-size="16.00" fill="#000000">35: 37</text>
</g>
<!-- N47 -->
<g id="node48" class="node">
<title>N47</title>
<path fill="none" stroke="#000000" d="M2246.8553,-839.1585C2246.8553,-839.1585 2211.8553,-839.1585 2211.8553,-839.1585 2205.8553,-839.1585 2199.8553,-833.1585 2199.8553,-827.1585 2199.8553,-827.1585 2199.8553,-815.1585 2199.8553,-815.1585 2199.8553,-809.1585 2205.8553,-803.1585 2211.8553,-803.1585 2211.8553,-803.1585 2246.8553,-803.1585 2246.8553,-803.1585 2252.8553,-803.1585 2258.8553,-809.1585 2258.8553,-815.1585 2258.8553,-815.1585 2258.8553,-827.1585 2258.8553,-827.1585 2258.8553,-833.1585 2252.8553,-839.1585 2246.8553,-839.1585"/>
<text text-anchor="middle" x="2229.3553" y="-817.3585" font-family="Times,serif" font-size="16.00" fill="#000000">47: 4F</text>
</g>
<!-- N35&#45;&gt;N47 -->
<g id="edge26" class="edge">
<title>N35&#45;&gt;N47</title>
<path fill="none" stroke="#000000" d="M2229.3553,-897.9037C2229.3553,-881.9063 2229.3553,-863.9921 2229.3553,-849.4974"/>
<polygon fill="#000000" stroke="#000000" points="2232.8554,-849.1681 2229.3553,-839.1682 2225.8554,-849.1682 2232.8554,-849.1681"/>
</g>
<!-- N37 -->
<g id="node38" class="node">
<title>N37</title>
<ellipse fill="none" stroke="#000000" cx="1651.3553" cy="-939.1829" rx="41.0244" ry="41.0244"/>
<text text-anchor="middle" x="1651.3553" y="-935.3829" font-family="Times,serif" font-size="16.00" fill="#000000">37: 37</text>
</g>
<!-- N49 -->
<g id="node50" class="node">
<title>N49</title>
<path fill="none" stroke="#000000" d="M1718.8553,-839.1585C1718.8553,-839.1585 1683.8553,-839.1585 1683.8553,-839.1585 1677.8553,-839.1585 1671.8553,-833.1585 1671.8553,-827.1585 1671.8553,-827.1585 1671.8553,-815.1585 1671.8553,-815.1585 1671.8553,-809.1585 1677.8553,-803.1585 1683.8553,-803.1585 1683.8553,-803.1585 1718.8553,-803.1585 1718.8553,-803.1585 1724.8553,-803.1585 1730.8553,-809.1585 1730.8553,-815.1585 1730.8553,-815.1585 1730.8553,-827.1585 1730.8553,-827.1585 1730.8553,-833.1585 1724.8553,-839.1585 1718.8553,-839.1585"/>
<text text-anchor="middle" x="1701.3553" y="-817.3585" font-family="Times,serif" font-size="16.00" fill="#000000">49: F9</text>
</g>
<!-- N37&#45;&gt;N49 -->
<g id="edge27" class="edge">
<title>N37&#45;&gt;N49</title>
<path fill="none" stroke="#000000" d="M1667.4509,-901.1896C1674.6637,-884.1638 1683.0141,-864.4529 1689.6229,-848.8529"/>
<polygon fill="#000000" stroke="#000000" points="1693.0067,-849.8378 1693.6848,-839.2646 1686.5612,-847.1072 1693.0067,-849.8378"/>
</g>
<!-- N38 -->
<g id="node39" class="node">
<title>N38</title>
<ellipse fill="none" stroke="#000000" cx="1751.3553" cy="-939.1829" rx="41.0244" ry="41.0244"/>
<text text-anchor="middle" x="1751.3553" y="-935.3829" font-family="Times,serif" font-size="16.00" fill="#000000">38: 37</text>
</g>
<!-- N38&#45;&gt;N49 -->
<g id="edge28" class="edge">
<title>N38&#45;&gt;N49</title>
<path fill="none" stroke="#000000" d="M1735.2598,-901.1896C1728.047,-884.1638 1719.6966,-864.4529 1713.0878,-848.8529"/>
<polygon fill="#000000" stroke="#000000" points="1716.1494,-847.1072 1709.0258,-839.2646 1709.704,-849.8378 1716.1494,-847.1072"/>
</g>
<!-- N40 -->
<g id="node41" class="node">
<title>N40</title>
<ellipse fill="none" stroke="#000000" cx="1851.3553" cy="-939.1829" rx="41.0244" ry="41.0244"/>
<text text-anchor="middle" x="1851.3553" y="-935.3829" font-family="Times,serif" font-size="16.00" fill="#000000">40: 37</text>
</g>
<!-- N40&#45;&gt;N49 -->
<g id="edge29" class="edge">
<title>N40&#45;&gt;N49</title>
<path fill="none" stroke="#000000" d="M1819.734,-913.0004C1813.661,-908.0417 1807.3318,-902.9212 1801.3553,-898.1707 1778.841,-880.2746 1753.127,-860.4858 1733.4123,-845.4492"/>
<polygon fill="#000000" stroke="#000000" points="1735.4336,-842.5892 1725.3572,-839.3153 1731.1927,-848.1583 1735.4336,-842.5892"/>
</g>
<!-- N41&#45;&gt;N49 -->
<g id="edge30" class="edge">
<title>N41&#45;&gt;N49</title>
<path fill="none" stroke="#000000" d="M1570.0613,-922.7632C1579.5744,-915.2422 1591.0169,-906.2281 1601.3553,-898.1707 1624.04,-880.491 1649.7497,-860.6967 1669.4197,-845.6034"/>
<polygon fill="#000000" stroke="#000000" points="1671.6481,-848.3052 1677.4536,-839.4425 1667.3884,-842.7505 1671.6481,-848.3052"/>
</g>
<!-- N42 -->
<g id="node43" class="node">
<title>N42</title>
<ellipse fill="none" stroke="#000000" cx="2318.3553" cy="-821.1585" rx="41.0244" ry="41.0244"/>
<text text-anchor="middle" x="2318.3553" y="-817.3585" font-family="Times,serif" font-size="16.00" fill="#000000">42: 37</text>
</g>
<!-- N52 -->
<g id="node53" class="node">
<title>N52</title>
<path fill="none" stroke="#000000" d="M2335.8553,-721.1341C2335.8553,-721.1341 2300.8553,-721.1341 2300.8553,-721.1341 2294.8553,-721.1341 2288.8553,-715.1341 2288.8553,-709.1341 2288.8553,-709.1341 2288.8553,-697.1341 2288.8553,-697.1341 2288.8553,-691.1341 2294.8553,-685.1341 2300.8553,-685.1341 2300.8553,-685.1341 2335.8553,-685.1341 2335.8553,-685.1341 2341.8553,-685.1341 2347.8553,-691.1341 2347.8553,-697.1341 2347.8553,-697.1341 2347.8553,-709.1341 2347.8553,-709.1341 2347.8553,-715.1341 2341.8553,-721.1341 2335.8553,-721.1341"/>
<text text-anchor="middle" x="2318.3553" y="-699.3341" font-family="Times,serif" font-size="16.00" fill="#000000">52: 4F</text>
</g>
<!-- N42&#45;&gt;N52 -->
<g id="edge31" class="edge">
<title>N42&#45;&gt;N52</title>
<path fill="none" stroke="#000000" d="M2318.3553,-779.8793C2318.3553,-763.8819 2318.3553,-745.9677 2318.3553,-731.473"/>
<polygon fill="#000000" stroke="#000000" points="2321.8554,-731.1437 2318.3553,-721.1438 2314.8554,-731.1438 2321.8554,-731.1437"/>
</g>
<!-- N43 -->
<g id="node44" class="node">
<title>N43</title>
<ellipse fill="none" stroke="#000000" cx="2418.3553" cy="-821.1585" rx="41.0244" ry="41.0244"/>
<text text-anchor="middle" x="2418.3553" y="-817.3585" font-family="Times,serif" font-size="16.00" fill="#000000">43: 37</text>
</g>
<!-- N55 -->
<g id="node56" class="node">
<title>N55</title>
<path fill="none" stroke="#000000" d="M2435.8553,-721.1341C2435.8553,-721.1341 2400.8553,-721.1341 2400.8553,-721.1341 2394.8553,-721.1341 2388.8553,-715.1341 2388.8553,-709.1341 2388.8553,-709.1341 2388.8553,-697.1341 2388.8553,-697.1341 2388.8553,-691.1341 2394.8553,-685.1341 2400.8553,-685.1341 2400.8553,-685.1341 2435.8553,-685.1341 2435.8553,-685.1341 2441.8553,-685.1341 2447.8553,-691.1341 2447.8553,-697.1341 2447.8553,-697.1341 2447.8553,-709.1341 2447.8553,-709.1341 2447.8553,-715.1341 2441.8553,-721.1341 2435.8553,-721.1341"/>
<text text-anchor="middle" x="2418.3553" y="-699.3341" font-family="Times,serif" font-size="16.00" fill="#000000">55: 4F</text>
</g>
<!-- N43&#45;&gt;N55 -->
<g id="edge32" class="edge">
<title>N43&#45;&gt;N55</title>
<path fill="none" stroke="#000000" d="M2418.3553,-779.8793C2418.3553,-763.8819 2418.3553,-745.9677 2418.3553,-731.473"/>
<polygon fill="#000000" stroke="#000000" points="2421.8554,-731.1437 2418.3553,-721.1438 2414.8554,-731.1438 2421.8554,-731.1437"/>
</g>
<!-- N45 -->
<g id="node46" class="node">
<title>N45</title>
<ellipse fill="none" stroke="#000000" cx="2518.3553" cy="-821.1585" rx="41.0244" ry="41.0244"/>
<text text-anchor="middle" x="2518.3553" y="-817.3585" font-family="Times,serif" font-size="16.00" fill="#000000">45: 37</text>
</g>
<!-- N57 -->
<g id="node58" class="node">
<title>N57</title>
<ellipse fill="none" stroke="#000000" cx="2618.3553" cy="-703.1341" rx="41.0244" ry="18.2703"/>
<text text-anchor="middle" x="2618.3553" y="-699.3341" font-family="Times,serif" font-size="16.00" fill="#000000">57: 40</text>
</g>
<!-- N45&#45;&gt;N57 -->
<g id="edge33" class="edge">
<title>N45&#45;&gt;N57</title>
<path fill="none" stroke="#000000" d="M2544.891,-789.84C2561.2488,-770.5338 2581.94,-746.1131 2597.192,-728.112"/>
<polygon fill="#000000" stroke="#000000" points="2599.9878,-730.2266 2603.7819,-720.3344 2594.647,-725.7014 2599.9878,-730.2266"/>
</g>
<!-- N46 -->
<g id="node47" class="node">
<title>N46</title>
<ellipse fill="none" stroke="#000000" cx="2618.3553" cy="-821.1585" rx="41.0244" ry="41.0244"/>
<text text-anchor="middle" x="2618.3553" y="-817.3585" font-family="Times,serif" font-size="16.00" fill="#000000">46: 37</text>
</g>
<!-- N46&#45;&gt;N57 -->
<g id="edge34" class="edge">
<title>N46&#45;&gt;N57</title>
<path fill="none" stroke="#000000" d="M2618.3553,-779.8793C2618.3553,-764.0938 2618.3553,-746.4419 2618.3553,-732.0508"/>
<polygon fill="#000000" stroke="#000000" points="2621.8554,-731.7662 2618.3553,-721.7662 2614.8554,-731.7663 2621.8554,-731.7662"/>
</g>
<!-- N48 -->
<g id="node49" class="node">
<title>N48</title>
<ellipse fill="none" stroke="#000000" cx="2718.3553" cy="-821.1585" rx="41.0244" ry="41.0244"/>
<text text-anchor="middle" x="2718.3553" y="-817.3585" font-family="Times,serif" font-size="16.00" fill="#000000">48: 37</text>
</g>
<!-- N48&#45;&gt;N57 -->
<g id="edge35" class="edge">
<title>N48&#45;&gt;N57</title>
<path fill="none" stroke="#000000" d="M2691.8197,-789.84C2675.4619,-770.5338 2654.7707,-746.1131 2639.5187,-728.112"/>
<polygon fill="#000000" stroke="#000000" points="2642.0636,-725.7014 2632.9288,-720.3344 2636.7229,-730.2266 2642.0636,-725.7014"/>
</g>
<!-- N50 -->
<g id="node51" class="node">
<title>N50</title>
<ellipse fill="none" stroke="#000000" cx="3159.3553" cy="-703.1341" rx="41.0244" ry="41.0244"/>
<text text-anchor="middle" x="3159.3553" y="-699.3341" font-family="Times,serif" font-size="16.00" fill="#000000">50: 37</text>
</g>
<!-- N60 -->
<g id="node61" class="node">
<title>N60</title>
<path fill="none" stroke="#000000" d="M3176.8553,-603.1097C3176.8553,-603.1097 3141.8553,-603.1097 3141.8553,-603.1097 3135.8553,-603.1097 3129.8553,-597.1097 3129.8553,-591.1097 3129.8553,-591.1097 3129.8553,-579.1097 3129.8553,-579.1097 3129.8553,-573.1097 3135.8553,-567.1097 3141.8553,-567.1097 3141.8553,-567.1097 3176.8553,-567.1097 3176.8553,-567.1097 3182.8553,-567.1097 3188.8553,-573.1097 3188.8553,-579.1097 3188.8553,-579.1097 3188.8553,-591.1097 3188.8553,-591.1097 3188.8553,-597.1097 3182.8553,-603.1097 3176.8553,-603.1097"/>
<text text-anchor="middle" x="3159.3553" y="-581.3097" font-family="Times,serif" font-size="16.00" fill="#000000">60: 4F</text>
</g>
<!-- N50&#45;&gt;N60 -->
<g id="edge36" class="edge">
<title>N50&#45;&gt;N60</title>
<path fill="none" stroke="#000000" d="M3159.3553,-661.8549C3159.3553,-645.8575 3159.3553,-627.9433 3159.3553,-613.4486"/>
<polygon fill="#000000" stroke="#000000" points="3162.8554,-613.1193 3159.3553,-603.1194 3155.8554,-613.1194 3162.8554,-613.1193"/>
</g>
<!-- N51 -->
<g id="node52" class="node">
<title>N51</title>
<ellipse fill="none" stroke="#000000" cx="3259.3553" cy="-703.1341" rx="41.0244" ry="41.0244"/>
<text text-anchor="middle" x="3259.3553" y="-699.3341" font-family="Times,serif" font-size="16.00" fill="#000000">51: 37</text>
</g>
<!-- N63 -->
<g id="node64" class="node">
<title>N63</title>
<path fill="none" stroke="#000000" d="M3276.8553,-603.1097C3276.8553,-603.1097 3241.8553,-603.1097 3241.8553,-603.1097 3235.8553,-603.1097 3229.8553,-597.1097 3229.8553,-591.1097 3229.8553,-591.1097 3229.8553,-579.1097 3229.8553,-579.1097 3229.8553,-573.1097 3235.8553,-567.1097 3241.8553,-567.1097 3241.8553,-567.1097 3276.8553,-567.1097 3276.8553,-567.1097 3282.8553,-567.1097 3288.8553,-573.1097 3288.8553,-579.1097 3288.8553,-579.1097 3288.8553,-591.1097 3288.8553,-591.1097 3288.8553,-597.1097 3282.8553,-603.1097 3276.8553,-603.1097"/>
<text text-anchor="middle" x="3259.3553" y="-581.3097" font-family="Times,serif" font-size="16.00" fill="#000000">63: 4F</text>
</g>
<!-- N51&#45;&gt;N63 -->
<g id="edge37" class="edge">
<title>N51&#45;&gt;N63</title>
<path fill="none" stroke="#000000" d="M3259.3553,-661.8549C3259.3553,-645.8575 3259.3553,-627.9433 3259.3553,-613.4486"/>
<polygon fill="#000000" stroke="#000000" points="3262.8554,-613.1193 3259.3553,-603.1194 3255.8554,-613.1194 3262.8554,-613.1193"/>
</g>
<!-- N53 -->
<g id="node54" class="node">
<title>N53</title>
<ellipse fill="none" stroke="#000000" cx="2718.3553" cy="-703.1341" rx="41.0244" ry="41.0244"/>
<text text-anchor="middle" x="2718.3553" y="-699.3341" font-family="Times,serif" font-size="16.00" fill="#000000">53: 37</text>
</g>
<!-- N65 -->
<g id="node66" class="node">
<title>N65</title>
<ellipse fill="none" stroke="#000000" cx="2768.3553" cy="-585.1097" rx="43.2674" ry="18.2703"/>
<text text-anchor="middle" x="2768.3553" y="-581.3097" font-family="Times,serif" font-size="16.00" fill="#000000">65: 3A</text>
</g>
<!-- N53&#45;&gt;N65 -->
<g id="edge38" class="edge">
<title>N53&#45;&gt;N65</title>
<path fill="none" stroke="#000000" d="M2734.4509,-665.1408C2741.6637,-648.115 2750.0141,-628.4041 2756.6229,-612.8041"/>
<polygon fill="#000000" stroke="#000000" points="2760.0067,-613.789 2760.6848,-603.2159 2753.5612,-611.0584 2760.0067,-613.789"/>
</g>
<!-- N54 -->
<g id="node55" class="node">
<title>N54</title>
<ellipse fill="none" stroke="#000000" cx="2818.3553" cy="-703.1341" rx="41.0244" ry="41.0244"/>
<text text-anchor="middle" x="2818.3553" y="-699.3341" font-family="Times,serif" font-size="16.00" fill="#000000">54: 37</text>
</g>
<!-- N54&#45;&gt;N65 -->
<g id="edge39" class="edge">
<title>N54&#45;&gt;N65</title>
<path fill="none" stroke="#000000" d="M2802.2598,-665.1408C2795.047,-648.115 2786.6966,-628.4041 2780.0878,-612.8041"/>
<polygon fill="#000000" stroke="#000000" points="2783.1494,-611.0584 2776.0258,-603.2159 2776.704,-613.789 2783.1494,-611.0584"/>
</g>
<!-- N56 -->
<g id="node57" class="node">
<title>N56</title>
<ellipse fill="none" stroke="#000000" cx="2918.3553" cy="-703.1341" rx="41.0244" ry="41.0244"/>
<text text-anchor="middle" x="2918.3553" y="-699.3341" font-family="Times,serif" font-size="16.00" fill="#000000">56: 37</text>
</g>
<!-- N56&#45;&gt;N65 -->
<g id="edge40" class="edge">
<title>N56&#45;&gt;N65</title>
<path fill="none" stroke="#000000" d="M2886.7829,-676.8899C2880.7054,-671.9368 2874.3619,-666.8342 2868.3553,-662.1219 2847.3747,-645.6621 2841.4926,-642.38 2820.3553,-626.1219 2812.7255,-620.2533 2804.5248,-613.837 2796.9425,-607.8588"/>
<polygon fill="#000000" stroke="#000000" points="2799.0292,-605.0468 2789.014,-601.5904 2794.6879,-610.538 2799.0292,-605.0468"/>
</g>
<!-- N57&#45;&gt;N65 -->
<g id="edge41" class="edge">
<title>N57&#45;&gt;N65</title>
<path fill="none" stroke="#000000" d="M2638.1924,-686.6283C2647.325,-679.09 2658.336,-670.086 2668.3553,-662.1219 2691.9204,-643.3906 2718.9906,-622.586 2739.0183,-607.327"/>
<polygon fill="#000000" stroke="#000000" points="2741.2997,-609.9892 2747.1397,-601.1493 2737.0617,-604.4179 2741.2997,-609.9892"/>
</g>
<!-- N58 -->
<g id="node59" class="node">
<title>N58</title>
<ellipse fill="none" stroke="#000000" cx="3348.3553" cy="-585.1097" rx="41.0244" ry="41.0244"/>
<text text-anchor="middle" x="3348.3553" y="-581.3097" font-family="Times,serif" font-size="16.00" fill="#000000">58: 37</text>
</g>
<!-- N68 -->
<g id="node69" class="node">
<title>N68</title>
<path fill="none" stroke="#000000" d="M3365.8553,-485.0854C3365.8553,-485.0854 3330.8553,-485.0854 3330.8553,-485.0854 3324.8553,-485.0854 3318.8553,-479.0854 3318.8553,-473.0854 3318.8553,-473.0854 3318.8553,-461.0854 3318.8553,-461.0854 3318.8553,-455.0854 3324.8553,-449.0854 3330.8553,-449.0854 3330.8553,-449.0854 3365.8553,-449.0854 3365.8553,-449.0854 3371.8553,-449.0854 3377.8553,-455.0854 3377.8553,-461.0854 3377.8553,-461.0854 3377.8553,-473.0854 3377.8553,-473.0854 3377.8553,-479.0854 3371.8553,-485.0854 3365.8553,-485.0854"/>
<text text-anchor="middle" x="3348.3553" y="-463.2854" font-family="Times,serif" font-size="16.00" fill="#000000">68: 4F</text>
</g>
<!-- N58&#45;&gt;N68 -->
<g id="edge42" class="edge">
<title>N58&#45;&gt;N68</title>
<path fill="none" stroke="#000000" d="M3348.3553,-543.8305C3348.3553,-527.8331 3348.3553,-509.919 3348.3553,-495.4243"/>
<polygon fill="#000000" stroke="#000000" points="3351.8554,-495.095 3348.3553,-485.095 3344.8554,-495.095 3351.8554,-495.095"/>
</g>
<!-- N59 -->
<g id="node60" class="node">
<title>N59</title>
<ellipse fill="none" stroke="#000000" cx="3448.3553" cy="-585.1097" rx="41.0244" ry="41.0244"/>
<text text-anchor="middle" x="3448.3553" y="-581.3097" font-family="Times,serif" font-size="16.00" fill="#000000">59: 37</text>
</g>
<!-- N71 -->
<g id="node72" class="node">
<title>N71</title>
<path fill="none" stroke="#000000" d="M3465.8553,-485.0854C3465.8553,-485.0854 3430.8553,-485.0854 3430.8553,-485.0854 3424.8553,-485.0854 3418.8553,-479.0854 3418.8553,-473.0854 3418.8553,-473.0854 3418.8553,-461.0854 3418.8553,-461.0854 3418.8553,-455.0854 3424.8553,-449.0854 3430.8553,-449.0854 3430.8553,-449.0854 3465.8553,-449.0854 3465.8553,-449.0854 3471.8553,-449.0854 3477.8553,-455.0854 3477.8553,-461.0854 3477.8553,-461.0854 3477.8553,-473.0854 3477.8553,-473.0854 3477.8553,-479.0854 3471.8553,-485.0854 3465.8553,-485.0854"/>
<text text-anchor="middle" x="3448.3553" y="-463.2854" font-family="Times,serif" font-size="16.00" fill="#000000">71: 4F</text>
</g>
<!-- N59&#45;&gt;N71 -->
<g id="edge43" class="edge">
<title>N59&#45;&gt;N71</title>
<path fill="none" stroke="#000000" d="M3448.3553,-543.8305C3448.3553,-527.8331 3448.3553,-509.919 3448.3553,-495.4243"/>
<polygon fill="#000000" stroke="#000000" points="3451.8554,-495.095 3448.3553,-485.095 3444.8554,-495.095 3451.8554,-495.095"/>
</g>
<!-- N61 -->
<g id="node62" class="node">
<title>N61</title>
<ellipse fill="none" stroke="#000000" cx="2870.3553" cy="-585.1097" rx="41.0244" ry="41.0244"/>
<text text-anchor="middle" x="2870.3553" y="-581.3097" font-family="Times,serif" font-size="16.00" fill="#000000">61: 37</text>
</g>
<!-- N73 -->
<g id="node74" class="node">
<title>N73</title>
<path fill="none" stroke="#000000" d="M2937.8553,-485.0854C2937.8553,-485.0854 2902.8553,-485.0854 2902.8553,-485.0854 2896.8553,-485.0854 2890.8553,-479.0854 2890.8553,-473.0854 2890.8553,-473.0854 2890.8553,-461.0854 2890.8553,-461.0854 2890.8553,-455.0854 2896.8553,-449.0854 2902.8553,-449.0854 2902.8553,-449.0854 2937.8553,-449.0854 2937.8553,-449.0854 2943.8553,-449.0854 2949.8553,-455.0854 2949.8553,-461.0854 2949.8553,-461.0854 2949.8553,-473.0854 2949.8553,-473.0854 2949.8553,-479.0854 2943.8553,-485.0854 2937.8553,-485.0854"/>
<text text-anchor="middle" x="2920.3553" y="-463.2854" font-family="Times,serif" font-size="16.00" fill="#000000">73: F9</text>
</g>
<!-- N61&#45;&gt;N73 -->
<g id="edge44" class="edge">
<title>N61&#45;&gt;N73</title>
<path fill="none" stroke="#000000" d="M2886.4509,-547.1164C2893.6637,-530.0906 2902.0141,-510.3797 2908.6229,-494.7797"/>
<polygon fill="#000000" stroke="#000000" points="2912.0067,-495.7646 2912.6848,-485.1915 2905.5612,-493.034 2912.0067,-495.7646"/>
</g>
<!-- N62 -->
<g id="node63" class="node">
<title>N62</title>
<ellipse fill="none" stroke="#000000" cx="2970.3553" cy="-585.1097" rx="41.0244" ry="41.0244"/>
<text text-anchor="middle" x="2970.3553" y="-581.3097" font-family="Times,serif" font-size="16.00" fill="#000000">62: 37</text>
</g>
<!-- N62&#45;&gt;N73 -->
<g id="edge45" class="edge">
<title>N62&#45;&gt;N73</title>
<path fill="none" stroke="#000000" d="M2954.2598,-547.1164C2947.047,-530.0906 2938.6966,-510.3797 2932.0878,-494.7797"/>
<polygon fill="#000000" stroke="#000000" points="2935.1494,-493.034 2928.0258,-485.1915 2928.704,-495.7646 2935.1494,-493.034"/>
</g>
<!-- N64 -->
<g id="node65" class="node">
<title>N64</title>
<ellipse fill="none" stroke="#000000" cx="3070.3553" cy="-585.1097" rx="41.0244" ry="41.0244"/>
<text text-anchor="middle" x="3070.3553" y="-581.3097" font-family="Times,serif" font-size="16.00" fill="#000000">64: 37</text>
</g>
<!-- N64&#45;&gt;N73 -->
<g id="edge46" class="edge">
<title>N64&#45;&gt;N73</title>
<path fill="none" stroke="#000000" d="M3038.734,-558.9273C3032.661,-553.9686 3026.3318,-548.8481 3020.3553,-544.0975 2997.841,-526.2014 2972.127,-506.4127 2952.4123,-491.3761"/>
<polygon fill="#000000" stroke="#000000" points="2954.4336,-488.516 2944.3572,-485.2421 2950.1927,-494.0851 2954.4336,-488.516"/>
</g>
<!-- N65&#45;&gt;N73 -->
<g id="edge47" class="edge">
<title>N65&#45;&gt;N73</title>
<path fill="none" stroke="#000000" d="M2789.0613,-568.69C2798.5744,-561.1691 2810.0169,-552.1549 2820.3553,-544.0975 2843.04,-526.4178 2868.7497,-506.6236 2888.4197,-491.5302"/>
<polygon fill="#000000" stroke="#000000" points="2890.6481,-494.2321 2896.4536,-485.3694 2886.3884,-488.6774 2890.6481,-494.2321"/>
</g>
<!-- N66 -->
<g id="node67" class="node">
<title>N66</title>
<ellipse fill="none" stroke="#000000" cx="3537.3553" cy="-467.0854" rx="41.0244" ry="41.0244"/>
<text text-anchor="middle" x="3537.3553" y="-463.2854" font-family="Times,serif" font-size="16.00" fill="#000000">66: 37</text>
</g>
<!-- N76 -->
<g id="node77" class="node">
<title>N76</title>
<path fill="none" stroke="#000000" d="M3554.8553,-367.061C3554.8553,-367.061 3519.8553,-367.061 3519.8553,-367.061 3513.8553,-367.061 3507.8553,-361.061 3507.8553,-355.061 3507.8553,-355.061 3507.8553,-343.061 3507.8553,-343.061 3507.8553,-337.061 3513.8553,-331.061 3519.8553,-331.061 3519.8553,-331.061 3554.8553,-331.061 3554.8553,-331.061 3560.8553,-331.061 3566.8553,-337.061 3566.8553,-343.061 3566.8553,-343.061 3566.8553,-355.061 3566.8553,-355.061 3566.8553,-361.061 3560.8553,-367.061 3554.8553,-367.061"/>
<text text-anchor="middle" x="3537.3553" y="-345.261" font-family="Times,serif" font-size="16.00" fill="#000000">76: 4F</text>
</g>
<!-- N66&#45;&gt;N76 -->
<g id="edge48" class="edge">
<title>N66&#45;&gt;N76</title>
<path fill="none" stroke="#000000" d="M3537.3553,-425.8062C3537.3553,-409.8087 3537.3553,-391.8946 3537.3553,-377.3999"/>
<polygon fill="#000000" stroke="#000000" points="3540.8554,-377.0706 3537.3553,-367.0706 3533.8554,-377.0706 3540.8554,-377.0706"/>
</g>
<!-- N67 -->
<g id="node68" class="node">
<title>N67</title>
<ellipse fill="none" stroke="#000000" cx="3637.3553" cy="-467.0854" rx="41.0244" ry="41.0244"/>
<text text-anchor="middle" x="3637.3553" y="-463.2854" font-family="Times,serif" font-size="16.00" fill="#000000">67: 37</text>
</g>
<!-- N79 -->
<g id="node80" class="node">
<title>N79</title>
<path fill="none" stroke="#000000" d="M3654.8553,-367.061C3654.8553,-367.061 3619.8553,-367.061 3619.8553,-367.061 3613.8553,-367.061 3607.8553,-361.061 3607.8553,-355.061 3607.8553,-355.061 3607.8553,-343.061 3607.8553,-343.061 3607.8553,-337.061 3613.8553,-331.061 3619.8553,-331.061 3619.8553,-331.061 3654.8553,-331.061 3654.8553,-331.061 3660.8553,-331.061 3666.8553,-337.061 3666.8553,-343.061 3666.8553,-343.061 3666.8553,-355.061 3666.8553,-355.061 3666.8553,-361.061 3660.8553,-367.061 3654.8553,-367.061"/>
<text text-anchor="middle" x="3637.3553" y="-345.261" font-family="Times,serif" font-size="16.00" fill="#000000">79: 4F</text>
</g>
<!-- N67&#45;&gt;N79 -->
<g id="edge49" class="edge">
<title>N67&#45;&gt;N79</title>
<path fill="none" stroke="#000000" d="M3637.3553,-425.8062C3637.3553,-409.8087 3637.3553,-391.8946 3637.3553,-377.3999"/>
<polygon fill="#000000" stroke="#000000" points="3640.8554,-377.0706 3637.3553,-367.0706 3633.8554,-377.0706 3640.8554,-377.0706"/>
</g>
<!-- N69 -->
<g id="node70" class="node">
<title>N69</title>
<ellipse fill="none" stroke="#000000" cx="3737.3553" cy="-467.0854" rx="41.0244" ry="41.0244"/>
<text text-anchor="middle" x="3737.3553" y="-463.2854" font-family="Times,serif" font-size="16.00" fill="#000000">69: 37</text>
</g>
<!-- N81 -->
<g id="node82" class="node">
<title>N81</title>
<ellipse fill="none" stroke="#000000" cx="3837.3553" cy="-349.061" rx="41.0244" ry="18.2703"/>
<text text-anchor="middle" x="3837.3553" y="-345.261" font-family="Times,serif" font-size="16.00" fill="#000000">81: 40</text>
</g>
<!-- N69&#45;&gt;N81 -->
<g id="edge50" class="edge">
<title>N69&#45;&gt;N81</title>
<path fill="none" stroke="#000000" d="M3763.891,-435.7668C3780.2488,-416.4606 3800.94,-392.04 3816.192,-374.0388"/>
<polygon fill="#000000" stroke="#000000" points="3818.9878,-376.1534 3822.7819,-366.2612 3813.647,-371.6283 3818.9878,-376.1534"/>
</g>
<!-- N70 -->
<g id="node71" class="node">
<title>N70</title>
<ellipse fill="none" stroke="#000000" cx="3837.3553" cy="-467.0854" rx="41.0244" ry="41.0244"/>
<text text-anchor="middle" x="3837.3553" y="-463.2854" font-family="Times,serif" font-size="16.00" fill="#000000">70: 37</text>
</g>
<!-- N70&#45;&gt;N81 -->
<g id="edge51" class="edge">
<title>N70&#45;&gt;N81</title>
<path fill="none" stroke="#000000" d="M3837.3553,-425.8062C3837.3553,-410.0206 3837.3553,-392.3688 3837.3553,-377.9776"/>
<polygon fill="#000000" stroke="#000000" points="3840.8554,-377.6931 3837.3553,-367.6931 3833.8554,-377.6931 3840.8554,-377.6931"/>
</g>
<!-- N72 -->
<g id="node73" class="node">
<title>N72</title>
<ellipse fill="none" stroke="#000000" cx="3937.3553" cy="-467.0854" rx="41.0244" ry="41.0244"/>
<text text-anchor="middle" x="3937.3553" y="-463.2854" font-family="Times,serif" font-size="16.00" fill="#000000">72: 37</text>
</g>
<!-- N72&#45;&gt;N81 -->
<g id="edge52" class="edge">
<title>N72&#45;&gt;N81</title>
<path fill="none" stroke="#000000" d="M3910.8197,-435.7668C3894.4619,-416.4606 3873.7707,-392.04 3858.5187,-374.0388"/>
<polygon fill="#000000" stroke="#000000" points="3861.0636,-371.6283 3851.9288,-366.2612 3855.7229,-376.1534 3861.0636,-371.6283"/>
</g>
<!-- N74 -->
<g id="node75" class="node">
<title>N74</title>
<ellipse fill="none" stroke="#000000" cx="4378.3553" cy="-349.061" rx="41.0244" ry="41.0244"/>
<text text-anchor="middle" x="4378.3553" y="-345.261" font-family="Times,serif" font-size="16.00" fill="#000000">74: 37</text>
</g>
<!-- N84 -->
<g id="node85" class="node">
<title>N84</title>
<path fill="none" stroke="#000000" d="M4395.8553,-249.0366C4395.8553,-249.0366 4360.8553,-249.0366 4360.8553,-249.0366 4354.8553,-249.0366 4348.8553,-243.0366 4348.8553,-237.0366 4348.8553,-237.0366 4348.8553,-225.0366 4348.8553,-225.0366 4348.8553,-219.0366 4354.8553,-213.0366 4360.8553,-213.0366 4360.8553,-213.0366 4395.8553,-213.0366 4395.8553,-213.0366 4401.8553,-213.0366 4407.8553,-219.0366 4407.8553,-225.0366 4407.8553,-225.0366 4407.8553,-237.0366 4407.8553,-237.0366 4407.8553,-243.0366 4401.8553,-249.0366 4395.8553,-249.0366"/>
<text text-anchor="middle" x="4378.3553" y="-227.2366" font-family="Times,serif" font-size="16.00" fill="#000000">84: 4F</text>
</g>
<!-- N74&#45;&gt;N84 -->
<g id="edge53" class="edge">
<title>N74&#45;&gt;N84</title>
<path fill="none" stroke="#000000" d="M4378.3553,-307.7818C4378.3553,-291.7843 4378.3553,-273.8702 4378.3553,-259.3755"/>
<polygon fill="#000000" stroke="#000000" points="4381.8554,-259.0462 4378.3553,-249.0462 4374.8554,-259.0463 4381.8554,-259.0462"/>
</g>
<!-- N75 -->
<g id="node76" class="node">
<title>N75</title>
<ellipse fill="none" stroke="#000000" cx="4478.3553" cy="-349.061" rx="41.0244" ry="41.0244"/>
<text text-anchor="middle" x="4478.3553" y="-345.261" font-family="Times,serif" font-size="16.00" fill="#000000">75: 37</text>
</g>
<!-- N87 -->
<g id="node88" class="node">
<title>N87</title>
<path fill="none" stroke="#000000" d="M4495.8553,-249.0366C4495.8553,-249.0366 4460.8553,-249.0366 4460.8553,-249.0366 4454.8553,-249.0366 4448.8553,-243.0366 4448.8553,-237.0366 4448.8553,-237.0366 4448.8553,-225.0366 4448.8553,-225.0366 4448.8553,-219.0366 4454.8553,-213.0366 4460.8553,-213.0366 4460.8553,-213.0366 4495.8553,-213.0366 4495.8553,-213.0366 4501.8553,-213.0366 4507.8553,-219.0366 4507.8553,-225.0366 4507.8553,-225.0366 4507.8553,-237.0366 4507.8553,-237.0366 4507.8553,-243.0366 4501.8553,-249.0366 4495.8553,-249.0366"/>
<text text-anchor="middle" x="4478.3553" y="-227.2366" font-family="Times,serif" font-size="16.00" fill="#000000">87: 4F</text>
</g>
<!-- N75&#45;&gt;N87 -->
<g id="edge54" class="edge">
<title>N75&#45;&gt;N87</title>
<path fill="none" stroke="#000000" d="M4478.3553,-307.7818C4478.3553,-291.7843 4478.3553,-273.8702 4478.3553,-259.3755"/>
<polygon fill="#000000" stroke="#000000" points="4481.8554,-259.0462 4478.3553,-249.0462 4474.8554,-259.0463 4481.8554,-259.0462"/>
</g>
<!-- N77 -->
<g id="node78" class="node">
<title>N77</title>
<ellipse fill="none" stroke="#000000" cx="3937.3553" cy="-349.061" rx="41.0244" ry="41.0244"/>
<text text-anchor="middle" x="3937.3553" y="-345.261" font-family="Times,serif" font-size="16.00" fill="#000000">77: 37</text>
</g>
<!-- N89 -->
<g id="node90" class="node">
<title>N89</title>
<ellipse fill="none" stroke="#000000" cx="3987.3553" cy="-231.0366" rx="43.2674" ry="18.2703"/>
<text text-anchor="middle" x="3987.3553" y="-227.2366" font-family="Times,serif" font-size="16.00" fill="#000000">89: 3A</text>
</g>
<!-- N77&#45;&gt;N89 -->
<g id="edge55" class="edge">
<title>N77&#45;&gt;N89</title>
<path fill="none" stroke="#000000" d="M3953.4509,-311.0676C3960.6637,-294.0418 3969.0141,-274.3309 3975.6229,-258.731"/>
<polygon fill="#000000" stroke="#000000" points="3979.0067,-259.7158 3979.6848,-249.1427 3972.5612,-256.9852 3979.0067,-259.7158"/>
</g>
<!-- N78 -->
<g id="node79" class="node">
<title>N78</title>
<ellipse fill="none" stroke="#000000" cx="4037.3553" cy="-349.061" rx="41.0244" ry="41.0244"/>
<text text-anchor="middle" x="4037.3553" y="-345.261" font-family="Times,serif" font-size="16.00" fill="#000000">78: 37</text>
</g>
<!-- N78&#45;&gt;N89 -->
<g id="edge56" class="edge">
<title>N78&#45;&gt;N89</title>
<path fill="none" stroke="#000000" d="M4021.2598,-311.0676C4014.047,-294.0418 4005.6966,-274.3309 3999.0878,-258.731"/>
<polygon fill="#000000" stroke="#000000" points="4002.1494,-256.9852 3995.0258,-249.1427 3995.704,-259.7158 4002.1494,-256.9852"/>
</g>
<!-- N80 -->
<g id="node81" class="node">
<title>N80</title>
<ellipse fill="none" stroke="#000000" cx="4137.3553" cy="-349.061" rx="41.0244" ry="41.0244"/>
<text text-anchor="middle" x="4137.3553" y="-345.261" font-family="Times,serif" font-size="16.00" fill="#000000">80: 37</text>
</g>
<!-- N80&#45;&gt;N89 -->
<g id="edge57" class="edge">
<title>N80&#45;&gt;N89</title>
<path fill="none" stroke="#000000" d="M4105.7829,-322.8167C4099.7054,-317.8637 4093.3619,-312.7611 4087.3553,-308.0488 4066.3747,-291.589 4060.4926,-288.3069 4039.3553,-272.0488 4031.7255,-266.1802 4023.5248,-259.7638 4015.9425,-253.7856"/>
<polygon fill="#000000" stroke="#000000" points="4018.0292,-250.9737 4008.014,-247.5173 4013.6879,-256.4648 4018.0292,-250.9737"/>
</g>
<!-- N81&#45;&gt;N89 -->
<g id="edge58" class="edge">
<title>N81&#45;&gt;N89</title>
<path fill="none" stroke="#000000" d="M3857.1924,-332.5551C3866.325,-325.0168 3877.336,-316.0129 3887.3553,-308.0488 3910.9204,-289.3175 3937.9906,-268.5128 3958.0183,-253.2539"/>
<polygon fill="#000000" stroke="#000000" points="3960.2997,-255.9161 3966.1397,-247.0761 3956.0617,-250.3448 3960.2997,-255.9161"/>
</g>
<!-- N82 -->
<g id="node83" class="node">
<title>N82</title>
<ellipse fill="none" stroke="#000000" cx="4567.3553" cy="-231.0366" rx="41.0244" ry="41.0244"/>
<text text-anchor="middle" x="4567.3553" y="-227.2366" font-family="Times,serif" font-size="16.00" fill="#000000">82: 37</text>
</g>
<!-- N92 -->
<g id="node93" class="node">
<title>N92</title>
<path fill="none" stroke="#000000" d="M4584.8553,-131.0122C4584.8553,-131.0122 4549.8553,-131.0122 4549.8553,-131.0122 4543.8553,-131.0122 4537.8553,-125.0122 4537.8553,-119.0122 4537.8553,-119.0122 4537.8553,-107.0122 4537.8553,-107.0122 4537.8553,-101.0122 4543.8553,-95.0122 4549.8553,-95.0122 4549.8553,-95.0122 4584.8553,-95.0122 4584.8553,-95.0122 4590.8553,-95.0122 4596.8553,-101.0122 4596.8553,-107.0122 4596.8553,-107.0122 4596.8553,-119.0122 4596.8553,-119.0122 4596.8553,-125.0122 4590.8553,-131.0122 4584.8553,-131.0122"/>
<text text-anchor="middle" x="4567.3553" y="-109.2122" font-family="Times,serif" font-size="16.00" fill="#000000">92: 4F</text>
</g>
<!-- N82&#45;&gt;N92 -->
<g id="edge59" class="edge">
<title>N82&#45;&gt;N92</title>
<path fill="none" stroke="#000000" d="M4567.3553,-189.7574C4567.3553,-173.7599 4567.3553,-155.8458 4567.3553,-141.3511"/>
<polygon fill="#000000" stroke="#000000" points="4570.8554,-141.0218 4567.3553,-131.0218 4563.8554,-141.0219 4570.8554,-141.0218"/>
</g>
<!-- N83 -->
<g id="node84" class="node">
<title>N83</title>
<ellipse fill="none" stroke="#000000" cx="4667.3553" cy="-231.0366" rx="41.0244" ry="41.0244"/>
<text text-anchor="middle" x="4667.3553" y="-227.2366" font-family="Times,serif" font-size="16.00" fill="#000000">83: 37</text>
</g>
<!-- N95 -->
<g id="node96" class="node">
<title>N95</title>
<path fill="none" stroke="#000000" d="M4684.8553,-131.0122C4684.8553,-131.0122 4649.8553,-131.0122 4649.8553,-131.0122 4643.8553,-131.0122 4637.8553,-125.0122 4637.8553,-119.0122 4637.8553,-119.0122 4637.8553,-107.0122 4637.8553,-107.0122 4637.8553,-101.0122 4643.8553,-95.0122 4649.8553,-95.0122 4649.8553,-95.0122 4684.8553,-95.0122 4684.8553,-95.0122 4690.8553,-95.0122 4696.8553,-101.0122 4696.8553,-107.0122 4696.8553,-107.0122 4696.8553,-119.0122 4696.8553,-119.0122 4696.8553,-125.0122 4690.8553,-131.0122 4684.8553,-131.0122"/>
<text text-anchor="middle" x="4667.3553" y="-109.2122" font-family="Times,serif" font-size="16.00" fill="#000000">95: 4F</text>
</g>
<!-- N83&#45;&gt;N95 -->
<g id="edge60" class="edge">
<title>N83&#45;&gt;N95</title>
<path fill="none" stroke="#000000" d="M4667.3553,-189.7574C4667.3553,-173.7599 4667.3553,-155.8458 4667.3553,-141.3511"/>
<polygon fill="#000000" stroke="#000000" points="4670.8554,-141.0218 4667.3553,-131.0218 4663.8554,-141.0219 4670.8554,-141.0218"/>
</g>
<!-- N85 -->
<g id="node86" class="node">
<title>N85</title>
<ellipse fill="none" stroke="#000000" cx="4089.3553" cy="-231.0366" rx="41.0244" ry="41.0244"/>
<text text-anchor="middle" x="4089.3553" y="-227.2366" font-family="Times,serif" font-size="16.00" fill="#000000">85: 37</text>
</g>
<!-- N97 -->
<g id="node98" class="node">
<title>N97</title>
<path fill="none" stroke="#000000" d="M4156.8553,-131.0122C4156.8553,-131.0122 4121.8553,-131.0122 4121.8553,-131.0122 4115.8553,-131.0122 4109.8553,-125.0122 4109.8553,-119.0122 4109.8553,-119.0122 4109.8553,-107.0122 4109.8553,-107.0122 4109.8553,-101.0122 4115.8553,-95.0122 4121.8553,-95.0122 4121.8553,-95.0122 4156.8553,-95.0122 4156.8553,-95.0122 4162.8553,-95.0122 4168.8553,-101.0122 4168.8553,-107.0122 4168.8553,-107.0122 4168.8553,-119.0122 4168.8553,-119.0122 4168.8553,-125.0122 4162.8553,-131.0122 4156.8553,-131.0122"/>
<text text-anchor="middle" x="4139.3553" y="-109.2122" font-family="Times,serif" font-size="16.00" fill="#000000">97: F9</text>
</g>
<!-- N85&#45;&gt;N97 -->
<g id="edge61" class="edge">
<title>N85&#45;&gt;N97</title>
<path fill="none" stroke="#000000" d="M4105.4509,-193.0433C4112.6637,-176.0174 4121.0141,-156.3065 4127.6229,-140.7066"/>
<polygon fill="#000000" stroke="#000000" points="4131.0067,-141.6914 4131.6848,-131.1183 4124.5612,-138.9608 4131.0067,-141.6914"/>
</g>
<!-- N86 -->
<g id="node87" class="node">
<title>N86</title>
<ellipse fill="none" stroke="#000000" cx="4189.3553" cy="-231.0366" rx="41.0244" ry="41.0244"/>
<text text-anchor="middle" x="4189.3553" y="-227.2366" font-family="Times,serif" font-size="16.00" fill="#000000">86: 37</text>
</g>
<!-- N86&#45;&gt;N97 -->
<g id="edge62" class="edge">
<title>N86&#45;&gt;N97</title>
<path fill="none" stroke="#000000" d="M4173.2598,-193.0433C4166.047,-176.0174 4157.6966,-156.3065 4151.0878,-140.7066"/>
<polygon fill="#000000" stroke="#000000" points="4154.1494,-138.9608 4147.0258,-131.1183 4147.704,-141.6914 4154.1494,-138.9608"/>
</g>
<!-- N88 -->
<g id="node89" class="node">
<title>N88</title>
<ellipse fill="none" stroke="#000000" cx="4289.3553" cy="-231.0366" rx="41.0244" ry="41.0244"/>
<text text-anchor="middle" x="4289.3553" y="-227.2366" font-family="Times,serif" font-size="16.00" fill="#000000">88: 37</text>
</g>
<!-- N88&#45;&gt;N97 -->
<g id="edge63" class="edge">
<title>N88&#45;&gt;N97</title>
<path fill="none" stroke="#000000" d="M4257.734,-204.8541C4251.661,-199.8954 4245.3318,-194.7749 4239.3553,-190.0244 4216.841,-172.1283 4191.127,-152.3395 4171.4123,-137.3029"/>
<polygon fill="#000000" stroke="#000000" points="4173.4336,-134.4429 4163.3572,-131.169 4169.1927,-140.012 4173.4336,-134.4429"/>
</g>
<!-- N89&#45;&gt;N97 -->
<g id="edge64" class="edge">
<title>N89&#45;&gt;N97</title>
<path fill="none" stroke="#000000" d="M4008.0613,-214.6169C4017.5744,-207.0959 4029.0169,-198.0818 4039.3553,-190.0244 4062.04,-172.3447 4087.7497,-152.5504 4107.4197,-137.4571"/>
<polygon fill="#000000" stroke="#000000" points="4109.6481,-140.1589 4115.4536,-131.2962 4105.3884,-134.6042 4109.6481,-140.1589"/>
</g>
<!-- N90 -->
<g id="node91" class="node">
<title>N90</title>
<ellipse fill="none" stroke="#000000" cx="4756.3553" cy="-113.0122" rx="41.0244" ry="41.0244"/>
<text text-anchor="middle" x="4756.3553" y="-109.2122" font-family="Times,serif" font-size="16.00" fill="#000000">90: 37</text>
</g>
<!-- N98 -->
<g id="node99" class="node">
<title>N98</title>
<path fill="none" stroke="#000000" d="M4973.3553,-36C4973.3553,-36 4939.3553,-36 4939.3553,-36 4933.3553,-36 4927.3553,-30 4927.3553,-24 4927.3553,-24 4927.3553,-12 4927.3553,-12 4927.3553,-6 4933.3553,0 4939.3553,0 4939.3553,0 4973.3553,0 4973.3553,0 4979.3553,0 4985.3553,-6 4985.3553,-12 4985.3553,-12 4985.3553,-24 4985.3553,-24 4985.3553,-30 4979.3553,-36 4973.3553,-36"/>
<text text-anchor="middle" x="4956.3553" y="-14.2" font-family="Times,serif" font-size="16.00" fill="#000000">98: 94</text>
</g>
<!-- N90&#45;&gt;N98 -->
<g id="edge65" class="edge">
<title>N90&#45;&gt;N98</title>
<path fill="none" stroke="#000000" d="M4786.9039,-85.2411C4793.0758,-80.4288 4799.7159,-75.7686 4806.3553,-72 4841.8674,-51.8431 4886.2667,-36.9845 4917.5154,-28.0118"/>
<polygon fill="#000000" stroke="#000000" points="4918.4863,-31.3747 4927.171,-25.3062 4916.5975,-24.6343 4918.4863,-31.3747"/>
</g>
<!-- N91 -->
<g id="node92" class="node">
<title>N91</title>
<ellipse fill="none" stroke="#000000" cx="4856.3553" cy="-113.0122" rx="41.0244" ry="41.0244"/>
<text text-anchor="middle" x="4856.3553" y="-109.2122" font-family="Times,serif" font-size="16.00" fill="#000000">91: 37</text>
</g>
<!-- N91&#45;&gt;N98 -->
<g id="edge66" class="edge">
<title>N91&#45;&gt;N98</title>
<path fill="none" stroke="#000000" d="M4886.0879,-84.7626C4899.9485,-71.5933 4916.3105,-56.0475 4929.7568,-43.2718"/>
<polygon fill="#000000" stroke="#000000" points="4932.4572,-45.5341 4937.296,-36.1087 4927.6356,-40.4594 4932.4572,-45.5341"/>
</g>
<!-- N93 -->
<g id="node94" class="node">
<title>N93</title>
<ellipse fill="none" stroke="#000000" cx="4956.3553" cy="-113.0122" rx="41.0244" ry="41.0244"/>
<text text-anchor="middle" x="4956.3553" y="-109.2122" font-family="Times,serif" font-size="16.00" fill="#000000">93: 37</text>
</g>
<!-- N93&#45;&gt;N98 -->
<g id="edge67" class="edge">
<title>N93&#45;&gt;N98</title>
<path fill="none" stroke="#000000" d="M4956.3553,-71.8911C4956.3553,-63.34 4956.3553,-54.5079 4956.3553,-46.5302"/>
<polygon fill="#000000" stroke="#000000" points="4959.8554,-46.2876 4956.3553,-36.2877 4952.8554,-46.2877 4959.8554,-46.2876"/>
</g>
<!-- N94 -->
<g id="node95" class="node">
<title>N94</title>
<ellipse fill="none" stroke="#000000" cx="5056.3553" cy="-113.0122" rx="41.0244" ry="41.0244"/>
<text text-anchor="middle" x="5056.3553" y="-109.2122" font-family="Times,serif" font-size="16.00" fill="#000000">94: 37</text>
</g>
<!-- N94&#45;&gt;N98 -->
<g id="edge68" class="edge">
<title>N94&#45;&gt;N98</title>
<path fill="none" stroke="#000000" d="M5026.6228,-84.7626C5012.7621,-71.5933 4996.4002,-56.0475 4982.9538,-43.2718"/>
<polygon fill="#000000" stroke="#000000" points="4985.0751,-40.4594 4975.4147,-36.1087 4980.2535,-45.5341 4985.0751,-40.4594"/>
</g>
<!-- N96 -->
<g id="node97" class="node">
<title>N96</title>
<ellipse fill="none" stroke="#000000" cx="5156.3553" cy="-113.0122" rx="41.0244" ry="41.0244"/>
<text text-anchor="middle" x="5156.3553" y="-109.2122" font-family="Times,serif" font-size="16.00" fill="#000000">96: 37</text>
</g>
<!-- N96&#45;&gt;N98 -->
<g id="edge69" class="edge">
<title>N96&#45;&gt;N98</title>
<path fill="none" stroke="#000000" d="M5125.8068,-85.2411C5119.6349,-80.4288 5112.9948,-75.7686 5106.3553,-72 5070.8433,-51.8431 5026.444,-36.9845 4995.1953,-28.0118"/>
<polygon fill="#000000" stroke="#000000" points="4996.1132,-24.6343 4985.5397,-25.3062 4994.2244,-31.3747 4996.1132,-24.6343"/>
</g>
</g>
</svg>
