<?xml version="1.0" encoding="UTF-8" standalone="no"?>
<!DOCTYPE svg PUBLIC "-//W3C//DTD SVG 1.1//EN"
 "http://www.w3.org/Graphics/SVG/1.1/DTD/svg11.dtd">
<!-- Generated by graphviz version 2.40.1 (20161225.0304)
 -->
<!-- Title: %3 Pages: 1 -->
<svg width="372pt" height="648pt"
 viewBox="0.00 0.00 371.80 648.00" xmlns="http://www.w3.org/2000/svg" xmlns:xlink="http://www.w3.org/1999/xlink">
<g id="graph0" class="graph" transform="scale(.3401 .3401) rotate(0) translate(4 1901.1799)">
<title>%3</title>
<polygon fill="#ffffff" stroke="transparent" points="-4,4 -4,-1901.1799 1089.1335,-1901.1799 1089.1335,4 -4,4"/>
<!-- N0 -->
<g id="node1" class="node">
<title>N0</title>
<ellipse fill="none" stroke="#000000" cx="459" cy="-1857.8246" rx="35.2259" ry="35.2259"/>
<ellipse fill="none" stroke="#000000" cx="459" cy="-1857.8246" rx="39.2112" ry="39.2112"/>
<text text-anchor="middle" x="459" y="-1854.0246" font-family="Times,serif" font-size="16.00" fill="#000000">0: 37</text>
</g>
<!-- N1 -->
<g id="node2" class="node">
<title>N1</title>
<ellipse fill="none" stroke="#000000" cx="459" cy="-1764.0845" rx="35.2113" ry="18.2703"/>
<text text-anchor="middle" x="459" y="-1760.2845" font-family="Times,serif" font-size="16.00" fill="#000000">1: 4F</text>
</g>
<!-- N0&#45;&gt;N1 -->
<g id="edge1" class="edge">
<title>N0&#45;&gt;N1</title>
<path fill="none" stroke="#000000" d="M459,-1818.342C459,-1809.7139 459,-1800.7432 459,-1792.6393"/>
<polygon fill="#000000" stroke="#000000" points="462.5001,-1792.587 459,-1782.587 455.5001,-1792.5871 462.5001,-1792.587"/>
</g>
<!-- N2 -->
<g id="node3" class="node">
<title>N2</title>
<ellipse fill="none" stroke="#000000" cx="459" cy="-1691.3149" rx="43.6818" ry="18.2703"/>
<text text-anchor="middle" x="459" y="-1687.5149" font-family="Times,serif" font-size="16.00" fill="#000000">2: 95.2</text>
</g>
<!-- N1&#45;&gt;N2 -->
<g id="edge2" class="edge">
<title>N1&#45;&gt;N2</title>
<path fill="none" stroke="#000000" d="M459,-1745.3445C459,-1737.5605 459,-1728.3548 459,-1719.7685"/>
<polygon fill="#000000" stroke="#000000" points="462.5001,-1719.7394 459,-1709.7395 455.5001,-1719.7395 462.5001,-1719.7394"/>
</g>
<!-- N3 -->
<g id="node4" class="node">
<title>N3</title>
<ellipse fill="none" stroke="#000000" cx="459" cy="-1618.5454" rx="36.5405" ry="18.2703"/>
<text text-anchor="middle" x="459" y="-1614.7454" font-family="Times,serif" font-size="16.00" fill="#000000">3: 1C</text>
</g>
<!-- N2&#45;&gt;N3 -->
<g id="edge3" class="edge">
<title>N2&#45;&gt;N3</title>
<path fill="none" stroke="#000000" d="M459,-1672.575C459,-1664.7909 459,-1655.5852 459,-1646.9989"/>
<polygon fill="#000000" stroke="#000000" points="462.5001,-1646.9699 459,-1636.9699 455.5001,-1646.97 462.5001,-1646.9699"/>
</g>
<!-- N4 -->
<g id="node5" class="node">
<title>N4</title>
<ellipse fill="none" stroke="#000000" cx="459" cy="-1545.7758" rx="37.4533" ry="18.2703"/>
<text text-anchor="middle" x="459" y="-1541.9758" font-family="Times,serif" font-size="16.00" fill="#000000">4: 0A</text>
</g>
<!-- N3&#45;&gt;N4 -->
<g id="edge4" class="edge">
<title>N3&#45;&gt;N4</title>
<path fill="none" stroke="#000000" d="M459,-1599.8054C459,-1592.0214 459,-1582.8157 459,-1574.2294"/>
<polygon fill="#000000" stroke="#000000" points="462.5001,-1574.2003 459,-1564.2004 455.5001,-1574.2004 462.5001,-1574.2003"/>
</g>
<!-- N5 -->
<g id="node6" class="node">
<title>N5</title>
<ellipse fill="none" stroke="#000000" cx="459" cy="-1473.0063" rx="35.2113" ry="18.2703"/>
<text text-anchor="middle" x="459" y="-1469.2063" font-family="Times,serif" font-size="16.00" fill="#000000">5: 03</text>
</g>
<!-- N4&#45;&gt;N5 -->
<g id="edge5" class="edge">
<title>N4&#45;&gt;N5</title>
<path fill="none" stroke="#000000" d="M459,-1527.0359C459,-1519.2518 459,-1510.0461 459,-1501.4598"/>
<polygon fill="#000000" stroke="#000000" points="462.5001,-1501.4308 459,-1491.4308 455.5001,-1501.4309 462.5001,-1501.4308"/>
</g>
<!-- N6 -->
<g id="node7" class="node">
<title>N6</title>
<ellipse fill="none" stroke="#000000" cx="459" cy="-1400.2367" rx="44.5955" ry="18.2703"/>
<text text-anchor="middle" x="459" y="-1396.4367" font-family="Times,serif" font-size="16.00" fill="#000000">6: 7E.1</text>
</g>
<!-- N5&#45;&gt;N6 -->
<g id="edge6" class="edge">
<title>N5&#45;&gt;N6</title>
<path fill="none" stroke="#000000" d="M459,-1454.2663C459,-1446.4823 459,-1437.2766 459,-1428.6903"/>
<polygon fill="#000000" stroke="#000000" points="462.5001,-1428.6612 459,-1418.6613 455.5001,-1428.6613 462.5001,-1428.6612"/>
</g>
<!-- N7 -->
<g id="node8" class="node">
<title>N7</title>
<ellipse fill="none" stroke="#000000" cx="459" cy="-1327.4672" rx="45.011" ry="18.2703"/>
<text text-anchor="middle" x="459" y="-1323.6672" font-family="Times,serif" font-size="16.00" fill="#000000">7: B4.2</text>
</g>
<!-- N6&#45;&gt;N7 -->
<g id="edge7" class="edge">
<title>N6&#45;&gt;N7</title>
<path fill="none" stroke="#000000" d="M459,-1381.4968C459,-1373.7127 459,-1364.507 459,-1355.9207"/>
<polygon fill="#000000" stroke="#000000" points="462.5001,-1355.8917 459,-1345.8917 455.5001,-1355.8918 462.5001,-1355.8917"/>
</g>
<!-- N8 -->
<g id="node9" class="node">
<title>N8</title>
<ellipse fill="none" stroke="#000000" cx="459" cy="-1254.6976" rx="46.8387" ry="18.2703"/>
<text text-anchor="middle" x="459" y="-1250.8976" font-family="Times,serif" font-size="16.00" fill="#000000">8: BB.2</text>
</g>
<!-- N7&#45;&gt;N8 -->
<g id="edge8" class="edge">
<title>N7&#45;&gt;N8</title>
<path fill="none" stroke="#000000" d="M459,-1308.7272C459,-1300.9432 459,-1291.7375 459,-1283.1512"/>
<polygon fill="#000000" stroke="#000000" points="462.5001,-1283.1221 459,-1273.1222 455.5001,-1283.1222 462.5001,-1283.1221"/>
</g>
<!-- N9 -->
<g id="node10" class="node">
<title>N9</title>
<ellipse fill="none" stroke="#000000" cx="403" cy="-1181.9281" rx="43.6818" ry="18.2703"/>
<text text-anchor="middle" x="403" y="-1178.1281" font-family="Times,serif" font-size="16.00" fill="#000000">9: 8F.1</text>
</g>
<!-- N8&#45;&gt;N9 -->
<g id="edge9" class="edge">
<title>N8&#45;&gt;N9</title>
<path fill="none" stroke="#000000" d="M445.444,-1237.0821C438.6842,-1228.2982 430.3778,-1217.5044 422.911,-1207.8015"/>
<polygon fill="#000000" stroke="#000000" points="425.4978,-1205.424 416.6253,-1199.6335 419.9503,-1209.6931 425.4978,-1205.424"/>
</g>
<!-- N10 -->
<g id="node11" class="node">
<title>N10</title>
<ellipse fill="none" stroke="#000000" cx="516" cy="-1181.9281" rx="50.41" ry="18.2703"/>
<text text-anchor="middle" x="516" y="-1178.1281" font-family="Times,serif" font-size="16.00" fill="#000000">10: 8F.1</text>
</g>
<!-- N8&#45;&gt;N10 -->
<g id="edge10" class="edge">
<title>N8&#45;&gt;N10</title>
<path fill="none" stroke="#000000" d="M472.7981,-1237.0821C479.7481,-1228.2094 488.3042,-1217.2861 495.9635,-1207.5078"/>
<polygon fill="#000000" stroke="#000000" points="498.7203,-1209.6643 502.1314,-1199.6335 493.2096,-1205.3477 498.7203,-1209.6643"/>
</g>
<!-- N11 -->
<g id="node12" class="node">
<title>N11</title>
<ellipse fill="none" stroke="#000000" cx="402" cy="-1109.1585" rx="42.3529" ry="18.2703"/>
<text text-anchor="middle" x="402" y="-1105.3585" font-family="Times,serif" font-size="16.00" fill="#000000">11: 4C</text>
</g>
<!-- N9&#45;&gt;N11 -->
<g id="edge11" class="edge">
<title>N9&#45;&gt;N11</title>
<path fill="none" stroke="#000000" d="M402.7425,-1163.1881C402.6355,-1155.404 402.509,-1146.1984 402.391,-1137.6121"/>
<polygon fill="#000000" stroke="#000000" points="405.8904,-1137.534 402.2532,-1127.5831 398.891,-1137.6302 405.8904,-1137.534"/>
</g>
<!-- N12 -->
<g id="node13" class="node">
<title>N12</title>
<ellipse fill="none" stroke="#000000" cx="516" cy="-1109.1585" rx="42.3529" ry="18.2703"/>
<text text-anchor="middle" x="516" y="-1105.3585" font-family="Times,serif" font-size="16.00" fill="#000000">12: 4C</text>
</g>
<!-- N10&#45;&gt;N12 -->
<g id="edge12" class="edge">
<title>N10&#45;&gt;N12</title>
<path fill="none" stroke="#000000" d="M516,-1163.1881C516,-1155.404 516,-1146.1984 516,-1137.6121"/>
<polygon fill="#000000" stroke="#000000" points="519.5001,-1137.583 516,-1127.5831 512.5001,-1137.5831 519.5001,-1137.583"/>
</g>
<!-- N13 -->
<g id="node14" class="node">
<title>N13</title>
<ellipse fill="none" stroke="#000000" cx="400" cy="-1036.389" rx="41.9398" ry="18.2703"/>
<text text-anchor="middle" x="400" y="-1032.589" font-family="Times,serif" font-size="16.00" fill="#000000">13: 0F</text>
</g>
<!-- N11&#45;&gt;N13 -->
<g id="edge13" class="edge">
<title>N11&#45;&gt;N13</title>
<path fill="none" stroke="#000000" d="M401.485,-1090.4185C401.271,-1082.6345 401.018,-1073.4288 400.782,-1064.8425"/>
<polygon fill="#000000" stroke="#000000" points="404.2799,-1064.7135 400.5064,-1054.8135 397.2825,-1064.9059 404.2799,-1064.7135"/>
</g>
<!-- N14 -->
<g id="node15" class="node">
<title>N14</title>
<ellipse fill="none" stroke="#000000" cx="516" cy="-1036.389" rx="41.9398" ry="18.2703"/>
<text text-anchor="middle" x="516" y="-1032.589" font-family="Times,serif" font-size="16.00" fill="#000000">14: 0F</text>
</g>
<!-- N12&#45;&gt;N14 -->
<g id="edge14" class="edge">
<title>N12&#45;&gt;N14</title>
<path fill="none" stroke="#000000" d="M516,-1090.4185C516,-1082.6345 516,-1073.4288 516,-1064.8425"/>
<polygon fill="#000000" stroke="#000000" points="519.5001,-1064.8135 516,-1054.8135 512.5001,-1064.8135 519.5001,-1064.8135"/>
</g>
<!-- N15 -->
<g id="node16" class="node">
<title>N15</title>
<ellipse fill="none" stroke="#000000" cx="396" cy="-963.6194" rx="51.7379" ry="18.2703"/>
<text text-anchor="middle" x="396" y="-959.8194" font-family="Times,serif" font-size="16.00" fill="#000000">15: 5A.1</text>
</g>
<!-- N13&#45;&gt;N15 -->
<g id="edge15" class="edge">
<title>N13&#45;&gt;N15</title>
<path fill="none" stroke="#000000" d="M398.9699,-1017.649C398.542,-1009.8649 398.036,-1000.6592 397.564,-992.073"/>
<polygon fill="#000000" stroke="#000000" points="401.0564,-991.8368 397.0128,-982.044 394.067,-992.221 401.0564,-991.8368"/>
</g>
<!-- N16 -->
<g id="node17" class="node">
<title>N16</title>
<ellipse fill="none" stroke="#000000" cx="517" cy="-963.6194" rx="51.7379" ry="18.2703"/>
<text text-anchor="middle" x="517" y="-959.8194" font-family="Times,serif" font-size="16.00" fill="#000000">16: 5A.1</text>
</g>
<!-- N14&#45;&gt;N16 -->
<g id="edge16" class="edge">
<title>N14&#45;&gt;N16</title>
<path fill="none" stroke="#000000" d="M516.2575,-1017.649C516.3645,-1009.8649 516.491,-1000.6592 516.609,-992.073"/>
<polygon fill="#000000" stroke="#000000" points="520.109,-992.0911 516.7468,-982.044 513.1096,-991.9949 520.109,-992.0911"/>
</g>
<!-- N17 -->
<g id="node18" class="node">
<title>N17</title>
<ellipse fill="none" stroke="#000000" cx="395" cy="-890.8499" rx="49.4949" ry="18.2703"/>
<text text-anchor="middle" x="395" y="-887.0499" font-family="Times,serif" font-size="16.00" fill="#000000">17: 75.1</text>
</g>
<!-- N15&#45;&gt;N17 -->
<g id="edge17" class="edge">
<title>N15&#45;&gt;N17</title>
<path fill="none" stroke="#000000" d="M395.7425,-944.8794C395.6355,-937.0954 395.509,-927.8897 395.391,-919.3034"/>
<polygon fill="#000000" stroke="#000000" points="398.8904,-919.2253 395.2532,-909.2744 391.891,-919.3216 398.8904,-919.2253"/>
</g>
<!-- N18 -->
<g id="node19" class="node">
<title>N18</title>
<ellipse fill="none" stroke="#000000" cx="517" cy="-890.8499" rx="49.4949" ry="18.2703"/>
<text text-anchor="middle" x="517" y="-887.0499" font-family="Times,serif" font-size="16.00" fill="#000000">18: 75.1</text>
</g>
<!-- N16&#45;&gt;N18 -->
<g id="edge18" class="edge">
<title>N16&#45;&gt;N18</title>
<path fill="none" stroke="#000000" d="M517,-944.8794C517,-937.0954 517,-927.8897 517,-919.3034"/>
<polygon fill="#000000" stroke="#000000" points="520.5001,-919.2744 517,-909.2744 513.5001,-919.2744 520.5001,-919.2744"/>
</g>
<!-- N19 -->
<g id="node20" class="node">
<title>N19</title>
<ellipse fill="none" stroke="#000000" cx="394" cy="-818.0803" rx="53.066" ry="18.2703"/>
<text text-anchor="middle" x="394" y="-814.2803" font-family="Times,serif" font-size="16.00" fill="#000000">19: AC.2</text>
</g>
<!-- N17&#45;&gt;N19 -->
<g id="edge19" class="edge">
<title>N17&#45;&gt;N19</title>
<path fill="none" stroke="#000000" d="M394.7425,-872.1099C394.6355,-864.3258 394.509,-855.1201 394.391,-846.5338"/>
<polygon fill="#000000" stroke="#000000" points="397.8904,-846.4558 394.2532,-836.5049 390.891,-846.552 397.8904,-846.4558"/>
</g>
<!-- N20 -->
<g id="node21" class="node">
<title>N20</title>
<ellipse fill="none" stroke="#000000" cx="518" cy="-818.0803" rx="53.066" ry="18.2703"/>
<text text-anchor="middle" x="518" y="-814.2803" font-family="Times,serif" font-size="16.00" fill="#000000">20: AC.2</text>
</g>
<!-- N18&#45;&gt;N20 -->
<g id="edge20" class="edge">
<title>N18&#45;&gt;N20</title>
<path fill="none" stroke="#000000" d="M517.2575,-872.1099C517.3645,-864.3258 517.491,-855.1201 517.609,-846.5338"/>
<polygon fill="#000000" stroke="#000000" points="521.109,-846.552 517.7468,-836.5049 514.1096,-846.4558 521.109,-846.552"/>
</g>
<!-- N21 -->
<g id="node22" class="node">
<title>N21</title>
<ellipse fill="none" stroke="#000000" cx="456" cy="-745.3107" rx="41.0244" ry="18.2703"/>
<text text-anchor="middle" x="456" y="-741.5107" font-family="Times,serif" font-size="16.00" fill="#000000">21: 38</text>
</g>
<!-- N19&#45;&gt;N21 -->
<g id="edge21" class="edge">
<title>N19&#45;&gt;N21</title>
<path fill="none" stroke="#000000" d="M409.3258,-800.0923C416.946,-791.1486 426.2807,-780.1923 434.5943,-770.4347"/>
<polygon fill="#000000" stroke="#000000" points="437.4562,-772.4725 441.2774,-762.5907 432.1279,-767.9327 437.4562,-772.4725"/>
</g>
<!-- N20&#45;&gt;N21 -->
<g id="edge22" class="edge">
<title>N20&#45;&gt;N21</title>
<path fill="none" stroke="#000000" d="M502.6742,-800.0923C495.054,-791.1486 485.7193,-780.1923 477.4057,-770.4347"/>
<polygon fill="#000000" stroke="#000000" points="479.8721,-767.9327 470.7226,-762.5907 474.5438,-772.4725 479.8721,-767.9327"/>
</g>
<!-- N22 -->
<g id="node23" class="node">
<title>N22</title>
<ellipse fill="none" stroke="#000000" cx="456" cy="-672.5412" rx="49.4949" ry="18.2703"/>
<text text-anchor="middle" x="456" y="-668.7412" font-family="Times,serif" font-size="16.00" fill="#000000">22: 79.1</text>
</g>
<!-- N21&#45;&gt;N22 -->
<g id="edge23" class="edge">
<title>N21&#45;&gt;N22</title>
<path fill="none" stroke="#000000" d="M456,-726.5708C456,-718.7867 456,-709.581 456,-700.9947"/>
<polygon fill="#000000" stroke="#000000" points="459.5001,-700.9657 456,-690.9657 452.5001,-700.9658 459.5001,-700.9657"/>
</g>
<!-- N23 -->
<g id="node24" class="node">
<title>N23</title>
<ellipse fill="none" stroke="#000000" cx="456" cy="-599.7716" rx="51.7379" ry="18.2703"/>
<text text-anchor="middle" x="456" y="-595.9716" font-family="Times,serif" font-size="16.00" fill="#000000">23: FC.3</text>
</g>
<!-- N22&#45;&gt;N23 -->
<g id="edge24" class="edge">
<title>N22&#45;&gt;N23</title>
<path fill="none" stroke="#000000" d="M456,-653.8012C456,-646.0172 456,-636.8115 456,-628.2252"/>
<polygon fill="#000000" stroke="#000000" points="459.5001,-628.1962 456,-618.1962 452.5001,-628.1962 459.5001,-628.1962"/>
</g>
<!-- N24 -->
<g id="node25" class="node">
<title>N24</title>
<ellipse fill="none" stroke="#000000" cx="235" cy="-527.0021" rx="41.0244" ry="18.2703"/>
<text text-anchor="middle" x="235" y="-523.2021" font-family="Times,serif" font-size="16.00" fill="#000000">24: 29</text>
</g>
<!-- N23&#45;&gt;N24 -->
<g id="edge25" class="edge">
<title>N23&#45;&gt;N24</title>
<path fill="none" stroke="#000000" d="M418.0087,-587.2621C379.0167,-574.423 318.4584,-554.4828 277.7984,-541.0945"/>
<polygon fill="#000000" stroke="#000000" points="278.763,-537.7273 268.17,-537.9241 276.5737,-544.3761 278.763,-537.7273"/>
</g>
<!-- N25 -->
<g id="node26" class="node">
<title>N25</title>
<ellipse fill="none" stroke="#000000" cx="345" cy="-527.0021" rx="41.0244" ry="18.2703"/>
<text text-anchor="middle" x="345" y="-523.2021" font-family="Times,serif" font-size="16.00" fill="#000000">25: 29</text>
</g>
<!-- N23&#45;&gt;N25 -->
<g id="edge26" class="edge">
<title>N23&#45;&gt;N25</title>
<path fill="none" stroke="#000000" d="M431.0894,-583.4407C415.0867,-572.9497 394.1498,-559.2238 376.9304,-547.9351"/>
<polygon fill="#000000" stroke="#000000" points="378.5925,-544.8396 368.3105,-542.284 374.7546,-550.6938 378.5925,-544.8396"/>
</g>
<!-- N26 -->
<g id="node27" class="node">
<title>N26</title>
<ellipse fill="none" stroke="#000000" cx="456" cy="-527.0021" rx="41.0244" ry="18.2703"/>
<text text-anchor="middle" x="456" y="-523.2021" font-family="Times,serif" font-size="16.00" fill="#000000">26: 29</text>
</g>
<!-- N23&#45;&gt;N26 -->
<g id="edge27" class="edge">
<title>N23&#45;&gt;N26</title>
<path fill="none" stroke="#000000" d="M456,-581.0317C456,-573.2476 456,-564.0419 456,-555.4556"/>
<polygon fill="#000000" stroke="#000000" points="459.5001,-555.4266 456,-545.4266 452.5001,-555.4267 459.5001,-555.4266"/>
</g>
<!-- N27 -->
<g id="node28" class="node">
<title>N27</title>
<ellipse fill="none" stroke="#000000" cx="566" cy="-527.0021" rx="41.0244" ry="18.2703"/>
<text text-anchor="middle" x="566" y="-523.2021" font-family="Times,serif" font-size="16.00" fill="#000000">27: 29</text>
</g>
<!-- N23&#45;&gt;N27 -->
<g id="edge28" class="edge">
<title>N23&#45;&gt;N27</title>
<path fill="none" stroke="#000000" d="M480.6861,-583.4407C496.5447,-572.9497 517.293,-559.2238 534.3573,-547.9351"/>
<polygon fill="#000000" stroke="#000000" points="536.4904,-550.7205 542.8995,-542.284 532.6283,-544.8823 536.4904,-550.7205"/>
</g>
<!-- N28 -->
<g id="node29" class="node">
<title>N28</title>
<ellipse fill="none" stroke="#000000" cx="682" cy="-527.0021" rx="41.0244" ry="18.2703"/>
<text text-anchor="middle" x="682" y="-523.2021" font-family="Times,serif" font-size="16.00" fill="#000000">28: 29</text>
</g>
<!-- N23&#45;&gt;N28 -->
<g id="edge29" class="edge">
<title>N23&#45;&gt;N28</title>
<path fill="none" stroke="#000000" d="M494.3378,-587.4273C534.4442,-574.5135 597.2632,-554.2864 639.0229,-540.8403"/>
<polygon fill="#000000" stroke="#000000" points="640.1917,-544.1409 648.6377,-537.7444 638.0462,-537.4778 640.1917,-544.1409"/>
</g>
<!-- N29 -->
<g id="node30" class="node">
<title>N29</title>
<ellipse fill="none" stroke="#000000" cx="214" cy="-454.2325" rx="51.7379" ry="18.2703"/>
<text text-anchor="middle" x="214" y="-450.4325" font-family="Times,serif" font-size="16.00" fill="#000000">29: A3.2</text>
</g>
<!-- N24&#45;&gt;N29 -->
<g id="edge30" class="edge">
<title>N24&#45;&gt;N29</title>
<path fill="none" stroke="#000000" d="M229.7008,-508.6393C227.4127,-500.7105 224.6838,-491.2542 222.1479,-482.4666"/>
<polygon fill="#000000" stroke="#000000" points="225.433,-481.227 219.2975,-472.5895 218.7075,-483.1679 225.433,-481.227"/>
</g>
<!-- N30 -->
<g id="node31" class="node">
<title>N30</title>
<ellipse fill="none" stroke="#000000" cx="335" cy="-454.2325" rx="51.7379" ry="18.2703"/>
<text text-anchor="middle" x="335" y="-450.4325" font-family="Times,serif" font-size="16.00" fill="#000000">30: A3.2</text>
</g>
<!-- N25&#45;&gt;N30 -->
<g id="edge31" class="edge">
<title>N25&#45;&gt;N30</title>
<path fill="none" stroke="#000000" d="M342.4766,-508.6393C341.4071,-500.8566 340.1353,-491.6021 338.9468,-482.9529"/>
<polygon fill="#000000" stroke="#000000" points="342.3863,-482.273 337.5574,-472.8426 335.4515,-483.226 342.3863,-482.273"/>
</g>
<!-- N31 -->
<g id="node32" class="node">
<title>N31</title>
<ellipse fill="none" stroke="#000000" cx="456" cy="-454.2325" rx="51.7379" ry="18.2703"/>
<text text-anchor="middle" x="456" y="-450.4325" font-family="Times,serif" font-size="16.00" fill="#000000">31: A3.2</text>
</g>
<!-- N26&#45;&gt;N31 -->
<g id="edge32" class="edge">
<title>N26&#45;&gt;N31</title>
<path fill="none" stroke="#000000" d="M456,-508.2621C456,-500.4781 456,-491.2724 456,-482.6861"/>
<polygon fill="#000000" stroke="#000000" points="459.5001,-482.6571 456,-472.6571 452.5001,-482.6571 459.5001,-482.6571"/>
</g>
<!-- N32 -->
<g id="node33" class="node">
<title>N32</title>
<ellipse fill="none" stroke="#000000" cx="577" cy="-454.2325" rx="51.7379" ry="18.2703"/>
<text text-anchor="middle" x="577" y="-450.4325" font-family="Times,serif" font-size="16.00" fill="#000000">32: A3.2</text>
</g>
<!-- N27&#45;&gt;N32 -->
<g id="edge33" class="edge">
<title>N27&#45;&gt;N32</title>
<path fill="none" stroke="#000000" d="M568.7758,-508.6393C569.9522,-500.8566 571.3511,-491.6021 572.6586,-482.9529"/>
<polygon fill="#000000" stroke="#000000" points="576.1528,-483.2534 574.1869,-472.8426 569.2315,-482.2071 576.1528,-483.2534"/>
</g>
<!-- N33 -->
<g id="node34" class="node">
<title>N33</title>
<ellipse fill="none" stroke="#000000" cx="698" cy="-454.2325" rx="51.7379" ry="18.2703"/>
<text text-anchor="middle" x="698" y="-450.4325" font-family="Times,serif" font-size="16.00" fill="#000000">33: A3.2</text>
</g>
<!-- N28&#45;&gt;N33 -->
<g id="edge34" class="edge">
<title>N28&#45;&gt;N33</title>
<path fill="none" stroke="#000000" d="M686.0375,-508.6393C687.7808,-500.7105 689.86,-491.2542 691.7921,-482.4666"/>
<polygon fill="#000000" stroke="#000000" points="695.2347,-483.1078 693.9638,-472.5895 688.398,-481.6046 695.2347,-483.1078"/>
</g>
<!-- N34 -->
<g id="node35" class="node">
<title>N34</title>
<ellipse fill="none" stroke="#000000" cx="396" cy="-381.463" rx="51.7379" ry="18.2703"/>
<text text-anchor="middle" x="396" y="-377.663" font-family="Times,serif" font-size="16.00" fill="#000000">34: D8.3</text>
</g>
<!-- N29&#45;&gt;N34 -->
<g id="edge35" class="edge">
<title>N29&#45;&gt;N34</title>
<path fill="none" stroke="#000000" d="M248.6612,-440.3739C278.0098,-428.6393 320.248,-411.7511 351.9824,-399.0627"/>
<polygon fill="#000000" stroke="#000000" points="353.482,-402.2326 361.4678,-395.2701 350.8831,-395.7328 353.482,-402.2326"/>
</g>
<!-- N30&#45;&gt;N34 -->
<g id="edge36" class="edge">
<title>N30&#45;&gt;N34</title>
<path fill="none" stroke="#000000" d="M350.0787,-436.2446C357.4656,-427.4323 366.4903,-416.6664 374.578,-407.0182"/>
<polygon fill="#000000" stroke="#000000" points="377.3529,-409.1561 381.0948,-399.2441 371.9884,-404.6592 377.3529,-409.1561"/>
</g>
<!-- N31&#45;&gt;N34 -->
<g id="edge37" class="edge">
<title>N31&#45;&gt;N34</title>
<path fill="none" stroke="#000000" d="M441.1685,-436.2446C433.9027,-427.4323 425.0259,-416.6664 417.0708,-407.0182"/>
<polygon fill="#000000" stroke="#000000" points="419.723,-404.733 410.6609,-399.2441 414.3221,-409.1862 419.723,-404.733"/>
</g>
<!-- N35 -->
<g id="node36" class="node">
<title>N35</title>
<ellipse fill="none" stroke="#000000" cx="577" cy="-381.463" rx="50.8235" ry="18.2703"/>
<text text-anchor="middle" x="577" y="-377.663" font-family="Times,serif" font-size="16.00" fill="#000000">35: B0.2</text>
</g>
<!-- N32&#45;&gt;N35 -->
<g id="edge38" class="edge">
<title>N32&#45;&gt;N35</title>
<path fill="none" stroke="#000000" d="M577,-435.4926C577,-427.7085 577,-418.5028 577,-409.9165"/>
<polygon fill="#000000" stroke="#000000" points="580.5001,-409.8875 577,-399.8875 573.5001,-409.8876 580.5001,-409.8875"/>
</g>
<!-- N33&#45;&gt;N35 -->
<g id="edge39" class="edge">
<title>N33&#45;&gt;N35</title>
<path fill="none" stroke="#000000" d="M671.446,-438.263C654.0298,-427.7888 631.0645,-413.9774 612.1407,-402.5967"/>
<polygon fill="#000000" stroke="#000000" points="613.8655,-399.5498 603.492,-397.3953 610.2578,-405.5485 613.8655,-399.5498"/>
</g>
<!-- N36 -->
<g id="node37" class="node">
<title>N36</title>
<ellipse fill="none" stroke="#000000" cx="337" cy="-308.6934" rx="49.4949" ry="18.2703"/>
<text text-anchor="middle" x="337" y="-304.8934" font-family="Times,serif" font-size="16.00" fill="#000000">36: 64.1</text>
</g>
<!-- N34&#45;&gt;N36 -->
<g id="edge40" class="edge">
<title>N34&#45;&gt;N36</title>
<path fill="none" stroke="#000000" d="M381.4157,-363.475C374.271,-354.6628 365.5421,-343.8968 357.7196,-334.2486"/>
<polygon fill="#000000" stroke="#000000" points="360.4331,-332.0379 351.4165,-326.4745 354.9957,-336.4465 360.4331,-332.0379"/>
</g>
<!-- N37 -->
<g id="node38" class="node">
<title>N37</title>
<ellipse fill="none" stroke="#000000" cx="653" cy="-308.6934" rx="49.4949" ry="18.2703"/>
<text text-anchor="middle" x="653" y="-304.8934" font-family="Times,serif" font-size="16.00" fill="#000000">37: 64.1</text>
</g>
<!-- N34&#45;&gt;N37 -->
<g id="edge41" class="edge">
<title>N34&#45;&gt;N37</title>
<path fill="none" stroke="#000000" d="M436.439,-370.0127C481.6671,-357.2063 554.9391,-336.4594 603.5423,-322.6974"/>
<polygon fill="#000000" stroke="#000000" points="604.551,-326.0494 613.2192,-319.9574 602.6439,-319.3142 604.551,-326.0494"/>
</g>
<!-- N38 -->
<g id="node39" class="node">
<title>N38</title>
<ellipse fill="none" stroke="#000000" cx="486" cy="-308.6934" rx="50.41" ry="18.2703"/>
<text text-anchor="middle" x="486" y="-304.8934" font-family="Times,serif" font-size="16.00" fill="#000000">38: E8.3</text>
</g>
<!-- N34&#45;&gt;N38 -->
<g id="edge42" class="edge">
<title>N34&#45;&gt;N38</title>
<path fill="none" stroke="#000000" d="M416.874,-364.5853C428.9147,-354.8498 444.2272,-342.4688 457.3785,-331.8354"/>
<polygon fill="#000000" stroke="#000000" points="459.6636,-334.4887 465.2392,-325.4796 455.2624,-329.0454 459.6636,-334.4887"/>
</g>
<!-- N35&#45;&gt;N38 -->
<g id="edge43" class="edge">
<title>N35&#45;&gt;N38</title>
<path fill="none" stroke="#000000" d="M555.894,-364.5853C543.7196,-354.8498 528.2369,-342.4688 514.9395,-331.8354"/>
<polygon fill="#000000" stroke="#000000" points="516.9874,-328.9915 506.9915,-325.4796 512.6156,-334.4585 516.9874,-328.9915"/>
</g>
<!-- N39 -->
<g id="node40" class="node">
<title>N39</title>
<ellipse fill="none" stroke="#000000" cx="224" cy="-235.9239" rx="52.1524" ry="18.2703"/>
<text text-anchor="middle" x="224" y="-232.1239" font-family="Times,serif" font-size="16.00" fill="#000000">39: CE.3</text>
</g>
<!-- N36&#45;&gt;N39 -->
<g id="edge44" class="edge">
<title>N36&#45;&gt;N39</title>
<path fill="none" stroke="#000000" d="M312.2017,-292.7238C296.2684,-282.4631 275.3619,-268.9998 257.9024,-257.7563"/>
<polygon fill="#000000" stroke="#000000" points="259.4335,-254.5793 249.131,-252.1077 255.6435,-260.4646 259.4335,-254.5793"/>
</g>
<!-- N40 -->
<g id="node41" class="node">
<title>N40</title>
<ellipse fill="none" stroke="#000000" cx="678" cy="-235.9239" rx="52.1524" ry="18.2703"/>
<text text-anchor="middle" x="678" y="-232.1239" font-family="Times,serif" font-size="16.00" fill="#000000">40: CE.3</text>
</g>
<!-- N37&#45;&gt;N40 -->
<g id="edge45" class="edge">
<title>N37&#45;&gt;N40</title>
<path fill="none" stroke="#000000" d="M659.3086,-290.3306C662.0621,-282.3157 665.3519,-272.7398 668.3985,-263.8717"/>
<polygon fill="#000000" stroke="#000000" points="671.7544,-264.8755 671.6935,-254.2808 665.1342,-262.6011 671.7544,-264.8755"/>
</g>
<!-- N41 -->
<g id="node42" class="node">
<title>N41</title>
<ellipse fill="none" stroke="#000000" cx="359" cy="-235.9239" rx="42.3529" ry="18.2703"/>
<text text-anchor="middle" x="359" y="-232.1239" font-family="Times,serif" font-size="16.00" fill="#000000">41: 2B</text>
</g>
<!-- N38&#45;&gt;N41 -->
<g id="edge46" class="edge">
<title>N38&#45;&gt;N41</title>
<path fill="none" stroke="#000000" d="M458.7553,-293.0825C439.7086,-282.169 414.1173,-267.5055 393.6241,-255.7631"/>
<polygon fill="#000000" stroke="#000000" points="395.3156,-252.6985 384.8989,-250.7637 391.8355,-258.7721 395.3156,-252.6985"/>
</g>
<!-- N42 -->
<g id="node43" class="node">
<title>N42</title>
<ellipse fill="none" stroke="#000000" cx="462" cy="-235.9239" rx="42.3529" ry="18.2703"/>
<text text-anchor="middle" x="462" y="-232.1239" font-family="Times,serif" font-size="16.00" fill="#000000">42: 2B</text>
</g>
<!-- N38&#45;&gt;N42 -->
<g id="edge47" class="edge">
<title>N38&#45;&gt;N42</title>
<path fill="none" stroke="#000000" d="M479.9438,-290.3306C477.3004,-282.3157 474.1422,-272.7398 471.2174,-263.8717"/>
<polygon fill="#000000" stroke="#000000" points="474.5104,-262.6814 468.0543,-254.2808 467.8626,-264.8739 474.5104,-262.6814"/>
</g>
<!-- N43 -->
<g id="node44" class="node">
<title>N43</title>
<ellipse fill="none" stroke="#000000" cx="565" cy="-235.9239" rx="42.3529" ry="18.2703"/>
<text text-anchor="middle" x="565" y="-232.1239" font-family="Times,serif" font-size="16.00" fill="#000000">43: 2B</text>
</g>
<!-- N38&#45;&gt;N43 -->
<g id="edge48" class="edge">
<title>N38&#45;&gt;N43</title>
<path fill="none" stroke="#000000" d="M504.7219,-291.4481C515.028,-281.9547 527.9724,-270.0312 539.2214,-259.6694"/>
<polygon fill="#000000" stroke="#000000" points="541.7011,-262.1439 546.685,-252.7944 536.9585,-256.9952 541.7011,-262.1439"/>
</g>
<!-- N44 -->
<g id="node45" class="node">
<title>N44</title>
<ellipse fill="none" stroke="#000000" cx="813" cy="-235.9239" rx="42.3529" ry="18.2703"/>
<text text-anchor="middle" x="813" y="-232.1239" font-family="Times,serif" font-size="16.00" fill="#000000">44: 2B</text>
</g>
<!-- N38&#45;&gt;N44 -->
<g id="edge49" class="edge">
<title>N38&#45;&gt;N44</title>
<path fill="none" stroke="#000000" d="M529.9716,-299.6834C580.513,-289.2247 665.9073,-271.2398 739,-254.3087 747.8078,-252.2684 757.1829,-250.0083 766.1957,-247.7908"/>
<polygon fill="#000000" stroke="#000000" points="767.3036,-251.1222 776.168,-245.3192 765.6197,-244.3277 767.3036,-251.1222"/>
</g>
<!-- N45 -->
<g id="node46" class="node">
<title>N45</title>
<ellipse fill="none" stroke="#000000" cx="92" cy="-163.1543" rx="41.0244" ry="18.2703"/>
<text text-anchor="middle" x="92" y="-159.3543" font-family="Times,serif" font-size="16.00" fill="#000000">45: 27</text>
</g>
<!-- N39&#45;&gt;N45 -->
<g id="edge50" class="edge">
<title>N39&#45;&gt;N45</title>
<path fill="none" stroke="#000000" d="M195.6827,-220.313C175.5322,-209.2043 148.334,-194.2104 126.8501,-182.3666"/>
<polygon fill="#000000" stroke="#000000" points="128.4769,-179.2669 118.0297,-177.5041 125.0974,-185.3971 128.4769,-179.2669"/>
</g>
<!-- N46 -->
<g id="node47" class="node">
<title>N46</title>
<ellipse fill="none" stroke="#000000" cx="212" cy="-163.1543" rx="41.0244" ry="18.2703"/>
<text text-anchor="middle" x="212" y="-159.3543" font-family="Times,serif" font-size="16.00" fill="#000000">46: 27</text>
</g>
<!-- N39&#45;&gt;N46 -->
<g id="edge51" class="edge">
<title>N39&#45;&gt;N46</title>
<path fill="none" stroke="#000000" d="M220.9719,-217.5611C219.6644,-209.6323 218.105,-200.176 216.6559,-191.3884"/>
<polygon fill="#000000" stroke="#000000" points="220.1076,-190.8085 215.0271,-181.5113 213.2009,-191.9475 220.1076,-190.8085"/>
</g>
<!-- N47 -->
<g id="node48" class="node">
<title>N47</title>
<ellipse fill="none" stroke="#000000" cx="464" cy="-163.1543" rx="50.41" ry="18.2703"/>
<text text-anchor="middle" x="464" y="-159.3543" font-family="Times,serif" font-size="16.00" fill="#000000">47: F3.3</text>
</g>
<!-- N39&#45;&gt;N47 -->
<g id="edge52" class="edge">
<title>N39&#45;&gt;N47</title>
<path fill="none" stroke="#000000" d="M263.6311,-223.9075C305.2201,-211.2974 370.6451,-191.4601 415.3404,-177.9082"/>
<polygon fill="#000000" stroke="#000000" points="416.5521,-181.1983 425.1063,-174.9471 414.521,-174.4994 416.5521,-181.1983"/>
</g>
<!-- N40&#45;&gt;N47 -->
<g id="edge55" class="edge">
<title>N40&#45;&gt;N47</title>
<path fill="none" stroke="#000000" d="M640.2337,-223.0817C604.0622,-210.7817 549.3919,-192.1914 510.5452,-178.9818"/>
<polygon fill="#000000" stroke="#000000" points="511.6251,-175.6522 501.0307,-175.7464 509.3715,-182.2796 511.6251,-175.6522"/>
</g>
<!-- N48 -->
<g id="node49" class="node">
<title>N48</title>
<ellipse fill="none" stroke="#000000" cx="622" cy="-163.1543" rx="41.0244" ry="18.2703"/>
<text text-anchor="middle" x="622" y="-159.3543" font-family="Times,serif" font-size="16.00" fill="#000000">48: 27</text>
</g>
<!-- N40&#45;&gt;N48 -->
<g id="edge53" class="edge">
<title>N40&#45;&gt;N48</title>
<path fill="none" stroke="#000000" d="M664.1573,-217.9359C657.3936,-209.1467 649.1341,-198.4139 641.7243,-188.7851"/>
<polygon fill="#000000" stroke="#000000" points="644.3627,-186.4748 635.4902,-180.6843 638.8152,-190.7439 644.3627,-186.4748"/>
</g>
<!-- N49 -->
<g id="node50" class="node">
<title>N49</title>
<ellipse fill="none" stroke="#000000" cx="722" cy="-163.1543" rx="41.0244" ry="18.2703"/>
<text text-anchor="middle" x="722" y="-159.3543" font-family="Times,serif" font-size="16.00" fill="#000000">49: 27</text>
</g>
<!-- N40&#45;&gt;N49 -->
<g id="edge54" class="edge">
<title>N40&#45;&gt;N49</title>
<path fill="none" stroke="#000000" d="M688.8764,-217.9359C694.0448,-209.3881 700.3248,-199.0019 706.0213,-189.5808"/>
<polygon fill="#000000" stroke="#000000" points="709.0696,-191.3037 711.2487,-180.9354 703.0794,-187.6818 709.0696,-191.3037"/>
</g>
<!-- N41&#45;&gt;N47 -->
<g id="edge56" class="edge">
<title>N41&#45;&gt;N47</title>
<path fill="none" stroke="#000000" d="M381.5251,-220.313C396.168,-210.1648 415.4894,-196.7743 431.75,-185.505"/>
<polygon fill="#000000" stroke="#000000" points="434.1942,-188.0695 440.4196,-179.4966 430.2068,-182.3161 434.1942,-188.0695"/>
</g>
<!-- N42&#45;&gt;N47 -->
<g id="edge57" class="edge">
<title>N42&#45;&gt;N47</title>
<path fill="none" stroke="#000000" d="M462.515,-217.1839C462.729,-209.3999 462.982,-200.1942 463.218,-191.6079"/>
<polygon fill="#000000" stroke="#000000" points="466.7175,-191.6713 463.4936,-181.5789 459.7201,-191.4789 466.7175,-191.6713"/>
</g>
<!-- N43&#45;&gt;N47 -->
<g id="edge58" class="edge">
<title>N43&#45;&gt;N47</title>
<path fill="none" stroke="#000000" d="M543.0845,-220.134C529.0842,-210.0469 510.7134,-196.8109 495.2018,-185.635"/>
<polygon fill="#000000" stroke="#000000" points="497.0839,-182.6771 486.9244,-179.6711 492.9919,-188.3566 497.0839,-182.6771"/>
</g>
<!-- N50 -->
<g id="node51" class="node">
<title>N50</title>
<ellipse fill="none" stroke="#000000" cx="834" cy="-163.1543" rx="52.1524" ry="18.2703"/>
<text text-anchor="middle" x="834" y="-159.3543" font-family="Times,serif" font-size="16.00" fill="#000000">50: EB.3</text>
</g>
<!-- N44&#45;&gt;N50 -->
<g id="edge59" class="edge">
<title>N44&#45;&gt;N50</title>
<path fill="none" stroke="#000000" d="M818.2992,-217.5611C820.5873,-209.6323 823.3162,-200.176 825.8521,-191.3884"/>
<polygon fill="#000000" stroke="#000000" points="829.2925,-192.0897 828.7025,-181.5113 822.567,-190.1488 829.2925,-192.0897"/>
</g>
<!-- N51 -->
<g id="node52" class="node">
<title>N51</title>
<ellipse fill="none" stroke="#000000" cx="83" cy="-90.3848" rx="50.41" ry="18.2703"/>
<text text-anchor="middle" x="83" y="-86.5848" font-family="Times,serif" font-size="16.00" fill="#000000">51: E9.3</text>
</g>
<!-- N45&#45;&gt;N51 -->
<g id="edge60" class="edge">
<title>N45&#45;&gt;N51</title>
<path fill="none" stroke="#000000" d="M89.7289,-144.7915C88.7664,-137.0088 87.6218,-127.7543 86.5521,-119.1051"/>
<polygon fill="#000000" stroke="#000000" points="90.0027,-118.4896 85.3017,-108.9948 83.0556,-119.3489 90.0027,-118.4896"/>
</g>
<!-- N52 -->
<g id="node53" class="node">
<title>N52</title>
<ellipse fill="none" stroke="#000000" cx="201" cy="-90.3848" rx="50.41" ry="18.2703"/>
<text text-anchor="middle" x="201" y="-86.5848" font-family="Times,serif" font-size="16.00" fill="#000000">52: E9.3</text>
</g>
<!-- N46&#45;&gt;N52 -->
<g id="edge61" class="edge">
<title>N46&#45;&gt;N52</title>
<path fill="none" stroke="#000000" d="M209.2242,-144.7915C208.0387,-136.9489 206.6273,-127.6118 205.3113,-118.9056"/>
<polygon fill="#000000" stroke="#000000" points="208.7303,-118.1063 203.7749,-108.7417 201.8089,-119.1526 208.7303,-118.1063"/>
</g>
<!-- N53 -->
<g id="node54" class="node">
<title>N53</title>
<ellipse fill="none" stroke="#000000" cx="310" cy="-90.3848" rx="41.0244" ry="18.2703"/>
<text text-anchor="middle" x="310" y="-86.5848" font-family="Times,serif" font-size="16.00" fill="#000000">53: 49</text>
</g>
<!-- N47&#45;&gt;N53 -->
<g id="edge62" class="edge">
<title>N47&#45;&gt;N53</title>
<path fill="none" stroke="#000000" d="M433.2059,-148.6032C408.5808,-136.9671 373.9504,-120.6032 347.6729,-108.1864"/>
<polygon fill="#000000" stroke="#000000" points="348.9404,-104.9143 338.4037,-103.8064 345.9498,-111.2432 348.9404,-104.9143"/>
</g>
<!-- N54 -->
<g id="node55" class="node">
<title>N54</title>
<ellipse fill="none" stroke="#000000" cx="410" cy="-90.3848" rx="41.0244" ry="18.2703"/>
<text text-anchor="middle" x="410" y="-86.5848" font-family="Times,serif" font-size="16.00" fill="#000000">54: 49</text>
</g>
<!-- N47&#45;&gt;N54 -->
<g id="edge63" class="edge">
<title>N47&#45;&gt;N54</title>
<path fill="none" stroke="#000000" d="M450.6517,-145.1663C444.1295,-136.3771 436.165,-125.6444 429.0198,-116.0156"/>
<polygon fill="#000000" stroke="#000000" points="431.7783,-113.8595 423.0084,-107.9147 426.157,-118.0309 431.7783,-113.8595"/>
</g>
<!-- N55 -->
<g id="node56" class="node">
<title>N55</title>
<ellipse fill="none" stroke="#000000" cx="510" cy="-90.3848" rx="41.0244" ry="18.2703"/>
<text text-anchor="middle" x="510" y="-86.5848" font-family="Times,serif" font-size="16.00" fill="#000000">55: 49</text>
</g>
<!-- N47&#45;&gt;N55 -->
<g id="edge64" class="edge">
<title>N47&#45;&gt;N55</title>
<path fill="none" stroke="#000000" d="M475.3708,-145.1663C480.7742,-136.6185 487.3396,-126.2323 493.295,-116.8112"/>
<polygon fill="#000000" stroke="#000000" points="496.3752,-118.4888 498.76,-108.1658 490.4582,-114.7485 496.3752,-118.4888"/>
</g>
<!-- N56 -->
<g id="node57" class="node">
<title>N56</title>
<ellipse fill="none" stroke="#000000" cx="610" cy="-90.3848" rx="41.0244" ry="18.2703"/>
<text text-anchor="middle" x="610" y="-86.5848" font-family="Times,serif" font-size="16.00" fill="#000000">56: 49</text>
</g>
<!-- N47&#45;&gt;N56 -->
<g id="edge65" class="edge">
<title>N47&#45;&gt;N56</title>
<path fill="none" stroke="#000000" d="M493.8976,-148.2527C516.83,-136.8227 548.6039,-120.9859 573.1156,-108.7687"/>
<polygon fill="#000000" stroke="#000000" points="574.7322,-111.8737 582.1208,-104.2804 571.6096,-105.6088 574.7322,-111.8737"/>
</g>
<!-- N57 -->
<g id="node58" class="node">
<title>N57</title>
<ellipse fill="none" stroke="#000000" cx="721" cy="-90.3848" rx="52.1524" ry="18.2703"/>
<text text-anchor="middle" x="721" y="-86.5848" font-family="Times,serif" font-size="16.00" fill="#000000">57: CB.3</text>
</g>
<!-- N47&#45;&gt;N57 -->
<g id="edge66" class="edge">
<title>N47&#45;&gt;N57</title>
<path fill="none" stroke="#000000" d="M504.615,-152.1656C544.3051,-141.3609 606.404,-124.2799 660,-108.7696 663.7768,-107.6766 667.6809,-106.5327 671.604,-105.373"/>
<polygon fill="#000000" stroke="#000000" points="672.7471,-108.6846 681.3338,-102.4781 670.7509,-101.9753 672.7471,-108.6846"/>
</g>
<!-- N48&#45;&gt;N57 -->
<g id="edge67" class="edge">
<title>N48&#45;&gt;N57</title>
<path fill="none" stroke="#000000" d="M643.4815,-147.3644C657.1087,-137.3479 674.96,-124.2263 690.0966,-113.1002"/>
<polygon fill="#000000" stroke="#000000" points="692.198,-115.8994 698.1825,-107.1567 688.0521,-110.2592 692.198,-115.8994"/>
</g>
<!-- N49&#45;&gt;N57 -->
<g id="edge68" class="edge">
<title>N49&#45;&gt;N57</title>
<path fill="none" stroke="#000000" d="M721.7425,-144.4144C721.6355,-136.6303 721.509,-127.4246 721.391,-118.8383"/>
<polygon fill="#000000" stroke="#000000" points="724.8904,-118.7603 721.2532,-108.8093 717.891,-118.8565 724.8904,-118.7603"/>
</g>
<!-- N50&#45;&gt;N57 -->
<g id="edge72" class="edge">
<title>N50&#45;&gt;N57</title>
<path fill="none" stroke="#000000" d="M808.9216,-147.0044C793.086,-136.8066 772.4217,-123.4993 755.1057,-112.3481"/>
<polygon fill="#000000" stroke="#000000" points="756.7015,-109.2128 746.399,-106.7412 752.9115,-115.0981 756.7015,-109.2128"/>
</g>
<!-- N58 -->
<g id="node59" class="node">
<title>N58</title>
<ellipse fill="none" stroke="#000000" cx="834" cy="-90.3848" rx="43.2674" ry="18.2703"/>
<text text-anchor="middle" x="834" y="-86.5848" font-family="Times,serif" font-size="16.00" fill="#000000">58: 3A</text>
</g>
<!-- N50&#45;&gt;N58 -->
<g id="edge69" class="edge">
<title>N50&#45;&gt;N58</title>
<path fill="none" stroke="#000000" d="M834,-144.4144C834,-136.6303 834,-127.4246 834,-118.8383"/>
<polygon fill="#000000" stroke="#000000" points="837.5001,-118.8093 834,-108.8093 830.5001,-118.8094 837.5001,-118.8093"/>
</g>
<!-- N59 -->
<g id="node60" class="node">
<title>N59</title>
<ellipse fill="none" stroke="#000000" cx="938" cy="-90.3848" rx="43.2674" ry="18.2703"/>
<text text-anchor="middle" x="938" y="-86.5848" font-family="Times,serif" font-size="16.00" fill="#000000">59: 3A</text>
</g>
<!-- N50&#45;&gt;N59 -->
<g id="edge70" class="edge">
<title>N50&#45;&gt;N59</title>
<path fill="none" stroke="#000000" d="M857.5992,-146.6418C872.1623,-136.4519 891.0124,-123.2623 906.7999,-112.2157"/>
<polygon fill="#000000" stroke="#000000" points="909.022,-114.9326 915.2089,-106.3319 905.0089,-109.1972 909.022,-114.9326"/>
</g>
<!-- N60 -->
<g id="node61" class="node">
<title>N60</title>
<ellipse fill="none" stroke="#000000" cx="1042" cy="-90.3848" rx="43.2674" ry="18.2703"/>
<text text-anchor="middle" x="1042" y="-86.5848" font-family="Times,serif" font-size="16.00" fill="#000000">60: 3A</text>
</g>
<!-- N50&#45;&gt;N60 -->
<g id="edge71" class="edge">
<title>N50&#45;&gt;N60</title>
<path fill="none" stroke="#000000" d="M871.5261,-150.1237C903.1354,-139.1353 949.5415,-122.9739 990,-108.7696 992.9321,-107.7401 995.9564,-106.6763 999.0025,-105.6032"/>
<polygon fill="#000000" stroke="#000000" points="1000.4531,-108.803 1008.7193,-102.1757 998.1245,-102.2016 1000.4531,-108.803"/>
</g>
<!-- N61 -->
<g id="node62" class="node">
<title>N61</title>
<path fill="none" stroke="#000000" d="M62,-36C62,-36 12,-36 12,-36 6,-36 0,-30 0,-24 0,-24 0,-12 0,-12 0,-6 6,0 12,0 12,0 62,0 62,0 68,0 74,-6 74,-12 74,-12 74,-24 74,-24 74,-30 68,-36 62,-36"/>
<text text-anchor="middle" x="37" y="-14.2" font-family="Times,serif" font-size="16.00" fill="#000000">61: BC.2</text>
</g>
<!-- N51&#45;&gt;N61 -->
<g id="edge73" class="edge">
<title>N51&#45;&gt;N61</title>
<path fill="none" stroke="#000000" d="M71.3923,-72.119C66.0675,-63.7401 59.6529,-53.6462 53.8131,-44.4568"/>
<polygon fill="#000000" stroke="#000000" points="56.7622,-42.5719 48.4447,-36.0091 50.8543,-46.3263 56.7622,-42.5719"/>
</g>
<!-- N62 -->
<g id="node63" class="node">
<title>N62</title>
<path fill="none" stroke="#000000" d="M154,-36C154,-36 104,-36 104,-36 98,-36 92,-30 92,-24 92,-24 92,-12 92,-12 92,-6 98,0 104,0 104,0 154,0 154,0 160,0 166,-6 166,-12 166,-12 166,-24 166,-24 166,-30 160,-36 154,-36"/>
<text text-anchor="middle" x="129" y="-14.2" font-family="Times,serif" font-size="16.00" fill="#000000">62: BC.2</text>
</g>
<!-- N51&#45;&gt;N62 -->
<g id="edge74" class="edge">
<title>N51&#45;&gt;N62</title>
<path fill="none" stroke="#000000" d="M94.6077,-72.119C99.9325,-63.7401 106.3471,-53.6462 112.1869,-44.4568"/>
<polygon fill="#000000" stroke="#000000" points="115.1457,-46.3263 117.5553,-36.0091 109.2378,-42.5719 115.1457,-46.3263"/>
</g>
<!-- N63 -->
<g id="node64" class="node">
<title>N63</title>
<path fill="none" stroke="#000000" d="M578,-36C578,-36 542,-36 542,-36 536,-36 530,-30 530,-24 530,-24 530,-12 530,-12 530,-6 536,0 542,0 542,0 578,0 578,0 584,0 590,-6 590,-12 590,-12 590,-24 590,-24 590,-30 584,-36 578,-36"/>
<text text-anchor="middle" x="560" y="-14.2" font-family="Times,serif" font-size="16.00" fill="#000000">63: 4B</text>
</g>
<!-- N51&#45;&gt;N63 -->
<g id="edge75" class="edge">
<title>N51&#45;&gt;N63</title>
<path fill="none" stroke="#000000" d="M119.8753,-77.8182C127.1483,-75.6459 134.768,-73.5814 142,-72 278.6062,-42.1296 444.1916,-26.7637 519.3673,-20.8926"/>
<polygon fill="#000000" stroke="#000000" points="520.085,-24.348 529.7886,-20.0947 519.5505,-17.3685 520.085,-24.348"/>
</g>
<!-- N52&#45;&gt;N63 -->
<g id="edge76" class="edge">
<title>N52&#45;&gt;N63</title>
<path fill="none" stroke="#000000" d="M238.2578,-78.0091C245.4291,-75.8451 252.9136,-73.7348 260,-72 351.9422,-49.4922 461.8589,-32.075 519.748,-23.6227"/>
<polygon fill="#000000" stroke="#000000" points="520.5395,-27.0447 529.9356,-22.1496 519.5377,-20.1168 520.5395,-27.0447"/>
</g>
<!-- N53&#45;&gt;N63 -->
<g id="edge77" class="edge">
<title>N53&#45;&gt;N63</title>
<path fill="none" stroke="#000000" d="M341.3264,-78.384C347.4833,-76.1622 353.9187,-73.9348 360,-72 414.9757,-54.509 479.5795,-37.7363 520.1617,-27.6488"/>
<polygon fill="#000000" stroke="#000000" points="521.073,-31.029 529.9411,-25.2319 519.3934,-24.2335 521.073,-31.029"/>
</g>
<!-- N54&#45;&gt;N63 -->
<g id="edge78" class="edge">
<title>N54&#45;&gt;N63</title>
<path fill="none" stroke="#000000" d="M438.2139,-76.7698C461.4936,-65.5357 494.7866,-49.4697 520.6809,-36.974"/>
<polygon fill="#000000" stroke="#000000" points="522.3688,-40.0458 529.8539,-32.5475 519.3265,-33.7414 522.3688,-40.0458"/>
</g>
<!-- N55&#45;&gt;N63 -->
<g id="edge79" class="edge">
<title>N55&#45;&gt;N63</title>
<path fill="none" stroke="#000000" d="M522.3596,-72.4919C528.2048,-64.0298 535.3011,-53.7565 541.7497,-44.4209"/>
<polygon fill="#000000" stroke="#000000" points="544.6316,-46.407 547.4353,-36.1898 538.8721,-42.4285 544.6316,-46.407"/>
</g>
<!-- N56&#45;&gt;N63 -->
<g id="edge80" class="edge">
<title>N56&#45;&gt;N63</title>
<path fill="none" stroke="#000000" d="M597.6404,-72.4919C591.7952,-64.0298 584.6989,-53.7565 578.2503,-44.4209"/>
<polygon fill="#000000" stroke="#000000" points="581.1279,-42.4285 572.5647,-36.1898 575.3684,-46.407 581.1279,-42.4285"/>
</g>
<!-- N57&#45;&gt;N63 -->
<g id="edge81" class="edge">
<title>N57&#45;&gt;N63</title>
<path fill="none" stroke="#000000" d="M688.4192,-75.7366C662.6928,-64.1701 626.7,-47.988 599.3627,-35.6973"/>
<polygon fill="#000000" stroke="#000000" points="600.641,-32.4346 590.0852,-31.5261 597.7705,-38.819 600.641,-32.4346"/>
</g>
<!-- N58&#45;&gt;N63 -->
<g id="edge82" class="edge">
<title>N58&#45;&gt;N63</title>
<path fill="none" stroke="#000000" d="M801.4335,-78.3033C795.0292,-76.0886 788.3326,-73.8844 782,-72 719.042,-53.2658 644.6402,-36.1727 599.9449,-26.4369"/>
<polygon fill="#000000" stroke="#000000" points="600.5745,-22.9922 590.0605,-24.2984 599.0943,-29.8339 600.5745,-22.9922"/>
</g>
<!-- N59&#45;&gt;N63 -->
<g id="edge83" class="edge">
<title>N59&#45;&gt;N63</title>
<path fill="none" stroke="#000000" d="M905.8174,-78.0188C899.3203,-75.8031 892.4911,-73.6712 886,-72 784.6397,-45.9029 662.1755,-29.5764 600.1697,-22.3488"/>
<polygon fill="#000000" stroke="#000000" points="600.365,-18.8483 590.0312,-21.1857 599.5671,-25.8027 600.365,-18.8483"/>
</g>
<!-- N60&#45;&gt;N63 -->
<g id="edge84" class="edge">
<title>N60&#45;&gt;N63</title>
<path fill="none" stroke="#000000" d="M1010.1457,-77.911C1003.5617,-75.677 996.6158,-73.5657 990,-72 849.0956,-38.6539 677.0356,-24.9267 600.2917,-20.1663"/>
<polygon fill="#000000" stroke="#000000" points="600.3009,-16.6606 590.1085,-19.5529 599.88,-23.6479 600.3009,-16.6606"/>
</g>
</g>
</svg>
