<?xml version="1.0" encoding="UTF-8" standalone="no"?>
<!-- Created with Inkscape (http://www.inkscape.org/) -->
<svg
   xmlns:dc="http://purl.org/dc/elements/1.1/"
   xmlns:cc="http://creativecommons.org/ns#"
   xmlns:rdf="http://www.w3.org/1999/02/22-rdf-syntax-ns#"
   xmlns:svg="http://www.w3.org/2000/svg"
   xmlns="http://www.w3.org/2000/svg"
   xmlns:sodipodi="http://sodipodi.sourceforge.net/DTD/sodipodi-0.dtd"
   xmlns:inkscape="http://www.inkscape.org/namespaces/inkscape"
   id="svg2"
   sodipodi:version="0.32"
   inkscape:version="0.46"
   width="1052.5"
   height="743.75"
   xml:space="preserve"
   sodipodi:docname="Proposal.Alcarinque.svg"
   inkscape:output_extension="org.inkscape.output.svg.inkscape"><metadata
     id="metadata7"><rdf:RDF><cc:Work
         rdf:about=""><dc:format>image/svg+xml</dc:format><dc:type
           rdf:resource="http://purl.org/dc/dcmitype/StillImage" /><cc:license
           rdf:resource="http://creativecommons.org/licenses/by-sa/3.0/" /><dc:title>Lumiera GUI proposal</dc:title><dc:creator><cc:Agent><dc:title>Francisco G. Rodriguez (»Alcarinque«)</dc:title></cc:Agent></dc:creator><dc:date>07.05.2008</dc:date><dc:description>passed in as part of the Lumiera GUI discussion.
Added to Lumiera Website 2/2011 by Ichthyostega</dc:description></cc:Work><cc:License
         rdf:about="http://creativecommons.org/licenses/by-sa/3.0/"><cc:permits
           rdf:resource="http://creativecommons.org/ns#Reproduction" /><cc:permits
           rdf:resource="http://creativecommons.org/ns#Distribution" /><cc:requires
           rdf:resource="http://creativecommons.org/ns#Notice" /><cc:requires
           rdf:resource="http://creativecommons.org/ns#Attribution" /><cc:permits
           rdf:resource="http://creativecommons.org/ns#DerivativeWorks" /><cc:requires
           rdf:resource="http://creativecommons.org/ns#ShareAlike" /></cc:License></rdf:RDF></metadata><defs
     id="defs5"><inkscape:perspective
       sodipodi:type="inkscape:persp3d"
       inkscape:vp_x="0 : 526.18109 : 1"
       inkscape:vp_y="0 : 1000 : 0"
       inkscape:vp_z="744.09448 : 526.18109 : 1"
       inkscape:persp3d-origin="372.04724 : 350.78739 : 1"
       id="perspective9" /><clipPath
       clipPathUnits="userSpaceOnUse"
       id="clipPath17"><path
         d="M 0,-0.3 L 842,-0.3 L 842,595 L 0,595 L 0,-0.3 z"
         clip-rule="evenodd"
         id="path19" /></clipPath></defs><sodipodi:namedview
     inkscape:window-height="960"
     inkscape:window-width="1428"
     inkscape:pageshadow="2"
     inkscape:pageopacity="0.0"
     guidetolerance="10.0"
     gridtolerance="10.0"
     objecttolerance="10.0"
     borderopacity="1.0"
     bordercolor="#666666"
     pagecolor="#ffffff"
     id="base"
     showgrid="false"
     inkscape:zoom="1.1021378"
     inkscape:cx="536.31226"
     inkscape:cy="422.53753"
     inkscape:window-x="0"
     inkscape:window-y="0"
     inkscape:current-layer="g11" /><g
     id="g11"
     inkscape:groupmode="layer"
     inkscape:label="ui_architecture"
     transform="matrix(1.25,0,0,-1.25,0,743.75)"><g
       id="g183"><path
         d="M 99.2,382.4 L 113.4,382.4"
         style="fill:none;stroke:none"
         id="path185" /></g><g
       id="g187"><path
         d="M 155.9,382.4 L 170.1,382.4"
         style="fill:none;stroke:none"
         id="path189" /></g><g
       id="g191"><path
         d="M 212.6,382.4 L 226.8,382.4"
         style="fill:none;stroke:none"
         id="path193" /></g><g
       id="g3939"
       transform="matrix(0.5627991,0,0,0.5627991,0,260.13454)"><path
         id="path21"
         style="fill:#f5e7c3;fill-opacity:1;fill-rule:evenodd;stroke:none"
         d="M 0,595 L 841.9,595 L 841.9,150.05345 L 0,150.05345 L 0,595 z" /><path
         id="path23"
         style="fill:#c0c0c0;fill-opacity:1;fill-rule:evenodd;stroke:#439ee0;stroke-width:1.77683294;stroke-opacity:1"
         d="M 269.3,240.7 L 28.3,240.7 L 28.3,439.1 L 510.2,439.1 L 510.2,240.7 L 269.3,240.7 z" /><g
         id="g25"><path
           id="path27"
           style="fill:none;stroke:none"
           d="M 269.3,240.7 L 28.3,240.7 L 28.3,439.1 L 510.2,439.1 L 510.2,240.7 L 269.3,240.7 z" /></g><g
         id="g29"><text
           id="text31"
           transform="matrix(1,0,0,-1,325.4,253)"><tspan
             id="tspan33"
             sodipodi:role="line"
             y="0"
             x="0 12.996 23.004 32.903999 42.911999 47.897999 60.894001 70.902 85.896004 95.795998 105.804 114.804 118.71 123.786 133.686"
             style="font-size:18px;font-variant:normal;font-weight:normal;writing-mode:lr-tb;fill:#555555;fill-opacity:1;fill-rule:nonzero;stroke:none;font-family:ArialMT;-inkscape-font-specification:ArialMT">Node Compositor</tspan></text>
</g><path
         id="path35"
         style="fill:#ccffff;fill-opacity:1;fill-rule:evenodd;stroke:#5216df;stroke-width:1.77683294;stroke-opacity:1"
         d="M 240.9,481.6 L 42.5,481.6 L 42.5,566.7 L 439.4,566.7 L 439.4,481.6 L 240.9,481.6 z" /><g
         id="g37"><path
           id="path39"
           style="fill:none;stroke:none"
           d="M 240.9,481.6 L 42.5,481.6 L 42.5,566.7 L 439.4,566.7 L 439.4,481.6 L 240.9,481.6 z" /></g><g
         id="g41"><text
           id="text43"
           transform="matrix(1,0,0,-1,351.3,487.7)"><tspan
             id="tspan45"
             sodipodi:role="line"
             y="0"
             x="0 10.494 14.4 29.393999 39.402 43.307999 47.304001 57.312"
             style="font-size:18px;font-variant:normal;font-weight:normal;writing-mode:lr-tb;fill:#555555;fill-opacity:1;fill-rule:nonzero;stroke:none;font-family:ArialMT;-inkscape-font-specification:ArialMT">Timeline</tspan></text>
</g><path
         id="path47"
         style="fill:#ffff99;fill-opacity:1;fill-rule:evenodd;stroke:none"
         d="M 170.1,254.8 L 42.5,254.8 L 42.5,424.9 L 297.6,424.9 L 297.6,254.8 L 170.1,254.8 z" /><g
         id="g49"><path
           id="path51"
           style="fill:none;stroke:none"
           d="M 170.1,254.8 L 42.5,254.8 L 42.5,424.9 L 297.6,424.9 L 297.6,254.8 L 170.1,254.8 z" /></g><g
         id="g53"><text
           id="text55"
           transform="matrix(1,0,0,-1,117.3,273.2)"><tspan
             id="tspan57"
             sodipodi:role="line"
             y="0"
             x="0 12.906 22.914 32.922001 42.821999 47.807999 51.804001 61.812 70.505997 80.514 90.522003 95.508003 100.494"
             style="font-size:18px;font-variant:normal;font-weight:normal;writing-mode:lr-tb;fill:#555555;fill-opacity:1;fill-rule:nonzero;stroke:none;font-family:ArialMT;-inkscape-font-specification:ArialMT">Node layout I</tspan></text>
</g><path
         id="path59"
         style="fill:#ff9966;fill-opacity:1;fill-rule:evenodd;stroke:none"
         d="M 148.8,524.1 L 85,524.1 L 85,538.3 L 212.6,538.3 L 212.6,524.1 L 148.8,524.1 z" /><g
         id="g61"><path
           id="path63"
           style="fill:none;stroke:none"
           d="M 148.8,524.1 L 85,524.1 L 85,538.3 L 212.6,538.3 L 212.6,524.1 L 148.8,524.1 z" /></g><g
         id="g65"><text
           id="text67"
           transform="matrix(1,0,0,-1,130.4,526.3)"><tspan
             id="tspan69"
             sodipodi:role="line"
             y="0"
             x="0 9.2959995 13.286 17.976 21.07 28.854 32.844002"
             style="font-size:14px;font-variant:normal;font-weight:normal;writing-mode:lr-tb;fill:#555555;fill-opacity:1;fill-rule:nonzero;stroke:none;font-family:ArialMT;-inkscape-font-specification:ArialMT">Strip I</tspan></text>
</g><path
         id="path71"
         style="fill:#ff9966;fill-opacity:1;fill-rule:evenodd;stroke:none"
         d="M 255.1,495.8 L 198.4,495.8 L 198.4,510 L 311.8,510 L 311.8,495.8 L 255.1,495.8 z" /><g
         id="g73"><path
           id="path75"
           style="fill:none;stroke:none"
           d="M 255.1,495.8 L 198.4,495.8 L 198.4,510 L 311.8,510 L 311.8,495.8 L 255.1,495.8 z" /></g><g
         id="g77"><text
           id="text79"
           transform="matrix(1,0,0,-1,234.7,498)"><tspan
             id="tspan81"
             sodipodi:role="line"
             y="0"
             x="0 9.3800001 13.272 17.962 21.056 28.84 32.830002 36.82"
             style="font-size:14px;font-variant:normal;font-weight:normal;writing-mode:lr-tb;fill:#555555;fill-opacity:1;fill-rule:nonzero;stroke:none;font-family:ArialMT;-inkscape-font-specification:ArialMT">Strip II</tspan></text>
</g><path
         id="path83"
         style="fill:#ff9966;fill-opacity:1;fill-rule:evenodd;stroke:none"
         d="M 347.2,538.3 L 297.6,538.3 L 297.6,552.5 L 396.9,552.5 L 396.9,538.3 L 347.2,538.3 z" /><g
         id="g85"><path
           id="path87"
           style="fill:none;stroke:none"
           d="M 347.2,538.3 L 297.6,538.3 L 297.6,552.5 L 396.9,552.5 L 396.9,538.3 L 347.2,538.3 z" /></g><g
         id="g89"><text
           id="text91"
           transform="matrix(1,0,0,-1,324.9,540.5)"><tspan
             id="tspan93"
             sodipodi:role="line"
             y="0"
             x="0 9.2959995 13.286 17.976 21.07 28.854 32.745998 36.736 40.627998"
             style="font-size:14px;font-variant:normal;font-weight:normal;writing-mode:lr-tb;fill:#555555;fill-opacity:1;fill-rule:nonzero;stroke:none;font-family:ArialMT;-inkscape-font-specification:ArialMT">Strip III</tspan></text>
</g><path
         id="path95"
         style="fill:#99ccff;fill-opacity:1;fill-rule:evenodd;stroke:none"
         d="M 78,354.1 L 56.7,354.1 L 56.7,410.7 L 99.2,410.7 L 99.2,354.1 L 78,354.1 z" /><g
         id="g97"><path
           id="path99"
           style="fill:none;stroke:none"
           d="M 78,354.1 L 56.7,354.1 L 56.7,410.7 L 99.2,410.7 L 99.2,354.1 L 78,354.1 z" /></g><g
         id="g101"><text
           id="text103"
           transform="matrix(1,0,0,-1,72.1,385.4)"><tspan
             id="tspan105"
             sodipodi:role="line"
             y="0"
             x="0 3.892"
             style="font-size:14px;font-variant:normal;font-weight:normal;writing-mode:lr-tb;fill:#555555;fill-opacity:1;fill-rule:nonzero;stroke:none;font-family:ArialMT;-inkscape-font-specification:ArialMT">In</tspan></text>
</g><g
         id="g107"><text
           id="text109"
           transform="matrix(1,0,0,-1,61.9,369.7)"><tspan
             id="tspan111"
             sodipodi:role="line"
             y="0"
             x="0 10.192 13.286 16.379999 24.164 28.153999"
             style="font-size:14px;font-variant:normal;font-weight:normal;writing-mode:lr-tb;fill:#555555;fill-opacity:1;fill-rule:nonzero;stroke:none;font-family:ArialMT;-inkscape-font-specification:ArialMT">Clip I</tspan></text>
</g><path
         id="path113"
         style="fill:#99ccff;fill-opacity:1;fill-rule:evenodd;stroke:none"
         d="M 78,283.2 L 56.7,283.2 L 56.7,339.9 L 99.2,339.9 L 99.2,283.2 L 78,283.2 z" /><g
         id="g115"><path
           id="path117"
           style="fill:none;stroke:none"
           d="M 78,283.2 L 56.7,283.2 L 56.7,339.9 L 99.2,339.9 L 99.2,283.2 L 78,283.2 z" /></g><g
         id="g119"><text
           id="text121"
           transform="matrix(1,0,0,-1,72.1,314.5)"><tspan
             id="tspan123"
             sodipodi:role="line"
             y="0"
             x="0 3.892"
             style="font-size:14px;font-variant:normal;font-weight:normal;writing-mode:lr-tb;fill:#555555;fill-opacity:1;fill-rule:nonzero;stroke:none;font-family:ArialMT;-inkscape-font-specification:ArialMT">In</tspan></text>
</g><g
         id="g125"><text
           id="text127"
           transform="matrix(1,0,0,-1,63.2,298.8)"><tspan
             id="tspan129"
             sodipodi:role="line"
             y="0"
             x="0 10.192 17.598 21.49 25.48"
             style="font-size:14px;font-variant:normal;font-weight:normal;writing-mode:lr-tb;fill:#555555;fill-opacity:1;fill-rule:nonzero;stroke:none;font-family:ArialMT;-inkscape-font-specification:ArialMT">NL II</tspan></text>
</g><path
         id="path131"
         style="fill:#99ccff;fill-opacity:1;fill-rule:evenodd;stroke:none"
         d="M 134.6,354.1 L 113.4,354.1 L 113.4,410.7 L 155.9,410.7 L 155.9,354.1 L 134.6,354.1 z" /><g
         id="g133"><path
           id="path135"
           style="fill:none;stroke:none"
           d="M 134.6,354.1 L 113.4,354.1 L 113.4,410.7 L 155.9,410.7 L 155.9,354.1 L 134.6,354.1 z" /></g><g
         id="g137"><text
           id="text139"
           transform="matrix(1,0,0,-1,116.7,385.4)"><tspan
             id="tspan141"
             sodipodi:role="line"
             y="0"
             x="0 9.3800001 13.076 16.968 24.752001 31.836"
             style="font-size:14px;font-variant:normal;font-weight:normal;writing-mode:lr-tb;fill:#555555;fill-opacity:1;fill-rule:nonzero;stroke:none;font-family:ArialMT;-inkscape-font-specification:ArialMT">Effect</tspan></text>
</g><g
         id="g143"><text
           id="text145"
           transform="matrix(1,0,0,-1,132.7,369.7)"><tspan
             id="tspan147"
             y="0"
             x="0"
             style="font-size:14px;font-variant:normal;font-weight:normal;writing-mode:lr-tb;fill:#555555;fill-opacity:1;fill-rule:nonzero;stroke:none;font-family:ArialMT;-inkscape-font-specification:ArialMT">I</tspan></text>
</g><path
         id="path149"
         style="fill:#99ccff;fill-opacity:1;fill-rule:evenodd;stroke:none"
         d="M 191.3,354.1 L 170.1,354.1 L 170.1,410.7 L 212.6,410.7 L 212.6,354.1 L 191.3,354.1 z" /><g
         id="g151"><path
           id="path153"
           style="fill:none;stroke:none"
           d="M 191.3,354.1 L 170.1,354.1 L 170.1,410.7 L 212.6,410.7 L 212.6,354.1 L 191.3,354.1 z" /></g><g
         id="g155"><text
           id="text157"
           transform="matrix(1,0,0,-1,173.4,385.4)"><tspan
             id="tspan159"
             sodipodi:role="line"
             y="0"
             x="0 9.2959995 13.09 16.982 24.766001 31.85"
             style="font-size:14px;font-variant:normal;font-weight:normal;writing-mode:lr-tb;fill:#555555;fill-opacity:1;fill-rule:nonzero;stroke:none;font-family:ArialMT;-inkscape-font-specification:ArialMT">Effect</tspan></text>
</g><g
         id="g161"><text
           id="text163"
           transform="matrix(1,0,0,-1,187.4,369.7)"><tspan
             id="tspan165"
             sodipodi:role="line"
             y="0"
             x="0 3.99"
             style="font-size:14px;font-variant:normal;font-weight:normal;writing-mode:lr-tb;fill:#555555;fill-opacity:1;fill-rule:nonzero;stroke:none;font-family:ArialMT;-inkscape-font-specification:ArialMT">II</tspan></text>
</g><path
         id="path167"
         style="fill:#99ccff;fill-opacity:1;fill-rule:evenodd;stroke:none"
         d="M 248,354.1 L 226.8,354.1 L 226.8,410.7 L 269.3,410.7 L 269.3,354.1 L 248,354.1 z" /><g
         id="g169"><path
           id="path171"
           style="fill:none;stroke:none"
           d="M 248,354.1 L 226.8,354.1 L 226.8,410.7 L 269.3,410.7 L 269.3,354.1 L 248,354.1 z" /></g><g
         id="g173"><text
           id="text175"
           transform="matrix(1,0,0,-1,236.7,377.5)"><tspan
             id="tspan177"
             sodipodi:role="line"
             y="0"
             x="0 10.892 18.676001"
             style="font-size:14px;font-variant:normal;font-weight:normal;writing-mode:lr-tb;fill:#555555;fill-opacity:1;fill-rule:nonzero;stroke:none;font-family:ArialMT;-inkscape-font-specification:ArialMT">Out</tspan></text>
</g><g
         id="g179"><path
           id="path181"
           style="fill:none;stroke:none"
           d="M 99.2,311.5 L 191.3,311.5 L 191.3,354.1" /></g><g
         id="g195"><path
           id="path197"
           style="fill:none;stroke:none"
           d="M 248,410.7 L 248,467.2 L 148.8,467.2 L 148.8,524.1" /></g><path
         id="path199"
         style="fill:#ffff99;fill-opacity:1;fill-rule:evenodd;stroke:none"
         d="M 396.9,396.6 L 311.8,396.6 L 311.8,424.9 L 481.9,424.9 L 481.9,396.6 L 396.9,396.6 z" /><g
         id="g201"><path
           id="path203"
           style="fill:none;stroke:none"
           d="M 396.9,396.6 L 311.8,396.6 L 311.8,424.9 L 481.9,424.9 L 481.9,396.6 L 396.9,396.6 z" /></g><g
         id="g205"><text
           id="text207"
           transform="matrix(1,0,0,-1,341.5,404.5)"><tspan
             id="tspan209"
             sodipodi:role="line"
             y="0"
             x="0 12.996 23.004 32.903999 42.804001 47.880001 51.875999 61.776001 70.578003 80.585999 90.486 95.472 100.548 105.534"
             style="font-size:18px;font-variant:normal;font-weight:normal;writing-mode:lr-tb;fill:#555555;fill-opacity:1;fill-rule:nonzero;stroke:none;font-family:ArialMT;-inkscape-font-specification:ArialMT">Node layout II</tspan></text>
</g><g
         id="g211"><path
           id="path213"
           style="fill:none;stroke:none"
           d="M 396.9,424.9 L 396.9,460.1 L 255.1,460.1 L 255.1,495.8" /></g><path
         id="path215"
         style="fill:#ffff99;fill-opacity:1;fill-rule:evenodd;stroke:none"
         d="M 411,354.1 L 326,354.1 L 326,382.4 L 496.1,382.4 L 496.1,354.1 L 411,354.1 z" /><g
         id="g217"><path
           id="path219"
           style="fill:none;stroke:none"
           d="M 411,354.1 L 326,354.1 L 326,382.4 L 496.1,382.4 L 496.1,354.1 L 411,354.1 z" /></g><g
         id="g221"><text
           id="text223"
           transform="matrix(1,0,0,-1,353.2,362)"><tspan
             id="tspan225"
             sodipodi:role="line"
             y="0"
             x="0 12.906 22.914 32.922001 42.821999 47.807999 51.804001 61.812 70.505997 80.514 90.522003 95.508003 100.494 105.57 110.556"
             style="font-size:18px;font-variant:normal;font-weight:normal;writing-mode:lr-tb;fill:#555555;fill-opacity:1;fill-rule:nonzero;stroke:none;font-family:ArialMT;-inkscape-font-specification:ArialMT">Node layout III</tspan></text>
</g><g
         id="g227"><path
           id="path229"
           style="fill:none;stroke:none"
           d="M 411,382.4 L 411,467.6 L 347.2,467.6 L 347.2,538.3" /></g><path
         id="path231"
         style="fill:#ffcc99;fill-opacity:1;fill-rule:evenodd;stroke:#c81941;stroke-width:1.77683294;stroke-opacity:1"
         d="M 666.1,254.8 L 538.6,254.8 L 538.6,424.9 L 793.7,424.9 L 793.7,254.8 L 666.1,254.8 z" /><g
         id="g233"><path
           id="path235"
           style="fill:none;stroke:none"
           d="M 666.1,254.8 L 538.6,254.8 L 538.6,424.9 L 793.7,424.9 L 793.7,254.8 L 666.1,254.8 z" /></g><g
         id="g237"><text
           y="-263.10001"
           x="678.19312"
           id="text239"
           transform="scale(1,-1)"><tspan
             id="tspan241"
             sodipodi:role="line"
             y="-263.10001"
             x="678.19312 692.98907 702.8891 712.89709 716.89313 726.79309 731.86908 741.7691 745.76508 755.77313 761.67712 771.68512 777.67908"
             style="font-size:18px;font-variant:normal;font-weight:normal;writing-mode:lr-tb;fill:#555555;fill-opacity:1;fill-rule:nonzero;stroke:none;font-family:ArialMT;-inkscape-font-specification:ArialMT">Media Library</tspan></text>
</g><path
         id="path243"
         style="fill:#94bd5e;fill-opacity:1;fill-rule:evenodd;stroke:none"
         d="M 630.7,354.1 L 609.4,354.1 L 609.4,410.7 L 652,410.7 L 652,354.1 L 630.7,354.1 z" /><g
         id="g245"><path
           id="path247"
           style="fill:none;stroke:none"
           d="M 630.7,354.1 L 609.4,354.1 L 609.4,410.7 L 652,410.7 L 652,354.1 L 630.7,354.1 z" /></g><g
         id="g249"><text
           id="text251"
           transform="matrix(1,0,0,-1,612.7,377.5)"><tspan
             id="tspan253"
             sodipodi:role="line"
             y="0"
             x="0 10.192 13.286 16.379999 24.164 28.153999 32.046001"
             style="font-size:14px;font-variant:normal;font-weight:normal;writing-mode:lr-tb;fill:#555555;fill-opacity:1;fill-rule:nonzero;stroke:none;font-family:ArialMT;-inkscape-font-specification:ArialMT">Clip II</tspan></text>
</g><path
         id="path255"
         style="fill:#94bd5e;fill-opacity:1;fill-rule:evenodd;stroke:none"
         d="M 574,354.1 L 552.8,354.1 L 552.8,410.7 L 595.3,410.7 L 595.3,354.1 L 574,354.1 z" /><g
         id="g257"><path
           id="path259"
           style="fill:none;stroke:none"
           d="M 574,354.1 L 552.8,354.1 L 552.8,410.7 L 595.3,410.7 L 595.3,354.1 L 574,354.1 z" /></g><g
         id="g261"><text
           id="text263"
           transform="matrix(1,0,0,-1,557.9,377.5)"><tspan
             id="tspan265"
             sodipodi:role="line"
             y="0"
             x="0 10.192 13.286 16.478001 24.261999 28.153999"
             style="font-size:14px;font-variant:normal;font-weight:normal;writing-mode:lr-tb;fill:#555555;fill-opacity:1;fill-rule:nonzero;stroke:none;font-family:ArialMT;-inkscape-font-specification:ArialMT">Clip I</tspan></text>
</g><path
         id="path267"
         style="fill:#94bd5e;fill-opacity:1;fill-rule:evenodd;stroke:none"
         d="M 687.4,354.1 L 666.1,354.1 L 666.1,410.7 L 708.7,410.7 L 708.7,354.1 L 687.4,354.1 z" /><g
         id="g269"><path
           id="path271"
           style="fill:none;stroke:none"
           d="M 687.4,354.1 L 666.1,354.1 L 666.1,410.7 L 708.7,410.7 L 708.7,354.1 L 687.4,354.1 z" /></g><g
         id="g273"><text
           id="text275"
           transform="matrix(1,0,0,-1,667.4,377.5)"><tspan
             id="tspan277"
             sodipodi:role="line"
             y="0"
             x="0 10.192 13.286 16.379999 24.164 28.153999 32.046001 36.035999"
             style="font-size:14px;font-variant:normal;font-weight:normal;writing-mode:lr-tb;fill:#555555;fill-opacity:1;fill-rule:nonzero;stroke:none;font-family:ArialMT;-inkscape-font-specification:ArialMT">Clip III</tspan></text>
</g><path
         id="path279"
         style="fill:#ffff99;fill-opacity:1;fill-rule:evenodd;stroke:none"
         d="M 581.1,283.2 L 552.8,283.2 L 552.8,339.9 L 609.4,339.9 L 609.4,283.2 L 581.1,283.2 z" /><g
         id="g281"><path
           id="path283"
           style="fill:none;stroke:none"
           d="M 581.1,283.2 L 552.8,283.2 L 552.8,339.9 L 609.4,339.9 L 609.4,283.2 L 581.1,283.2 z" /></g><g
         id="g285"><text
           id="text287"
           transform="matrix(1,0,0,-1,562.3,314.5)"><tspan
             id="tspan289"
             sodipodi:role="line"
             y="0"
             x="0 10.192 17.976 25.76 33.543999"
             style="font-size:14px;font-variant:normal;font-weight:normal;writing-mode:lr-tb;fill:#555555;fill-opacity:1;fill-rule:nonzero;stroke:none;font-family:ArialMT;-inkscape-font-specification:ArialMT">Node </tspan></text>
</g><g
         id="g291"><text
           id="text293"
           transform="matrix(1,0,0,-1,558.5,298.8)"><tspan
             id="tspan295"
             sodipodi:role="line"
             y="0"
             x="0 3.0940001 10.878 17.780001 25.563999 33.264 37.254002 41.243999"
             style="font-size:14px;font-variant:normal;font-weight:normal;writing-mode:lr-tb;fill:#555555;fill-opacity:1;fill-rule:nonzero;stroke:none;font-family:ArialMT;-inkscape-font-specification:ArialMT">layout I</tspan></text>
</g><path
         id="path297"
         style="fill:#ffff99;fill-opacity:1;fill-rule:evenodd;stroke:none"
         d="M 652,283.2 L 623.6,283.2 L 623.6,339.9 L 680.3,339.9 L 680.3,283.2 L 652,283.2 z" /><g
         id="g299"><path
           id="path301"
           style="fill:none;stroke:none"
           d="M 652,283.2 L 623.6,283.2 L 623.6,339.9 L 680.3,339.9 L 680.3,283.2 L 652,283.2 z" /></g><g
         id="g303"><text
           id="text305"
           transform="matrix(1,0,0,-1,633.2,314.5)"><tspan
             id="tspan307"
             sodipodi:role="line"
             y="0"
             x="0 10.192 17.976 25.76 33.543999"
             style="font-size:14px;font-variant:normal;font-weight:normal;writing-mode:lr-tb;fill:#555555;fill-opacity:1;fill-rule:nonzero;stroke:none;font-family:ArialMT;-inkscape-font-specification:ArialMT">Node </tspan></text>
</g><g
         id="g309"><text
           id="text311"
           transform="matrix(1,0,0,-1,627.4,298.8)"><tspan
             id="tspan313"
             sodipodi:role="line"
             y="0"
             x="0 3.0940001 10.878 17.681999 25.466 33.25 37.240002 41.132 45.122002"
             style="font-size:14px;font-variant:normal;font-weight:normal;writing-mode:lr-tb;fill:#555555;fill-opacity:1;fill-rule:nonzero;stroke:none;font-family:ArialMT;-inkscape-font-specification:ArialMT">layout II</tspan></text>
</g><path
         id="path315"
         style="fill:#ffff99;fill-opacity:1;fill-rule:evenodd;stroke:none"
         d="M 722.8,283.2 L 694.5,283.2 L 694.5,339.9 L 751.2,339.9 L 751.2,283.2 L 722.8,283.2 z" /><g
         id="g317"><path
           id="path319"
           style="fill:none;stroke:none"
           d="M 722.8,283.2 L 694.5,283.2 L 694.5,339.9 L 751.2,339.9 L 751.2,283.2 L 722.8,283.2 z" /></g><g
         id="g321"><text
           id="text323"
           transform="matrix(1,0,0,-1,704,314.5)"><tspan
             id="tspan325"
             sodipodi:role="line"
             y="0"
             x="0 10.192 17.976 25.76 33.543999"
             style="font-size:14px;font-variant:normal;font-weight:normal;writing-mode:lr-tb;fill:#555555;fill-opacity:1;fill-rule:nonzero;stroke:none;font-family:ArialMT;-inkscape-font-specification:ArialMT">Node </tspan></text>
</g><g
         id="g327"><text
           id="text329"
           transform="matrix(1,0,0,-1,696.2,298.8)"><tspan
             id="tspan331"
             sodipodi:role="line"
             y="0"
             x="0 3.1919999 10.976 17.780001 25.563999 33.348 37.338001 41.23 45.220001 49.209999"
             style="font-size:14px;font-variant:normal;font-weight:normal;writing-mode:lr-tb;fill:#555555;fill-opacity:1;fill-rule:nonzero;stroke:none;font-family:ArialMT;-inkscape-font-specification:ArialMT">layout III</tspan></text>
</g><g
         id="g333"><path
           id="path335"
           style="fill:none;stroke:none"
           d="M 78,283.2 L 78,269 L 652,269 L 652,283.2" /></g><g
         id="g337"><path
           id="path339"
           style="fill:none;stroke:none"
           d="M 574,354.1 L 574,347.5 L 78,347.5 L 78,354.1" /></g><path
         id="path341"
         style="fill:#ff3333;fill-opacity:1;fill-rule:evenodd;stroke:none"
         d="M 215.4,481.6 L 212.6,481.6 L 212.6,566.7 L 218.3,566.7 L 218.3,481.6 L 215.4,481.6 z" /><g
         id="g343"><path
           id="path345"
           style="fill:none;stroke:none"
           d="M 215.4,481.6 L 212.6,481.6 L 212.6,566.7 L 218.3,566.7 L 218.3,481.6 L 215.4,481.6 z" /></g><path
         id="path347"
         style="fill:#9999cc;fill-opacity:1;fill-rule:evenodd;stroke:#592e85;stroke-width:1.77683294;stroke-opacity:1"
         d="M 659.1,439.1 L 538.6,439.1 L 538.6,566.7 L 779.5,566.7 L 779.5,439.1 L 659.1,439.1 z" /><g
         id="g349"><path
           id="path351"
           style="fill:none;stroke:none"
           d="M 659.1,439.1 L 538.6,439.1 L 538.6,566.7 L 779.5,566.7 L 779.5,439.1 L 659.1,439.1 z" /></g><g
         id="g353"><text
           id="text355"
           transform="matrix(1,0,0,-1,624.5,547)"><tspan
             id="tspan357"
             sodipodi:role="line"
             y="0"
             x="0 11.7 15.606 25.614 38.214001 48.113998 58.122002 64.115997"
             style="font-size:18px;font-variant:normal;font-weight:normal;writing-mode:lr-tb;fill:#555555;fill-opacity:1;fill-rule:nonzero;stroke:none;font-family:ArialMT;-inkscape-font-specification:ArialMT">Viewport</tspan></text>
</g><path
         id="path359"
         style="fill:#99ccff;fill-opacity:1;fill-rule:evenodd;stroke:none"
         d="M 722.8,467.4 L 680.3,467.4 L 680.3,538.3 L 765.4,538.3 L 765.4,467.4 L 722.8,467.4 z" /><g
         id="g361"><path
           id="path363"
           style="fill:none;stroke:none"
           d="M 722.8,467.4 L 680.3,467.4 L 680.3,538.3 L 765.4,538.3 L 765.4,467.4 L 722.8,467.4 z" /></g><g
         id="g365"><text
           id="text367"
           transform="matrix(1,0,0,-1,693.6,496.6)"><tspan
             id="tspan369"
             sodipodi:role="line"
             y="0"
             x="0 12.906 16.902 25.902 35.801998 39.798 49.806"
             style="font-size:18px;font-variant:normal;font-weight:normal;writing-mode:lr-tb;fill:#555555;fill-opacity:1;fill-rule:nonzero;stroke:none;font-family:ArialMT;-inkscape-font-specification:ArialMT">Display</tspan></text>
</g><path
         id="path371"
         style="fill:#99ccff;fill-opacity:1;fill-rule:evenodd;stroke:none"
         d="M 609.4,467.4 L 566.9,467.4 L 566.9,538.3 L 652,538.3 L 652,467.4 L 609.4,467.4 z" /><g
         id="g373"><path
           id="path375"
           style="fill:none;stroke:none"
           d="M 609.4,467.4 L 566.9,467.4 L 566.9,538.3 L 652,538.3 L 652,467.4 L 609.4,467.4 z" /></g><g
         id="g377"><text
           id="text379"
           transform="matrix(1,0,0,-1,574.7,522.7)"><tspan
             id="tspan381"
             sodipodi:role="line"
             y="0"
             x="0 4.1849999 12.57 16.754999 25.139999 30.135 38.52 46.110001 50.294998 53.685001 60.990002"
             style="font-size:15px;font-variant:normal;font-weight:normal;writing-mode:lr-tb;fill:#555555;fill-opacity:1;fill-rule:nonzero;stroke:none;font-family:ArialMT;-inkscape-font-specification:ArialMT">Interactive</tspan></text>
</g><g
         id="g383"><text
           id="text385"
           transform="matrix(1,0,0,-1,577.9,506)"><tspan
             id="tspan387"
             sodipodi:role="line"
             y="0"
             x="0 4.1849999 12.57 16.754999 25.139999 30.225 34.41 42.794998 50.294998 58.68"
             style="font-size:15px;font-variant:normal;font-weight:normal;writing-mode:lr-tb;fill:#555555;fill-opacity:1;fill-rule:nonzero;stroke:none;font-family:ArialMT;-inkscape-font-specification:ArialMT">Interface </tspan></text>
</g><g
         id="g389"><text
           id="text391"
           transform="matrix(1,0,0,-1,594.7,489.3)"><tspan
             id="tspan393"
             sodipodi:role="line"
             y="0"
             x="0 8.3850002 16.77 25.155001"
             style="font-size:15px;font-variant:normal;font-weight:normal;writing-mode:lr-tb;fill:#555555;fill-opacity:1;fill-rule:nonzero;stroke:none;font-family:ArialMT;-inkscape-font-specification:ArialMT">and </tspan></text>
</g><g
         id="g395"><text
           id="text397"
           transform="matrix(1,0,0,-1,581.4,472.7)"><tspan
             id="tspan399"
             sodipodi:role="line"
             y="0"
             x="0 10.8 19.094999 27.584999 31.77 36.764999 45.150002 48.540001"
             style="font-size:15px;font-variant:normal;font-weight:normal;writing-mode:lr-tb;fill:#555555;fill-opacity:1;fill-rule:nonzero;stroke:none;font-family:ArialMT;-inkscape-font-specification:ArialMT">Controls</tspan></text>
</g><g
         id="g401"><path
           id="path403"
           style="fill:none;stroke:#ff3333;stroke-width:5.02843714;stroke-linecap:butt;stroke-linejoin:round;stroke-miterlimit:10;stroke-dasharray:none;stroke-opacity:1"
           d="M 218.3,524.1 L 449.3,524.1 L 449.3,453.2 L 722.8,453.2 L 722.8,467.4" /></g><g
         id="g405"><path
           id="path407"
           style="fill:none;stroke:#000000;stroke-width:5.02843714;stroke-linecap:butt;stroke-linejoin:round;stroke-miterlimit:10;stroke-dasharray:none;stroke-opacity:1"
           d="M 510.2,339.9 L 524.4,339.9 L 524.4,502.9 L 566.9,502.9" /></g></g></g></svg>