<?xml version="1.0" encoding="UTF-8" standalone="no"?>
<!-- Created with Inkscape (http://www.inkscape.org/) -->

<svg
   xmlns:dc="http://purl.org/dc/elements/1.1/"
   xmlns:cc="http://creativecommons.org/ns#"
   xmlns:rdf="http://www.w3.org/1999/02/22-rdf-syntax-ns#"
   xmlns:svg="http://www.w3.org/2000/svg"
   xmlns="http://www.w3.org/2000/svg"
   xmlns:sodipodi="http://sodipodi.sourceforge.net/DTD/sodipodi-0.dtd"
   xmlns:inkscape="http://www.inkscape.org/namespaces/inkscape"
   version="1.0"
   width="710"
   height="710"
   id="svg2"
   style="display:inline"
   sodipodi:version="0.32"
   inkscape:version="0.48.3.1 r9886"
   sodipodi:docname="LumiLogo.svg"
   inkscape:output_extension="org.inkscape.output.svg.inkscape"
   inkscape:export-filename="/Werk/devel/lumi/doc/devel/draw/rendered/LumiLogo.png"
   inkscape:export-xdpi="130.048"
   inkscape:export-ydpi="130.048">
  <title
     id="title3035">Lumiera Video Editor</title>
  <metadata
     id="metadata59">
    <rdf:RDF>
      <cc:Work
         rdf:about="">
        <dc:format>image/svg+xml</dc:format>
        <dc:type
           rdf:resource="http://purl.org/dc/dcmitype/StillImage" />
        <dc:title>Lumiera Video Editor</dc:title>
        <cc:license
           rdf:resource="http://creativecommons.org/licenses/by-sa/3.0/" />
        <dc:date>2009</dc:date>
        <dc:creator>
          <cc:Agent>
            <dc:title>Lumiera.org project</dc:title>
          </cc:Agent>
        </dc:creator>
        <dc:description>Logo of the Lumiera.org project</dc:description>
      </cc:Work>
      <cc:License
         rdf:about="http://creativecommons.org/licenses/by-sa/3.0/">
        <cc:permits
           rdf:resource="http://creativecommons.org/ns#Reproduction" />
        <cc:permits
           rdf:resource="http://creativecommons.org/ns#Distribution" />
        <cc:requires
           rdf:resource="http://creativecommons.org/ns#Notice" />
        <cc:requires
           rdf:resource="http://creativecommons.org/ns#Attribution" />
        <cc:permits
           rdf:resource="http://creativecommons.org/ns#DerivativeWorks" />
        <cc:requires
           rdf:resource="http://creativecommons.org/ns#ShareAlike" />
      </cc:License>
    </rdf:RDF>
  </metadata>
  <sodipodi:namedview
     inkscape:window-height="774"
     inkscape:window-width="1274"
     inkscape:pageshadow="2"
     inkscape:pageopacity="0.0"
     guidetolerance="10.0"
     gridtolerance="10.0"
     objecttolerance="10.0"
     borderopacity="1.0"
     bordercolor="#666666"
     pagecolor="#ffffff"
     id="base"
     showgrid="false"
     inkscape:zoom="0.65757782"
     inkscape:cx="479.4095"
     inkscape:cy="340.79347"
     inkscape:window-x="0"
     inkscape:window-y="0"
     inkscape:current-layer="svg2"
     inkscape:window-maximized="0" />
  <defs
     id="defs5">
    <inkscape:perspective
       sodipodi:type="inkscape:persp3d"
       inkscape:vp_x="0 : 354.33069 : 1"
       inkscape:vp_y="0 : 1000 : 0"
       inkscape:vp_z="708.66138 : 354.33069 : 1"
       inkscape:persp3d-origin="354.33069 : 236.22046 : 1"
       id="perspective61" />
  </defs>
  <path
     style="fill:#000000;fill-opacity:1;fill-rule:evenodd;stroke:none"
     id="LumiLogo"
     d="m 497.75226,471.59335 c -18.84312,0 -46.84272,9.2798 -46.84272,54.40928 0,31.47482 13.00635,53.97874 40.13491,53.97874 18.88941,0 31.30668,-4.7316 41.23086,-13.435 l -5.76315,-12.92114 c -6.89581,5.86085 -19.46999,10.82196 -34.37176,10.82196 -9.94442,0 -22.04341,-5.1363 -22.6769,-29.55055 l 65.27795,0 0.71372,-15.50033 c 1.69065,-36.7182 -23.09455,-47.80296 -37.70291,-47.80296 z m -2.97045,14.47338 c 14.36688,0 25.42835,10.44479 24.16109,33.82666 l -49.30057,0 c 0.1732,-25.68059 10.77695,-33.82666 25.13948,-33.82666 z m -86.66302,-12.13408 0,103.53613 18.71447,0 0,-103.53613 -18.71447,0 z m 21.83271,-33.742 c 0,6.88689 -5.58938,12.47628 -12.47631,12.47628 -6.88693,0 -12.47632,-5.58939 -12.47632,-12.47628 0,-6.88694 5.58939,-12.47633 12.47632,-12.47633 6.88693,0 12.47631,5.58939 12.47631,12.47633 z m 144.08739,41.06175 -1.24023,-7.30608 -14.80574,0 0,103.53612 18.71452,0 0,-72.76366 c 0,-16.37029 22.5716,-19.79044 37.46113,-14.9766 l 0,-15.84853 c -16.4807,-3.59451 -31.47977,1.80892 -40.12968,7.35875 z m 56.97237,-2.97402 6.15139,14.1225 c 13.37209,-6.72723 39.54416,-11.20656 39.80974,10.96848 l 0.13194,11.02095 c -35.81815,-5.19846 -61.60197,6.64553 -61.60197,29.12883 0,22.39432 11.51623,36.64918 32.83714,36.64918 10.52421,0 24.34267,-3.91576 31.27726,-9.7038 l 1.55959,7.27785 14.90226,0 0,-72.7904 c 0,-35.59591 -35.72134,-39.57175 -65.06735,-26.67359 z m 46.17962,50.09852 0,19.2857 c 0,10.24225 -9.08858,16.57352 -25.45558,16.57352 -12.20934,0 -17.86501,-7.25933 -17.86501,-18.98417 0,-12.90206 11.96586,-19.64756 43.32059,-16.87505 z m -546.23159,-54.44425 0,62.12168 c 0,21.30145 6.78407,44.11773 35.3321,44.11773 11.84197,0 21.00098,-2.73029 32.57706,-9.5131 l 1.26732,6.63654 15.03867,0 0,-103.36285 -18.71448,0 -0.24508,74.86469 c 0,7.85975 -9.59318,15.11084 -27.47286,15.11084 -16.36339,0 -19.06826,-15.20405 -19.06826,-30.79454 l 0,-59.18099 -18.71447,0 z m 126.32384,7.12545 -1.40345,-7.11178 -14.72899,0 0,103.53612 18.71448,0 0.0865,-73.5583 c 0,-18.49533 41.84779,-25.34533 41.84779,-3.85636 l 0,77.41466 18.6277,0 0.17328,-74.59799 c 0,-18.85393 41.76101,-23.94721 41.76101,-2.47012 l 0.0868,77.06811 18.71449,0 -0.0868,-73.5583 c 0,-42.46587 -55.08489,-35.4687 -67.20356,-21.62542 -12.81983,-16.97342 -42.77381,-10.36219 -56.58925,-1.24062 z m -225.987541,-68.03414 0,164.27154 81.529501,0 0,-16.26391 -62.815024,0 0,-148.00763 -18.714477,0 z M 9.1243953,256.45158 l 0,4.67862 L 228.23964,449.83453 528.53775,292.321 l 0,-3.55229 C 407.25015,351.83405 344.2184,393.91087 235.25771,395.07735 150.65412,371.54791 105.47876,341.78952 9.1243953,256.45158 z M 310.5487,183.84633 c -0.5534,0.0356 -1.13368,0.18607 -1.73282,0.34657 l -18.71448,5.28511 c -2.07219,0.55528 -2.39297,2.24745 -0.43307,3.379 l 14.55571,8.49083 c 1.77412,1.02437 4.43186,1.32887 7.45113,0.51985 l 18.10785,-5.45839 c 1.80131,-0.48264 1.7525,-2.19392 0,-3.20572 l -14.20914,-7.88435 c -1.84705,-1.06652 -3.36473,-1.57969 -5.02518,-1.4729 z m 47.82589,26.07898 c -0.92131,-0.0243 -1.83985,0.23505 -2.94581,0.69313 l -18.19463,6.06488 c -1.29282,0.74644 -2.25045,2.56283 -0.0865,3.8122 l 15.50862,9.01068 c 2.85514,1.64829 5.34291,1.81977 8.57761,0.95305 l 18.45442,-6.49808 c 1.26565,-0.52422 1.30086,-2.33779 -0.95291,-3.63892 l -15.5089,-8.57747 c -1.84289,-1.06401 -3.31593,-1.77897 -4.8519,-1.81947 z m 52.24472,29.97783 c -0.77519,0.0583 -1.55621,0.20014 -2.42595,0.4332 -6.07208,2.25042 -12.11728,4.51166 -18.19463,6.75801 -1.62913,0.6748 -1.65714,3.07515 0.51985,4.33205 l 16.98165,9.87709 c 3.11603,1.79905 6.55645,2.61816 9.53052,1.38625 6.23567,-2.38702 12.47633,-4.81131 18.71448,-7.19121 1.61499,-0.66892 1.6308,-2.63039 -0.86641,-4.07213 l -17.93484,-9.96373 c -1.99927,-1.15428 -3.99908,-1.73457 -6.32467,-1.55953 z m 57.00986,31.71064 c -0.79021,0.0711 -1.57814,0.29122 -2.33943,0.60649 -6.02024,2.59243 -11.90853,5.15612 -17.76129,7.71106 -1.72124,1.32062 -1.41234,3.80605 1.29944,5.37175 l 18.80128,10.91677 c 3.82055,2.20573 6.76247,2.56871 9.61706,1.38626 5.75101,-2.8957 11.59568,-5.84371 17.58828,-8.92404 1.81904,-1.05023 0.9265,-3.50318 -1.55958,-4.93854 l -18.45468,-10.13701 c -2.36114,-1.36319 -4.82027,-2.2062 -7.19108,-1.99274 z M 84.242122,247.87411 c -0.81761,0.0501 -1.71729,0.20739 -2.685737,0.43321 l -27.985101,7.88434 c -3.090688,0.85834 -5.162953,3.36547 -3.119081,5.45839 4.118546,3.64678 8.101404,7.16736 12.129758,10.65686 3.090876,2.79968 6.932835,3.49514 11.86986,1.99274 l 28.591569,-8.75075 c 2.5801,-0.7677 3.34476,-3.32011 0.25978,-5.71831 -4.174576,-3.23253 -8.356085,-6.43136 -12.736108,-9.87709 -2.002028,-1.55582 -3.871537,-2.22963 -6.32494,-2.07939 z m 48.345748,37.16904 c -0.99257,0.0369 -2.12376,0.22349 -3.46565,0.51984 l -29.02464,9.61716 c -4.255256,1.76252 -4.672238,4.24256 -1.73282,6.49809 4.6071,3.56998 9.2322,7.0726 13.86258,10.48358 3.6478,2.75873 7.77413,3.68315 13.16945,1.9061 l 28.245,-10.05037 c 2.93111,-1.12303 3.96082,-3.33456 0.17328,-6.3248 -4.51947,-3.22034 -9.11131,-6.55614 -13.86257,-10.05037 -2.63223,-1.69243 -4.3864,-2.70999 -7.36463,-2.59923 z m 54.3241,37.25567 c -1.47081,-0.0174 -3.0542,0.25472 -4.93868,0.69314 -9.19311,3.24663 -18.40007,6.54413 -27.72516,9.79044 -3.79473,1.30841 -4.5594,4.40619 -1.21296,6.49809 5.17379,3.23408 10.68388,6.2071 16.20201,9.18395 4.84026,2.61124 9.09718,2.70564 14.20915,1.03969 8.58399,-2.89919 17.11668,-5.87246 25.64577,-8.83739 2.57122,-1.03761 4.06201,-4.27496 0.60634,-6.49809 -5.42331,-3.24286 -10.78092,-6.54515 -16.11524,-9.87708 -2.14759,-1.24602 -4.22005,-1.96377 -6.67123,-1.99275 z m 60.562,36.73583 c -1.58311,-0.0496 -3.30734,0.27631 -5.28497,0.86642 -8.18308,2.44153 -15.19921,3.4411 -25.03942,5.80495 -2.59396,0.62317 -3.91618,3.56676 0.0868,5.45839 6.09593,2.88062 12.51707,6.26497 20.27402,8.57747 4.16626,1.24204 8.35581,1.39424 13.60252,0.69313 8.80329,-1.17635 18.80985,-2.5994 23.47987,-4.4187 4.67003,-1.8193 4.09668,-3.24719 1.38626,-4.67862 -5.95231,-3.14334 -14.9591,-6.55822 -20.53408,-9.53052 -3.00901,-1.68405 -5.3321,-2.68983 -7.97098,-2.77252 z"
     inkscape:connector-curvature="0" />
</svg>
